0
SECTION
2
HEADER
9
$INSUNITS
70
4
9
$ACADVER
1
AC1014
9
$HANDSEED
5
FFFF
0
ENDSEC
0
SECTION
2
TABLES
0
TABLE
2
VPORT
5
8
100
AcDbSymbolTable
0
ENDTAB
0
TABLE
2
LTYPE
5
5
100
AcDbSymbolTable
0
LTYPE
5
14
100
AcDbSymbolTableRecord
100
AcDbLinetypeTableRecord
2
BYBLOCK
70
0
0
LTYPE
5
15
100
AcDbSymbolTableRecord
100
AcDbLinetypeTableRecord
2
BYLAYER
70
0
0
ENDTAB
0
TABLE
2
LAYER
5
2
100
AcDbSymbolTable
70
2
0
LAYER
5
50
100
AcDbSymbolTableRecord
100
AcDbLayerTableRecord
2
0
70
0
6
CONTINUOUS
0
ENDTAB
0
TABLE
2
STYLE
5
3
100
AcDbSymbolTable
70
1
0
STYLE
5
11
100
AcDbSymbolTableRecord
100
AcDbTextStyleTableRecord
2
STANDARD
70
0
0
ENDTAB
0
TABLE
2
VIEW
5
6
100
AcDbSymbolTable
70
0
0
ENDTAB
0
TABLE
2
UCS
5
7
100
AcDbSymbolTable
70
0
0
ENDTAB
0
TABLE
2
APPID
5
9
100
AcDbSymbolTable
70
2
0
APPID
5
12
100
AcDbSymbolTableRecord
100
AcDbRegAppTableRecord
2
ACAD
70
0
0
ENDTAB
0
TABLE
2
DIMSTYLE
5
A
100
AcDbSymbolTable
70
1
0
ENDTAB
0
TABLE
2
BLOCK_RECORD
5
1
100
AcDbSymbolTable
70
1
0
BLOCK_RECORD
5
1F
100
AcDbSymbolTableRecord
100
AcDbBlockTableRecord
2
*MODEL_SPACE
0
BLOCK_RECORD
5
1B
100
AcDbSymbolTableRecord
100
AcDbBlockTableRecord
2
*PAPER_SPACE
0
ENDTAB
0
ENDSEC
0
SECTION
2
BLOCKS
0
BLOCK
5
20
100
AcDbEntity
100
AcDbBlockBegin
2
*MODEL_SPACE
0
ENDBLK
5
21
100
AcDbEntity
100
AcDbBlockEnd
0
BLOCK
5
1C
100
AcDbEntity
100
AcDbBlockBegin
2
*PAPER_SPACE
0
ENDBLK
5
1D
100
AcDbEntity
100
AcDbBlockEnd
0
ENDSEC
0
SECTION
2
ENTITIES
0
LWPOLYLINE
5
100
100
AcDbEntity
8
0
100
AcDbPolyline
90
84
70
1
43
0.0
10
-115.43003208972367
20
51.601509308132201
10
-168.08003208972366
20
51.601509308132222
10
-168.08003208972366
20
42.60131202681626
10
-170.58003208972366
20
42.601312026816238
42
0.41421356237310231
10
-173.08003208972369
20
40.101312026816231
10
-173.08003208972366
20
22.225546139301354
10
-177.08003208972366
20
22.225546139301358
10
-177.08003208972366
20
-41.774454041109166
10
-171.64790809275479
20
-41.77445403601606
10
-171.56842463613711
20
-58.609491120744096
42
0.41039198102075997
10
-169.08931231929051
20
-61.09760094524971
10
-135.62184255929756
20
-61.376860826503389
42
-0.21072083469683309
10
-131.94343869795688
20
-63.03592620862338
10
-116.42365862942569
20
-80.318068254189626
42
0.2133563981436723
10
-114.55923529537414
20
-81.14768416849904
10
-109.42790637266874
20
-81.138731867580262
10
-109.42790637247099
20
-84.647687973183722
10
-93.427906377529965
20
-84.647687973183707
10
-77.427906377529965
20
-84.647687973183736
10
-77.427906377529922
20
-80.647687973183722
10
-71.943505168858678
20
-80.647687973183722
10
-23.916356822100692
20
-100.70782171146762
42
0.40234959564097383
10
-20.687051117917893
20
-99.457508479633304
10
-18.803209441550127
20
-95.41759696751825
10
-15.177978293403505
20
-97.108070014481058
10
-5.0351400116267033
20
-75.356683125601492
10
-2.4994304411824908
20
-69.918836403381576
10
-6.124661589329067
20
-68.228363356418782
10
-3.5112920641899583
20
-62.623974323909209
42
0.41421356237309775
10
-4.7205158774298379
20
-59.301659201965833
10
-6.2011113371473989
20
-58.611246200470021
10
-6.3136772905553427
20
-41.796901050062878
10
-2.7287022191814083
20
-41.772900939844902
10
-2.7296153488215662
20
-37.471699036830806
10
2.7293930801545989
20
-37.471699036830806
10
2.7284799505144433
20
-41.772900939844902
10
6.3134550218883776
20
-41.796901050062878
10
6.200889068480441
20
-58.611246200470021
10
4.7202936087628853
20
-59.301659201965848
42
0.41421356237309764
10
3.5110697955230021
20
-62.623974323909209
10
6.1244393206621126
20
-68.228363356418782
10
2.4992081725155382
20
-69.918836403381576
10
5.0349177429597534
20
-75.356683125601492
10
15.177756024736562
20
-97.108070014481058
10
18.802987172883185
20
-95.41759696751825
10
20.686828849250954
20
-99.457508479633276
42
0.40234959564097383
10
23.916134553433753
20
-100.7078217114676
10
71.943282900191718
20
-80.647687973183679
10
77.427684108862977
20
-80.647687973183679
10
77.427684108863005
20
-84.647687973183707
10
93.427684108863019
20
-84.647687973183679
10
109.42768410380404
20
-84.647687973183679
10
109.42768410400177
20
-81.138731867580205
10
114.55901302670716
20
-81.147684168498984
42
0.2133563981436723
10
116.42343636075871
20
-80.318068254189569
10
131.94321642928992
20
-63.03592620862333
42
-0.21072083469683309
10
135.62162029063057
20
-61.376860826503346
10
169.08909005062361
20
-61.097600945249638
42
0.41039198102075997
10
171.56820236747021
20
-58.609491120744025
10
171.64768582408783
20
-41.774454036015982
10
177.07980982105667
20
-41.774454041109088
10
177.07980982105667
20
22.225546139301436
10
173.0798098210567
20
22.225546139301429
10
173.07980982105673
20
40.101312026816309
42
0.41421356237310125
10
170.5798098210567
20
42.601312026816309
10
168.0798098210567
20
42.601312026816331
10
168.0798098210567
20
51.601509308132293
10
115.42980982105666
20
51.60150930813225
10
65.998445231039341
20
51.601509308132236
10
16.2008890684804
20
51.601509308132201
10
16.200889068480389
20
42.601312026816281
10
9.2458616969044218
20
42.601312026816274
42
0.41415138356766107
10
6.7458617532416163
20
40.101842767781349
10
6.7420668290806116
20
22.226248432378792
10
2.7420669192201244
20
22.227097617922897
10
2.7409692473360159
20
17.056628728091596
10
-2.7411915160030076
20
17.056628728091592
10
-2.7422891878871178
20
22.227097617922897
10
-6.742289097747606
20
22.226248432378792
10
-6.7460840219086169
20
40.101842767781349
42
0.41415138356766129
10
-9.2460839655714242
20
42.601312026816274
10
-16.201111337147388
20
42.601312026816274
10
-16.201111337147406
20
51.601509308132194
10
-65.998667499706357
20
51.601509308132208
0
CIRCLE
5
101
100
AcDbEntity
8
0
100
AcDbCircle
10
30.200991031838591
20
-21.953507200300759
30
0
40
19.999999999999496
210
0
220
-0
230
1
0
LWPOLYLINE
5
102
100
AcDbEntity
8
0
100
AcDbPolyline
90
8
70
1
43
0.0
10
13.219495401611546
20
-28.051061888931187
42
0.70248419704104159
10
47.095253764397086
20
-28.069100668287934
10
42.111626232490913
20
-25.95367628762564
42
-0.99999999999999989
10
42.111626232490984
20
-17.953676287625953
10
47.095253764396965
20
-15.838251906962434
42
0.70248419704100606
10
13.21949540161186
20
-15.856290686320724
10
18.160626232491587
20
-17.953676287626294
42
-0.99999999999999989
10
18.160626232491516
20
-25.953676287625981
0
CIRCLE
5
103
100
AcDbEntity
8
0
100
AcDbCircle
10
15.200991031838598
20
-21.869687973183709
30
0
40
1.4999999999999971
210
0
220
-0
230
1
0
CIRCLE
5
104
100
AcDbEntity
8
0
100
AcDbCircle
10
45.200752218278879
20
-21.868864718300838
30
0
40
1.4999999999999971
210
0
220
-0
230
1
0
CIRCLE
5
105
100
AcDbEntity
8
0
100
AcDbCircle
10
-30.201213300505565
20
-21.953507200300777
30
0
40
19.999999999999496
210
0
220
-0
230
1
0
LWPOLYLINE
5
106
100
AcDbEntity
8
0
100
AcDbPolyline
90
8
70
1
43
0.0
10
-47.095476033064081
20
-28.069100668287955
42
0.70248419704104159
10
-13.219717670278497
20
-28.051061888931216
10
-18.16084850115849
20
-25.953676287625989
42
-0.99999999999999989
10
-18.160848501158561
20
-17.953676287626301
10
-13.21971767027884
20
-15.856290686320733
42
0.70248419704100595
10
-47.095476033063967
20
-15.838251906962441
10
-42.111848501157979
20
-17.953676287625974
42
-0.99999999999999989
10
-42.111848501157908
20
-25.953676287625662
0
CIRCLE
5
107
100
AcDbEntity
8
0
100
AcDbCircle
10
-45.200974486945867
20
-21.868864718300856
30
0
40
1.4999999999999971
210
0
220
-0
230
1
0
CIRCLE
5
108
100
AcDbEntity
8
0
100
AcDbCircle
10
-15.201213300505572
20
-21.869687973183716
30
0
40
1.4999999999999971
210
0
220
-0
230
1
0
LWPOLYLINE
5
109
100
AcDbEntity
8
0
100
AcDbPolyline
90
4
70
1
43
0.0
10
-2.7311014235237536
20
-30.471699194574953
10
-2.7397054413008206
20
10.056628885835739
10
2.739483172633832
20
10.056628885835739
10
2.7308791548567828
20
-30.471699194574953
0
LINE
5
110
100
AcDbEntity
8
0
100
AcDbLine
10
-39.228184868850391
20
-43.21046888618865
30
0
11
-6.9862853450215257
21
-58.245113547614054
31
0
0
LINE
5
111
100
AcDbEntity
8
0
100
AcDbLine
10
-6.2011113371473989
20
-58.611246200470021
30
0
11
-6.9862853450215257
21
-58.245113547614054
31
0
0
LINE
5
112
100
AcDbEntity
8
0
100
AcDbLine
10
-39.228184868850391
20
-43.21046888618865
30
0
11
-45.629682916655256
21
-43.21046888618865
31
0
0
LINE
5
113
100
AcDbEntity
8
0
100
AcDbLine
10
-46.01120731872772
20
-43.21046888618865
30
0
11
-53.305032089723667
21
-40.555733775592621
31
0
0
LINE
5
114
100
AcDbEntity
8
0
100
AcDbLine
10
-53.305032089723667
20
-7.6177495076693269
30
0
11
-53.305032089723667
21
-40.555733775592621
31
0
0
LINE
5
115
100
AcDbEntity
8
0
100
AcDbLine
10
-53.305032089723667
20
-7.6177495076693269
30
0
11
-53.305032089723653
21
37.602312026816293
31
0
0
LINE
5
116
100
AcDbEntity
8
0
100
AcDbLine
10
-53.305032089723653
20
37.602312026816293
30
0
11
-94.430032089723682
21
37.602312026816286
31
0
0
LINE
5
117
100
AcDbEntity
8
0
100
AcDbLine
10
-94.430032089723682
20
41.602312026816278
30
0
11
-94.430032089723682
21
37.602312026816286
31
0
0
LINE
5
118
100
AcDbEntity
8
0
100
AcDbLine
10
-94.430032089723682
20
41.602312026816278
30
0
11
-113.48003208972369
21
41.602312026816264
31
0
0
LINE
5
119
100
AcDbEntity
8
0
100
AcDbLine
10
-113.48003208972369
20
41.602312026816264
30
0
11
-113.48003208972369
21
37.602312026816271
31
0
0
LINE
5
120
100
AcDbEntity
8
0
100
AcDbLine
10
-115.98003208972369
20
37.602312026816278
30
0
11
-113.48003208972369
21
37.602312026816271
31
0
0
LINE
5
121
100
AcDbEntity
8
0
100
AcDbLine
10
-132.5300320897237
20
37.602312026816278
30
0
11
-115.98003208972369
21
37.602312026816278
31
0
0
LINE
5
122
100
AcDbEntity
8
0
100
AcDbLine
10
-132.5300320897237
20
37.602312026816278
30
0
11
-132.5300320897237
21
30.602312026816278
31
0
0
LINE
5
123
100
AcDbEntity
8
0
100
AcDbLine
10
39.227962600183425
20
-43.210468886188629
30
0
11
6.9860630763545695
21
-58.245113547614054
31
0
0
LINE
5
124
100
AcDbEntity
8
0
100
AcDbLine
10
6.200889068480441
20
-58.611246200470021
30
0
11
6.9860630763545695
21
-58.245113547614054
31
0
0
LINE
5
125
100
AcDbEntity
8
0
100
AcDbLine
10
39.227962600183425
20
-43.210468886188629
30
0
11
45.629460647988282
21
-43.210468886188629
31
0
0
LINE
5
126
100
AcDbEntity
8
0
100
AcDbLine
10
46.010985050060746
20
-43.210468886188629
30
0
11
53.304809821056693
21
-40.555733775592593
31
0
0
LINE
5
127
100
AcDbEntity
8
0
100
AcDbLine
10
45.629460647988282
20
-43.210468886188629
30
0
11
46.010985050060746
21
-43.210468886188629
31
0
0
LINE
5
128
100
AcDbEntity
8
0
100
AcDbLine
10
-45.629682916655256
20
-43.21046888618865
30
0
11
-46.01120731872772
21
-43.21046888618865
31
0
0
LINE
5
129
100
AcDbEntity
8
0
100
AcDbLine
10
53.304809821056679
20
-7.6177495076693003
30
0
11
53.304809821056693
21
-40.555733775592593
31
0
0
LINE
5
130
100
AcDbEntity
8
0
100
AcDbLine
10
53.304809821056679
20
-7.6177495076693003
30
0
11
53.304809821056637
21
37.602312026816307
31
0
0
LINE
5
131
100
AcDbEntity
8
0
100
AcDbLine
10
53.304809821056637
20
37.602312026816307
30
0
11
94.429809821056665
21
37.602312026816321
31
0
0
LINE
5
132
100
AcDbEntity
8
0
100
AcDbLine
10
94.429809821056665
20
41.602312026816321
30
0
11
94.429809821056665
21
37.602312026816321
31
0
0
LINE
5
133
100
AcDbEntity
8
0
100
AcDbLine
10
94.429809821056665
20
41.602312026816321
30
0
11
113.47980982105668
21
41.602312026816321
31
0
0
LINE
5
134
100
AcDbEntity
8
0
100
AcDbLine
10
113.47980982105668
20
37.602312026816321
30
0
11
113.47980982105668
21
41.602312026816321
31
0
0
LINE
5
135
100
AcDbEntity
8
0
100
AcDbLine
10
113.47980982105668
20
37.602312026816321
30
0
11
132.52980982105669
21
37.602312026816335
31
0
0
LINE
5
136
100
AcDbEntity
8
0
100
AcDbLine
10
132.52980982105669
20
37.602312026816335
30
0
11
132.52980982105669
21
30.602312026816335
31
0
0
LINE
5
137
100
AcDbEntity
8
0
100
AcDbLine
10
132.52980982105669
20
30.602312026816335
30
0
11
173.0798098210567
21
30.602312026816275
31
0
0
LINE
5
138
100
AcDbEntity
8
0
100
AcDbLine
10
-132.5300320897237
20
30.602312026816278
30
0
11
-173.08003208972366
21
30.602312026816278
31
0
0
ENDSEC
0
SECTION
2
OBJECTS
0
DICTIONARY
5
C
100
AcDbDictionary
3
ACAD_GROUP
350
D
3
ACAD_MLINESTYLE
350
17
0
DICTIONARY
5
D
100
AcDbDictionary
0
DICTIONARY
5
1A
330
C
100
AcDbDictionary
0
DICTIONARY
5
17
100
AcDbDictionary
0
ENDSEC
0
EOF
