0
SECTION
2
HEADER
9
$INSUNITS
70
4
9
$ACADVER
1
AC1014
9
$HANDSEED
5
FFFF
0
ENDSEC
0
SECTION
2
TABLES
0
TABLE
2
VPORT
5
8
100
AcDbSymbolTable
0
ENDTAB
0
TABLE
2
LTYPE
5
5
100
AcDbSymbolTable
0
LTYPE
5
14
100
AcDbSymbolTableRecord
100
AcDbLinetypeTableRecord
2
BYBLOCK
70
0
0
LTYPE
5
15
100
AcDbSymbolTableRecord
100
AcDbLinetypeTableRecord
2
BYLAYER
70
0
0
ENDTAB
0
TABLE
2
LAYER
5
2
100
AcDbSymbolTable
70
2
0
LAYER
5
50
100
AcDbSymbolTableRecord
100
AcDbLayerTableRecord
2
0
70
0
6
CONTINUOUS
0
ENDTAB
0
TABLE
2
STYLE
5
3
100
AcDbSymbolTable
70
1
0
STYLE
5
11
100
AcDbSymbolTableRecord
100
AcDbTextStyleTableRecord
2
STANDARD
70
0
0
ENDTAB
0
TABLE
2
VIEW
5
6
100
AcDbSymbolTable
70
0
0
ENDTAB
0
TABLE
2
UCS
5
7
100
AcDbSymbolTable
70
0
0
ENDTAB
0
TABLE
2
APPID
5
9
100
AcDbSymbolTable
70
2
0
APPID
5
12
100
AcDbSymbolTableRecord
100
AcDbRegAppTableRecord
2
ACAD
70
0
0
ENDTAB
0
TABLE
2
DIMSTYLE
5
A
100
AcDbSymbolTable
70
1
0
ENDTAB
0
TABLE
2
BLOCK_RECORD
5
1
100
AcDbSymbolTable
70
1
0
BLOCK_RECORD
5
1F
100
AcDbSymbolTableRecord
100
AcDbBlockTableRecord
2
*MODEL_SPACE
0
BLOCK_RECORD
5
1B
100
AcDbSymbolTableRecord
100
AcDbBlockTableRecord
2
*PAPER_SPACE
0
ENDTAB
0
ENDSEC
0
SECTION
2
BLOCKS
0
BLOCK
5
20
100
AcDbEntity
100
AcDbBlockBegin
2
*MODEL_SPACE
0
ENDBLK
5
21
100
AcDbEntity
100
AcDbBlockEnd
0
BLOCK
5
1C
100
AcDbEntity
100
AcDbBlockBegin
2
*PAPER_SPACE
0
ENDBLK
5
1D
100
AcDbEntity
100
AcDbBlockEnd
0
ENDSEC
0
SECTION
2
ENTITIES
0
LWPOLYLINE
5
100
100
AcDbEntity
8
0
100
AcDbPolyline
90
4
70
1
43
0.0
10
-45.100000000000009
20
-18
10
-45.100000000000009
20
-4.0000000000000018
10
-31.100000000000001
20
-4
10
-31.100000000000001
20
-18
0
LWPOLYLINE
5
101
100
AcDbEntity
8
0
100
AcDbPolyline
90
4
70
1
43
0.0
10
-50.150000000000013
20
-23.050000000000001
10
-50.150000000000013
20
-37.049999999999997
10
-64.150000000000006
20
-37.049999999999997
10
-64.150000000000006
20
-23.050000000000001
0
LWPOLYLINE
5
102
100
AcDbEntity
8
0
100
AcDbPolyline
90
4
70
1
43
0.0
10
-26.050000000000004
20
-11
10
-26.050000000000004
20
3.0000000000000004
10
-12.049999999999997
20
3.0000000000000004
10
-12.049999999999997
20
-11
0
LWPOLYLINE
5
103
100
AcDbEntity
8
0
100
AcDbPolyline
90
4
70
1
43
0.0
10
-45.100000000000009
20
-37.049999999999997
10
-45.100000000000009
20
-23.050000000000001
10
-31.100000000000001
20
-23.050000000000001
10
-31.100000000000001
20
-37.049999999999997
0
LWPOLYLINE
5
104
100
AcDbEntity
8
0
100
AcDbPolyline
90
4
70
1
43
0.0
10
-50.150000000000013
20
-18
10
-64.150000000000006
20
-18
10
-64.150000000000006
20
-4
10
-50.150000000000013
20
-4
0
LWPOLYLINE
5
105
100
AcDbEntity
8
0
100
AcDbPolyline
90
4
70
1
43
0.0
10
-64.150000000000006
20
-61.15000000000002
10
-50.150000000000013
20
-61.15000000000002
10
-50.150000000000013
20
-75.150000000000006
10
-64.150000000000006
20
-75.150000000000006
0
LWPOLYLINE
5
106
100
AcDbEntity
8
0
100
AcDbPolyline
90
4
70
1
43
0.0
10
-7.0000000000000018
20
-64.150000000000006
10
-7.0000000000000018
20
-50.150000000000013
10
7.0000000000000018
20
-50.150000000000013
10
7.0000000000000018
20
-64.150000000000006
0
LWPOLYLINE
5
107
100
AcDbEntity
8
0
100
AcDbPolyline
90
4
70
1
43
0.0
10
26.050000000000004
20
3.0000000000000155
10
26.050000000000004
20
-10.999999999999988
10
12.050000000000001
20
-10.999999999999988
10
12.050000000000001
20
3.0000000000000155
0
LWPOLYLINE
5
108
100
AcDbEntity
8
0
100
AcDbPolyline
90
4
70
1
43
0.0
10
-45.100000000000009
20
-42.100000000000009
10
-31.100000000000001
20
-42.100000000000009
10
-31.100000000000001
20
-56.100000000000001
10
-45.100000000000009
20
-56.100000000000001
0
LWPOLYLINE
5
109
100
AcDbEntity
8
0
100
AcDbPolyline
90
4
70
1
43
0.0
10
-7.0000000000000018
20
7.0000000000000018
10
7.0000000000000018
20
7.0000000000000018
10
7.0000000000000018
20
-7.0000000000000018
10
-7.0000000000000018
20
-7.0000000000000018
0
LINE
5
110
100
AcDbEntity
8
0
100
AcDbLine
10
-8.9957490226473862
20
-111.25
30
0
11
-14.123763533877117
21
-106.12198548877053
31
0
0
LWPOLYLINE
5
111
100
AcDbEntity
8
0
100
AcDbPolyline
90
4
70
1
43
0.0
10
-7.0000000000000018
20
-26.050000000000004
10
-7.0000000000000018
20
-12.050000000000001
10
7.0000000000000018
20
-12.050000000000001
10
7.0000000000000018
20
-26.050000000000004
0
LWPOLYLINE
5
112
100
AcDbEntity
8
0
100
AcDbPolyline
90
4
70
1
43
0.0
10
-31.100000000000001
20
-61.15000000000002
10
-31.100000000000001
20
-75.150000000000006
10
-45.100000000000009
20
-75.150000000000006
10
-45.100000000000009
20
-61.15000000000002
0
LWPOLYLINE
5
113
100
AcDbEntity
8
0
100
AcDbPolyline
90
4
70
1
43
0.0
10
70.749560847744576
20
-111.04138623475585
10
76.666216512114346
20
-98.353077216242809
10
89.354525530627441
20
-104.26973288061257
10
83.437869866257643
20
-116.95804189912565
0
LINE
5
114
100
AcDbEntity
8
0
100
AcDbLine
10
87.640229334449714
20
-129.2418671854912
30
0
11
101.20598979307238
21
-100.15000000000001
31
0
0
LWPOLYLINE
5
115
100
AcDbEntity
8
0
100
AcDbPolyline
90
4
70
1
43
0.0
10
-12.049999999999997
20
-35.100000000000009
10
-12.049999999999997
20
-49.100000000000001
10
-26.050000000000004
20
-49.100000000000001
10
-26.050000000000004
20
-35.100000000000009
0
LINE
5
116
100
AcDbEntity
8
0
100
AcDbLine
10
-7.0000000000000018
20
-7.0000000000000018
30
0
11
-7.0000000000000018
21
7.0000000000000018
31
0
0
LWPOLYLINE
5
117
100
AcDbEntity
8
0
100
AcDbPolyline
90
4
70
1
43
0.0
10
-7.0000000000000018
20
-45.100000000000009
10
-7.0000000000000018
20
-31.100000000000001
10
7.0000000000000018
20
-31.100000000000001
10
7.0000000000000018
20
-45.100000000000009
0
LINE
5
118
100
AcDbEntity
8
0
100
AcDbLine
10
12.050000000000001
20
3.0000000000000155
30
0
11
12.050000000000001
21
-10.999999999999988
31
0
0
LWPOLYLINE
5
119
100
AcDbEntity
8
0
100
AcDbPolyline
90
4
70
1
43
0.0
10
-64.150000000000006
20
-56.100000000000001
10
-64.150000000000006
20
-42.100000000000009
10
-50.150000000000013
20
-42.100000000000009
10
-50.150000000000013
20
-56.100000000000001
0
CIRCLE
5
120
100
AcDbEntity
8
0
100
AcDbCircle
10
59.72881878921811
20
-55.472000000000001
30
0
40
1.4999999999999971
210
0
220
0
230
1
0
CIRCLE
5
121
100
AcDbEntity
8
0
100
AcDbCircle
10
74.728818789218096
20
-12.472000000000005
30
0
40
18.5
210
0
220
0
230
1
0
LWPOLYLINE
5
122
100
AcDbEntity
8
0
100
AcDbPolyline
90
4
70
1
43
0.0
10
-12.049999999999997
20
-16.050000000000001
10
-12.049999999999997
20
-30.050000000000008
10
-26.050000000000004
20
-30.050000000000008
10
-26.050000000000004
20
-16.050000000000001
0
CIRCLE
5
123
100
AcDbEntity
8
0
100
AcDbCircle
10
89.728818789218096
20
-55.472000000000001
30
0
40
1.4999999999999971
210
0
220
0
230
1
0
LINE
5
124
100
AcDbEntity
8
0
100
AcDbLine
10
30.000000447034839
20
-111.25
30
0
11
47.345867252912797
21
-116.15462895530305
31
0
0
LWPOLYLINE
5
125
100
AcDbEntity
8
0
100
AcDbPolyline
90
4
70
1
43
0.0
10
-66.403635186465266
20
-80.150000000000006
10
-22.403635186465259
20
-80.150000000000006
10
-22.403635186465259
20
-100.15000000000001
10
-66.403635186465266
20
-100.15000000000001
0
LWPOLYLINE
5
126
100
AcDbEntity
8
0
100
AcDbPolyline
90
2
70
1
43
0.0
10
12.050000000000001
20
-16.049999999999983
10
12.050000000000001
20
-30.04999999999999
0
LWPOLYLINE
5
127
100
AcDbEntity
8
0
100
AcDbPolyline
90
4
70
1
43
0.0
10
-5.0499999999999954
20
-73.199999999999989
10
-5.0499999999999954
20
-87.200000000000017
10
-19.050000000000004
20
-87.200000000000017
10
-19.050000000000004
20
-73.199999999999989
0
LWPOLYLINE
5
128
100
AcDbEntity
8
0
100
AcDbPolyline
90
4
70
1
43
0.0
10
26.050000000000004
20
-68.149999999999991
10
12.050000000000001
20
-68.149999999999991
10
12.050000000000001
20
-54.149999999999991
10
26.050000000000004
20
-54.149999999999991
0
LWPOLYLINE
5
129
100
AcDbEntity
8
0
100
AcDbPolyline
90
4
70
1
43
0.0
10
12.550000000000006
20
-106.25
10
12.550000000000006
20
-92.25
10
26.550000000000011
20
-92.25
10
26.550000000000011
20
-106.25
0
LWPOLYLINE
5
130
100
AcDbEntity
8
0
100
AcDbPolyline
90
4
70
1
43
0.0
10
31.100000000000001
20
3.0000000000000155
10
45.100000000000009
20
3.0000000000000155
10
45.100000000000009
20
-10.999999999999988
10
31.100000000000001
20
-10.999999999999988
0
LWPOLYLINE
5
131
100
AcDbEntity
8
0
100
AcDbPolyline
90
4
70
1
43
0.0
10
70.59582667707167
20
-100.27458234144147
10
57.907517658558582
20
-94.357926677071646
10
63.824173322928381
20
-81.669617658558593
10
76.512482341441469
20
-87.586273322928378
0
LWPOLYLINE
5
132
100
AcDbEntity
8
0
100
AcDbPolyline
90
4
70
1
43
0.0
10
19.050000000000004
20
-87.200000000000003
10
19.050000000000004
20
-73.200000000000003
10
33.050000000000004
20
-73.200000000000003
10
33.050000000000004
20
-87.200000000000003
0
LWPOLYLINE
5
133
100
AcDbEntity
8
0
100
AcDbPolyline
90
4
70
1
43
0.0
10
-26.050000000000004
20
-54.15000000000002
10
-12.049999999999997
20
-54.15000000000002
10
-12.049999999999997
20
-68.150000000000006
10
-26.050000000000004
20
-68.150000000000006
0
LWPOLYLINE
5
134
100
AcDbEntity
8
0
100
AcDbPolyline
90
4
70
1
43
0.0
10
45.100000000000009
20
-16.049999999999983
10
45.100000000000009
20
-30.04999999999999
10
31.100000000000001
20
-30.04999999999999
10
31.100000000000001
20
-16.049999999999983
0
LINE
5
135
100
AcDbEntity
8
0
100
AcDbLine
10
26.050000000000004
20
-16.049999999999983
30
0
11
26.050000000000004
21
-30.04999999999999
31
0
0
LWPOLYLINE
5
136
100
AcDbEntity
8
0
100
AcDbPolyline
90
4
70
1
43
0.0
10
31.100000000000001
20
-54.149999999999991
10
45.100000000000009
20
-54.149999999999991
10
45.100000000000009
20
-68.149999999999991
10
31.100000000000001
20
-68.149999999999991
0
LWPOLYLINE
5
137
100
AcDbEntity
8
0
100
AcDbPolyline
90
4
70
1
43
0.0
10
12.050000000000001
20
-49.100000000000001
10
12.050000000000001
20
-35.099999999999987
10
26.050000000000004
20
-35.099999999999987
10
26.050000000000004
20
-49.100000000000001
0
LWPOLYLINE
5
138
100
AcDbEntity
8
0
100
AcDbPolyline
90
4
70
1
43
0.0
10
49.930505618427013
20
-96.808737083749804
10
45.142223611867685
20
-109.96443377475248
10
31.986526920864971
20
-105.17615176819317
10
36.77480892742431
20
-92.020455077190476
0
LINE
5
139
100
AcDbEntity
8
0
100
AcDbLine
10
12.050000000000001
20
-68.149999999999991
30
0
11
12.050000000000001
21
-54.149999999999991
31
0
0
LWPOLYLINE
5
140
100
AcDbEntity
8
0
100
AcDbPolyline
90
4
70
1
43
0.0
10
45.100000000000009
20
-49.100000000000001
10
31.100000000000001
20
-49.100000000000001
10
31.100000000000001
20
-35.099999999999987
10
45.100000000000009
20
-35.099999999999987
0
LWPOLYLINE
5
141
100
AcDbEntity
8
0
100
AcDbPolyline
90
4
70
1
43
0.0
10
14.000000000000005
20
-87.200000000000003
10
0
20
-87.200000000000003
10
0
20
-73.200000000000003
10
14.000000000000005
20
-73.200000000000003
0
LINE
5
142
100
AcDbEntity
8
0
100
AcDbLine
10
31.100000000000001
20
-16.049999999999983
30
0
11
31.100000000000001
21
-30.04999999999999
31
0
0
LWPOLYLINE
5
143
100
AcDbEntity
8
0
100
AcDbPolyline
90
4
70
1
43
0.0
10
38.502010651218967
20
-87.275007342221684
10
43.29029265777833
20
-74.119310651218953
10
56.44598934878104
20
-78.907592657778309
10
51.657707342221705
20
-92.063289348781012
0
LWPOLYLINE
5
144
100
AcDbEntity
8
0
100
AcDbPolyline
90
4
70
1
43
0.0
10
49.856639772399205
20
-111.62309002012172
10
55.77329543676899
20
-98.934781001608641
10
68.461604455282071
20
-104.8514366659785
10
62.544948790912294
20
-117.53974568449154
0
LINE
5
145
100
AcDbEntity
8
0
100
AcDbLine
10
31.100000000000001
20
-10.999999999999988
30
0
11
31.100000000000001
21
3.0000000000000155
31
0
0
LINE
5
146
100
AcDbEntity
8
0
100
AcDbLine
10
26.050000000000004
20
-30.04999999999999
30
0
11
12.050000000000001
21
-30.04999999999999
31
0
0
LINE
5
147
100
AcDbEntity
8
0
100
AcDbLine
10
12.050000000000001
20
-35.099999999999987
30
0
11
12.050000000000001
21
-49.100000000000001
31
0
0
LINE
5
148
100
AcDbEntity
8
0
100
AcDbLine
10
31.100000000000001
20
-54.149999999999991
30
0
11
31.100000000000001
21
-68.149999999999991
31
0
0
LINE
5
149
100
AcDbEntity
8
0
100
AcDbLine
10
31.100000000000001
20
-49.100000000000001
30
0
11
31.100000000000001
21
-35.099999999999987
31
0
0
LWPOLYLINE
5
150
100
AcDbEntity
8
0
100
AcDbPolyline
90
4
70
1
43
0.0
10
7.5000000000000044
20
-92.25
10
7.5000000000000044
20
-106.25
10
-6.4999999999999991
20
-106.25
10
-6.4999999999999991
20
-92.25
0
LINE
5
151
100
AcDbEntity
8
0
100
AcDbLine
10
87.640229334449714
20
-129.2418671854912
30
0
11
84.014998186303146
21
-127.55139413852842
31
0
0
LINE
5
152
100
AcDbEntity
8
0
100
AcDbLine
10
-69.403635186465266
20
-12.560992617725395
30
0
11
-73.403635186465266
21
-12.560992617725395
31
0
0
LINE
5
153
100
AcDbEntity
8
0
100
AcDbLine
10
-25.763699360171195
20
-110.12198548877052
30
0
11
-57.763699360171188
21
-110.12198548877052
31
0
0
LINE
5
154
100
AcDbEntity
8
0
100
AcDbLine
10
-57.763699360171188
20
-106.12198548877053
30
0
11
-69.403635186465266
21
-106.12198548877053
31
0
0
LINE
5
155
100
AcDbEntity
8
0
100
AcDbLine
10
101.20598979307238
20
-100.15000000000001
30
0
11
97.580758644925822
21
-98.459526953037226
31
0
0
LINE
5
156
100
AcDbEntity
8
0
100
AcDbLine
10
12.050000000000001
20
-16.049999999999983
30
0
11
26.050000000000004
21
-16.049999999999983
31
0
0
LINE
5
157
100
AcDbEntity
8
0
100
AcDbLine
10
99.931377592555535
20
-93.418608352364345
30
0
11
97.580758644925822
21
-98.459526953037226
31
0
0
LINE
5
158
100
AcDbEntity
8
0
100
AcDbLine
10
-73.403635186465266
20
-76.560992617725404
30
0
11
-69.403635186465266
21
-76.560992617725404
31
0
0
LINE
5
159
100
AcDbEntity
8
0
100
AcDbLine
10
-14.123763533877117
20
-106.12198548877053
30
0
11
-25.763699360171195
21
-106.12198548877053
31
0
0
LINE
5
160
100
AcDbEntity
8
0
100
AcDbLine
10
-73.403635186465266
20
-12.560992617725395
30
0
11
-73.403635186465266
21
-76.560992617725404
31
0
0
LINE
5
161
100
AcDbEntity
8
0
100
AcDbLine
10
84.014998186303146
20
-127.55139413852842
30
0
11
81.830878549657115
21
-132.23525381453658
31
0
0
LINE
5
162
100
AcDbEntity
8
0
100
AcDbLine
10
-69.403635186465266
20
18.500000253319726
30
0
11
-69.403635186465266
21
-12.560992617725395
31
0
0
LINE
5
163
100
AcDbEntity
8
0
100
AcDbLine
10
-69.403635186465266
20
-76.560992617725404
30
0
11
-69.403635186465266
21
-106.12198548877053
31
0
0
LINE
5
164
100
AcDbEntity
8
0
100
AcDbLine
10
-25.763699360171195
20
-106.12198548877053
30
0
11
-25.763699360171195
21
-110.12198548877052
31
0
0
LINE
5
165
100
AcDbEntity
8
0
100
AcDbLine
10
-57.763699360171188
20
-110.12198548877052
30
0
11
-57.763699360171188
21
-106.12198548877053
31
0
0
LINE
5
166
100
AcDbEntity
8
0
100
AcDbLine
10
99.931364813534728
20
-76.56099261772539
30
0
11
103.93136481353471
21
-76.56099261772539
31
0
0
LINE
5
167
100
AcDbEntity
8
0
100
AcDbLine
10
103.93136481353473
20
-12.560992617725404
30
0
11
99.931364813534742
21
-12.560992617725404
31
0
0
LINE
5
168
100
AcDbEntity
8
0
100
AcDbLine
10
99.931377592555535
20
-93.418608352364345
30
0
11
99.931377592555535
21
-76.56099261772539
31
0
0
LINE
5
169
100
AcDbEntity
8
0
100
AcDbLine
10
99.931377592555535
20
-12.560992617725404
30
0
11
99.931377592555535
21
18.500000253319726
31
0
0
LINE
5
170
100
AcDbEntity
8
0
100
AcDbLine
10
103.93136481353471
20
-76.56099261772539
30
0
11
103.93136481353473
21
-71.998228281843694
31
0
0
LINE
5
171
100
AcDbEntity
8
0
100
AcDbLine
10
103.93136481353473
20
-14.986089194567205
30
0
11
103.93136481353473
21
-12.560992617725404
31
0
0
LINE
5
172
100
AcDbEntity
8
0
100
AcDbLine
10
103.93136481353473
20
-21.986089194567207
30
0
11
103.93136481353473
21
-64.998228281843708
31
0
0
LINE
5
173
100
AcDbEntity
8
0
100
AcDbLine
10
103.93136481353473
20
-64.998228281843708
30
0
11
107.93136481353473
21
-64.998228281843708
31
0
0
LINE
5
174
100
AcDbEntity
8
0
100
AcDbLine
10
103.93136481353473
20
-71.998228281843694
30
0
11
107.93136481353473
21
-71.998228281843723
31
0
0
LINE
5
175
100
AcDbEntity
8
0
100
AcDbLine
10
103.93136481353473
20
-14.986089194567205
30
0
11
107.93136481353473
21
-14.986089194567205
31
0
0
LINE
5
176
100
AcDbEntity
8
0
100
AcDbLine
10
103.93136481353473
20
-21.986089194567207
30
0
11
107.93136481353473
21
-21.986089194567207
31
0
0
LINE
5
177
100
AcDbEntity
8
0
100
AcDbLine
10
107.93136481353473
20
-21.986089194567207
30
0
11
107.93136481353473
21
-40.000000596046448
31
0
0
LINE
5
178
100
AcDbEntity
8
0
100
AcDbLine
10
26.502125712193731
20
-116.0000017285347
30
0
11
-5.4978742878062725
21
-116.0000017285347
31
0
0
LINE
5
179
100
AcDbEntity
8
0
100
AcDbLine
10
-5.4978742878062725
20
-116.0000017285347
30
0
11
-5.4978742878062725
21
-111.25
31
0
0
LINE
5
180
100
AcDbEntity
8
0
100
AcDbLine
10
26.502125712193731
20
-111.25
30
0
11
26.502125712193731
21
-116.0000017285347
31
0
0
LINE
5
181
100
AcDbEntity
8
0
100
AcDbLine
10
77.398824637799166
20
-134.58206487569782
30
0
11
48.396975020465106
21
-121.05828029847532
31
0
0
LINE
5
182
100
AcDbEntity
8
0
100
AcDbLine
10
48.396975020465106
20
-121.05828029847532
30
0
11
50.087448092617919
21
-117.43304909630857
31
0
0
LINE
5
183
100
AcDbEntity
8
0
100
AcDbLine
10
79.089297709951978
20
-130.95683367353107
30
0
11
77.398824637799166
21
-134.58206487569782
31
0
0
LINE
5
184
100
AcDbEntity
8
0
100
AcDbLine
10
99.931377592555535
20
18.500000253319726
30
0
11
87.931377592555549
21
18.500000253319726
31
0
0
LINE
5
185
100
AcDbEntity
8
0
100
AcDbLine
10
87.931377592555549
20
18.500000253319726
30
0
11
87.931377592555549
21
24.500000365078449
31
0
0
LINE
5
186
100
AcDbEntity
8
0
100
AcDbLine
10
87.931377592555549
20
24.500000365078449
30
0
11
23.931377592555538
21
24.500000365078449
31
0
0
LINE
5
187
100
AcDbEntity
8
0
100
AcDbLine
10
23.931377592555538
20
24.500000365078449
30
0
11
23.931377592555535
21
18.500000253319694
31
0
0
LINE
5
188
100
AcDbEntity
8
0
100
AcDbLine
10
-69.403635186465266
20
18.500000253319726
30
0
11
-57.403635186465266
21
18.500000253319726
31
0
0
LINE
5
189
100
AcDbEntity
8
0
100
AcDbLine
10
-57.403635186465266
20
18.500000253319726
30
0
11
-57.403635186465266
21
24.500000253319726
31
0
0
LINE
5
190
100
AcDbEntity
8
0
100
AcDbLine
10
-57.403635186465266
20
24.500000253319726
30
0
11
6.5963648135347341
21
24.500000253319726
31
0
0
LINE
5
191
100
AcDbEntity
8
0
100
AcDbLine
10
6.5963648135347341
20
24.500000253319726
30
0
11
6.5963648135347341
21
18.500000253319726
31
0
0
LINE
5
192
100
AcDbEntity
8
0
100
AcDbLine
10
6.5963648135347341
20
18.500000253319726
30
0
11
23.931377592555535
21
18.500000253319694
31
0
0
CIRCLE
5
193
100
AcDbEntity
8
0
100
AcDbCircle
10
-63.403635186465273
20
-83.150000000000006
30
0
40
0.70000000000000329
210
0
220
0
230
1
0
CIRCLE
5
194
100
AcDbEntity
8
0
100
AcDbCircle
10
-25.403635186465259
20
-83.150000000000006
30
0
40
0.70000000000000329
210
0
220
0
230
1
0
CIRCLE
5
195
100
AcDbEntity
8
0
100
AcDbCircle
10
-63.403635186465273
20
-97.150000000000006
30
0
40
0.70000000000000329
210
0
220
0
230
1
0
CIRCLE
5
196
100
AcDbEntity
8
0
100
AcDbCircle
10
-25.403635186465259
20
-97.150000000000006
30
0
40
0.70000000000000329
210
0
220
0
230
1
0
LINE
5
197
100
AcDbEntity
8
0
100
AcDbLine
10
94.423109563761045
20
-114.69593359274562
30
0
11
91.704186202651115
21
-113.42807880752353
31
0
0
LINE
5
198
100
AcDbEntity
8
0
100
AcDbLine
10
81.830878549657115
20
-132.23525381453658
30
0
11
79.089297709951978
21
-130.95683367353107
31
0
0
LINE
5
199
100
AcDbEntity
8
0
100
AcDbLine
10
50.087448092617919
20
-117.43304909630857
30
0
11
47.345867252912797
21
-116.15462895530305
31
0
0
LINE
5
200
100
AcDbEntity
8
0
100
AcDbLine
10
62.291274043743613
20
-127.82017258708657
30
0
11
67.240218162997166
21
-117.20712767413227
31
0
0
LINE
5
201
100
AcDbEntity
8
0
100
AcDbLine
10
-8.9957490226473862
20
-111.25
30
0
11
-5.4978742878062725
21
-111.25
31
0
0
LINE
5
202
100
AcDbEntity
8
0
100
AcDbLine
10
26.502125712193731
20
-111.25
30
0
11
30.000000447034839
21
-111.25
31
0
0
LINE
5
203
100
AcDbEntity
8
0
100
AcDbLine
10
10.502125712193727
20
-116.0000017285347
30
0
11
10.502125712193727
21
-91.000001356005669
31
0
0
LINE
5
204
100
AcDbEntity
8
0
100
AcDbLine
10
74.728818789218096
20
-12.472000000000005
30
0
11
74.728818789218096
21
6.0279999999999951
31
0
0
LINE
5
205
100
AcDbEntity
8
0
100
AcDbLine
10
74.728818789218096
20
-12.472000000000005
30
0
11
74.728818789218096
21
-30.972000275671483
31
0
0
LINE
5
206
100
AcDbEntity
8
0
100
AcDbLine
10
74.728818789218096
20
-12.472000000000005
30
0
11
56.228818789218096
21
-12.472000000000005
31
0
0
LINE
5
207
100
AcDbEntity
8
0
100
AcDbLine
10
74.728818789218096
20
-12.472000000000005
30
0
11
93.22881878921811
21
-12.472000000000005
31
0
0
LINE
5
208
100
AcDbEntity
8
0
100
AcDbLine
10
93.22881878921811
20
-12.472000000000005
30
0
11
94.423109563761045
21
-114.69593359274562
31
0
0
LINE
5
209
100
AcDbEntity
8
0
100
AcDbLine
10
55.931377592555542
20
24.500000365078449
30
0
11
55.931377592555542
21
10
31
0
0
LWPOLYLINE
5
210
100
AcDbEntity
8
0
100
AcDbPolyline
90
8
70
1
43
0.0
10
62.623053180778214
20
-59.555988314441954
10
57.68192234989813
20
-61.653373915746677
42
0.70288191016091583
10
91.564184011657602
20
-61.653373915747487
10
86.623053180777617
20
-59.555988314442274
42
-0.99999999999999989
10
86.623053180777546
20
-51.555988314442587
10
91.564184011657289
20
-49.458602713136997
42
0.7028819101608802
10
57.681922349898244
20
-49.458602713136308
10
62.623053180778143
20
-51.555988314442267
42
-0.99999999999999989
0
CIRCLE
5
211
100
AcDbEntity
8
0
100
AcDbCircle
10
74.623053180777873
20
-55.555988314442253
30
-1.7347234759768071e-17
40
19.999999999999496
210
0
220
0
230
1
0
CIRCLE
5
212
100
AcDbEntity
8
0
100
AcDbCircle
10
89.728818789218096
20
-55.472000000000001
30
-1.7347234759768071e-17
40
1.7999999999999545
210
0
220
0
230
1
0
CIRCLE
5
213
100
AcDbEntity
8
0
100
AcDbCircle
10
59.72882078921883
20
-55.472003000000001
30
-1.7347234759768071e-17
40
1.799999999999957
210
0
220
0
230
1
0
LINE
5
214
100
AcDbEntity
8
0
100
AcDbLine
10
-73.403635186465266
20
-44.560992617725397
30
0
11
-64.150000000000006
21
-44.505219088551726
31
0
0
LINE
5
215
100
AcDbEntity
8
0
100
AcDbLine
10
56.228818789218096
20
-43.77967162246491
30
0
11
103.93136481353473
21
-43.492158738205461
31
0
0
LINE
5
216
100
AcDbEntity
8
0
100
AcDbLine
10
-25.747237368660493
20
-100.15000000000001
30
0
11
-25.763699360171195
21
-106.12198548877053
31
0
0
LINE
5
217
100
AcDbEntity
8
0
100
AcDbLine
10
56.228818789218096
20
-12.472000000000005
30
0
11
56.228818789218096
21
-79.504263866347827
31
0
0
LINE
5
218
100
AcDbEntity
8
0
100
AcDbLine
10
38.100000000000009
20
-35.099999999999987
30
0
11
38.100000000000009
21
-49.100000000000001
31
0
0
LINE
5
219
100
AcDbEntity
8
0
100
AcDbLine
10
31.100000000000001
20
-42.099999999999994
30
0
11
45.100000000000009
21
-42.099999999999994
31
0
0
LWPOLYLINE
5
220
100
AcDbEntity
8
0
100
AcDbPolyline
90
4
70
1
43
0.0
10
47.625
20
-51.625
10
28.57500000000001
20
-51.625
10
28.57500000000001
20
-32.574999999999989
10
47.625
20
-32.574999999999989
0
LINE
5
221
100
AcDbEntity
8
0
100
AcDbLine
10
28.57500000000001
20
-51.625
30
0
11
47.625
21
-32.574999999999989
31
0
0
LINE
5
222
100
AcDbEntity
8
0
100
AcDbLine
10
47.625
20
-42.099999999999994
30
0
11
49.625
21
-42.099999999999994
31
0
0
LINE
5
223
100
AcDbEntity
8
0
100
AcDbLine
10
49.625
20
-42.099999999999994
30
0
11
49.625
21
5
31
0
0
LINE
5
224
100
AcDbEntity
8
0
100
AcDbLine
10
49.625
20
-42.099999999999994
30
0
11
49.625
21
-73.590462055410228
31
0
0
LINE
5
225
100
AcDbEntity
8
0
100
AcDbLine
10
49.625
20
-38.220061534485588
30
0
11
50.625
21
-38.220061534485588
31
0
0
LINE
5
226
100
AcDbEntity
8
0
100
AcDbLine
10
50.625
20
-38.220061534485588
30
0
11
50.625000000000007
21
-73.000001087784767
31
0
0
LINE
5
227
100
AcDbEntity
8
0
100
AcDbLine
10
49.625
20
-33.482093731209446
30
0
11
51.625000000000007
21
-33.482093731209446
31
0
0
LINE
5
228
100
AcDbEntity
8
0
100
AcDbLine
10
51.625000000000007
20
-33.482093731209446
30
0
11
51.625000000000007
21
-73.000001087784767
31
0
0
LINE
5
229
100
AcDbEntity
8
0
100
AcDbLine
10
-25.403635186465266
20
24.500000253319726
30
0
11
-25.403635186465266
21
15
31
0
0
CIRCLE
5
230
100
AcDbEntity
8
0
100
AcDbCircle
10
-66.403635186465266
20
15.500000253319726
30
0
40
1.5
210
0
220
0
230
1
0
CIRCLE
5
231
100
AcDbEntity
8
0
100
AcDbCircle
10
96.931377592555521
20
15.500000253319726
30
0
40
1.5000000000000033
210
0
220
0
230
1
0
CIRCLE
5
232
100
AcDbEntity
8
0
100
AcDbCircle
10
-66.403635186465266
20
-103.12198548877052
30
0
40
1.4999999999999973
210
0
220
0
230
1
0
LINE
5
233
100
AcDbEntity
8
0
100
AcDbLine
10
47.625
20
-32.574999999999989
30
0
11
47.625
21
-42.099999999999994
31
0
0
CIRCLE
5
234
100
AcDbEntity
8
0
100
AcDbCircle
10
28.57500000000001
20
-32.574999999999989
30
0
40
2.4999999999999991
210
0
220
0
230
1
0
LINE
5
235
100
AcDbEntity
8
0
100
AcDbLine
10
47.625
20
-51.625
30
0
11
38.100000000000009
21
-42.099999999999994
31
0
0
LINE
5
236
100
AcDbEntity
8
0
100
AcDbLine
10
47.625
20
-51.625
30
0
11
28.57500000000001
21
-32.574999999999989
31
0
0
CIRCLE
5
237
100
AcDbEntity
8
0
100
AcDbCircle
10
53.817256513994067
20
-95.863597483656974
30
0
40
1.4999999999999967
210
0
220
0
230
1
0
CIRCLE
5
238
100
AcDbEntity
8
0
100
AcDbCircle
10
-25.403635186465266
20
21.60086171566892
30
0
40
1.0000000000000011
210
0
220
0
230
1
0
CIRCLE
5
239
100
AcDbEntity
8
0
100
AcDbCircle
10
55.931377592555542
20
21.740479047333352
30
0
40
1.0000000000000011
210
0
220
0
230
1
0
CIRCLE
5
240
100
AcDbEntity
8
0
100
AcDbCircle
10
101.93136481353474
20
-43.492158738205461
30
0
40
1.0000000000000047
210
0
220
0
230
1
0
CIRCLE
5
241
100
AcDbEntity
8
0
100
AcDbCircle
10
92.610493989687768
20
-113.85069706926423
30
0
40
0.9999999999999909
210
0
220
0
230
1
0
LINE
5
242
100
AcDbEntity
8
0
100
AcDbLine
10
136.77343191711748
20
-130.95683367353107
30
0
11
138.4639049892703
21
-134.58206487569782
31
0
0
LINE
5
243
100
AcDbEntity
8
0
100
AcDbLine
10
115.93136481353474
20
-76.56099261772539
30
0
11
111.93136481353476
21
-76.56099261772539
31
0
0
LINE
5
244
100
AcDbEntity
8
0
100
AcDbLine
10
115.93135203451394
20
-12.560992617725404
30
0
11
115.93135203451394
21
18.500000253319726
31
0
0
LINE
5
245
100
AcDbEntity
8
0
100
AcDbLine
10
111.93136481353474
20
-21.986089194567207
30
0
11
111.93136481353474
21
-64.998228281843708
31
0
0
LINE
5
246
100
AcDbEntity
8
0
100
AcDbLine
10
115.93135203451394
20
-93.418608352364345
30
0
11
115.93135203451394
21
-76.56099261772539
31
0
0
LINE
5
247
100
AcDbEntity
8
0
100
AcDbLine
10
111.93136481353476
20
-76.56099261772539
30
0
11
111.93136481353474
21
-71.998228281843694
31
0
0
LINE
5
248
100
AcDbEntity
8
0
100
AcDbLine
10
111.93136481353474
20
-14.986089194567205
30
0
11
111.93136481353474
21
-12.560992617725404
31
0
0
LINE
5
249
100
AcDbEntity
8
0
100
AcDbLine
10
111.93136481353474
20
-12.560992617725404
30
0
11
115.93136481353471
21
-12.560992617725404
31
0
0
CIRCLE
5
250
100
AcDbEntity
8
0
100
AcDbCircle
10
113.93136481353473
20
-43.492158738205461
30
0
40
1.0000000000000047
210
0
220
0
230
1
0
LINE
5
251
100
AcDbEntity
8
0
100
AcDbLine
10
153.57145558332584
20
-127.82017258708657
30
0
11
148.62251146407229
21
-117.20712767413227
31
0
0
LWPOLYLINE
5
252
100
AcDbEntity
8
0
100
AcDbPolyline
90
4
70
1
43
0.0
10
189.31272962706944
20
-92.25
10
189.31272962706944
20
-106.25
10
203.31272962706947
20
-106.25
10
203.31272962706947
20
-92.25
0
LINE
5
253
100
AcDbEntity
8
0
100
AcDbLine
10
121.43962006330841
20
-114.69593359274562
30
0
11
124.15854342441834
21
-113.42807880752353
31
0
0
LWPOLYLINE
5
254
100
AcDbEntity
8
0
100
AcDbPolyline
90
4
70
1
43
0.0
10
196.81272962706944
20
-73.200000000000003
10
182.81272962706947
20
-73.200000000000003
10
182.81272962706947
20
-87.200000000000003
10
196.81272962706944
20
-87.200000000000003
0
LWPOLYLINE
5
255
100
AcDbEntity
8
0
100
AcDbPolyline
90
4
70
1
43
0.0
10
208.36272962706946
20
-92.25
10
208.36272962706946
20
-106.25
10
222.36272962706948
20
-106.25
10
222.36272962706948
20
-92.25
0
LINE
5
256
100
AcDbEntity
8
0
100
AcDbLine
10
128.22250029261974
20
-129.2418671854912
30
0
11
131.84773144076632
21
-127.55139413852842
31
0
0
LINE
5
257
100
AcDbEntity
8
0
100
AcDbLine
10
165.77528153445155
20
-117.43304909630857
30
0
11
168.51686237415666
21
-116.15462895530305
31
0
0
LWPOLYLINE
5
258
100
AcDbEntity
8
0
100
AcDbPolyline
90
4
70
1
43
0.0
10
160.08943419030047
20
-98.934781001608641
10
147.40112517178738
20
-104.8514366659785
10
153.31778083615717
20
-117.53974568449154
10
166.00608985467028
20
-111.62309002012172
0
LWPOLYLINE
5
259
100
AcDbEntity
8
0
100
AcDbPolyline
90
4
70
1
43
0.0
10
165.93222400864246
20
-96.808737083749804
10
170.72050601520178
20
-109.96443377475248
10
183.87620270620448
20
-105.17615176819317
10
179.08792069964517
20
-92.020455077190476
0
LWPOLYLINE
5
260
100
AcDbEntity
8
0
100
AcDbPolyline
90
4
70
1
43
0.0
10
126.50820409644203
20
-104.26973288061257
10
132.42485976081181
20
-116.95804189912565
10
145.11316877932489
20
-111.04138623475585
10
139.19651311495511
20
-98.353077216242809
0
LWPOLYLINE
5
261
100
AcDbEntity
8
0
100
AcDbPolyline
90
4
70
1
43
0.0
10
157.95521196851087
20
-94.357926677071646
10
152.03855630414108
20
-81.669617658558593
10
139.35024728562797
20
-87.586273322928378
10
145.26690294999779
20
-100.27458234144147
0
CIRCLE
5
262
100
AcDbEntity
8
0
100
AcDbCircle
10
162.04547311307539
20
-95.863597483656974
30
0
40
1.4999999999999967
210
0
220
0
230
1
0
LWPOLYLINE
5
263
100
AcDbEntity
8
0
100
AcDbPolyline
90
4
70
1
43
0.0
10
203.81272962706944
20
-16.049999999999983
10
203.81272962706944
20
-30.04999999999999
10
189.81272962706947
20
-30.04999999999999
10
189.81272962706947
20
-16.049999999999983
0
LWPOLYLINE
5
264
100
AcDbEntity
8
0
100
AcDbPolyline
90
2
70
1
43
0.0
10
203.81272962706944
20
-35.099999999999987
10
203.81272962706944
20
-49.100000000000001
0
LWPOLYLINE
5
265
100
AcDbEntity
8
0
100
AcDbPolyline
90
4
70
1
43
0.0
10
208.86272962706948
20
-50.150000000000013
10
208.86272962706948
20
-64.150000000000006
10
222.86272962706946
20
-64.150000000000006
10
222.86272962706946
20
-50.150000000000013
0
LINE
5
266
100
AcDbEntity
8
0
100
AcDbLine
10
167.46575460660438
20
-121.05828029847532
30
0
11
165.77528153445155
21
-117.43304909630857
31
0
0
LWPOLYLINE
5
267
100
AcDbEntity
8
0
100
AcDbPolyline
90
2
70
1
43
0.0
10
184.76272962706946
20
-10.999999999999988
10
184.76272962706946
20
3.000000000000016
0
LWPOLYLINE
5
268
100
AcDbEntity
8
0
100
AcDbPolyline
90
4
70
1
43
0.0
10
208.86272962706948
20
-12.050000000000001
10
208.86272962706948
20
-26.050000000000004
10
222.86272962706946
20
-26.050000000000004
10
222.86272962706946
20
-12.050000000000001
0
LWPOLYLINE
5
269
100
AcDbEntity
8
0
100
AcDbPolyline
90
4
70
1
43
0.0
10
184.76272962706946
20
-16.049999999999983
10
184.76272962706946
20
-30.04999999999999
10
170.76272962706946
20
-30.04999999999999
10
170.76272962706946
20
-16.049999999999983
0
LWPOLYLINE
5
270
100
AcDbEntity
8
0
100
AcDbPolyline
90
4
70
1
43
0.0
10
189.81272962706947
20
-10.999999999999988
10
203.81272962706944
20
-10.999999999999988
10
203.81272962706944
20
3.000000000000016
10
189.81272962706947
20
3.000000000000016
0
LWPOLYLINE
5
271
100
AcDbEntity
8
0
100
AcDbPolyline
90
4
70
1
43
0.0
10
201.86272962706943
20
-73.200000000000003
10
201.86272962706943
20
-87.200000000000003
10
215.86272962706946
20
-87.200000000000003
10
215.86272962706946
20
-73.200000000000003
0
LWPOLYLINE
5
272
100
AcDbEntity
8
0
100
AcDbPolyline
90
4
70
1
43
0.0
10
159.41674027828842
20
-78.907592657778309
10
164.20502228484776
20
-92.063289348781012
10
177.36071897585049
20
-87.275007342221684
10
172.57243696929112
20
-74.119310651218953
0
CIRCLE
5
273
100
AcDbEntity
8
0
100
AcDbCircle
10
123.2522356373817
20
-113.85069706926423
30
0
40
0.9999999999999909
210
0
220
0
230
1
0
LWPOLYLINE
5
274
100
AcDbEntity
8
0
100
AcDbPolyline
90
4
70
1
43
0.0
10
208.86272962706948
20
7.0000000000000018
10
208.86272962706948
20
-7.0000000000000018
10
222.86272962706946
20
-7.0000000000000018
10
222.86272962706946
20
7.0000000000000018
0
LINE
5
275
100
AcDbEntity
8
0
100
AcDbLine
10
205.36060391487575
20
-116.0000017285347
30
0
11
205.36060391487575
21
-91.000001356005669
31
0
0
LINE
5
276
100
AcDbEntity
8
0
100
AcDbLine
10
189.36060391487572
20
-111.25
30
0
11
189.36060391487572
21
-116.0000017285347
31
0
0
LWPOLYLINE
5
277
100
AcDbEntity
8
0
100
AcDbPolyline
90
4
70
1
43
0.0
10
260.96272962706951
20
-61.15000000000002
10
246.96272962706951
20
-61.15000000000002
10
246.96272962706951
20
-75.150000000000006
10
260.96272962706951
20
-75.150000000000006
0
LWPOLYLINE
5
278
100
AcDbEntity
8
0
100
AcDbPolyline
90
4
70
1
43
0.0
10
189.81272962706947
20
-68.149999999999991
10
203.81272962706944
20
-68.149999999999991
10
203.81272962706944
20
-54.149999999999991
10
189.81272962706947
20
-54.149999999999991
0
LWPOLYLINE
5
279
100
AcDbEntity
8
0
100
AcDbPolyline
90
4
70
1
43
0.0
10
280.01272962706946
20
-75.150000000000006
10
280.01272962706946
20
-61.15000000000002
10
266.01272962706952
20
-61.15000000000002
10
266.01272962706952
20
-75.150000000000006
0
LWPOLYLINE
5
280
100
AcDbEntity
8
0
100
AcDbPolyline
90
2
70
1
43
0.0
10
184.76272962706946
20
-49.100000000000001
10
184.76272962706946
20
-35.099999999999987
0
LWPOLYLINE
5
281
100
AcDbEntity
8
0
100
AcDbPolyline
90
4
70
1
43
0.0
10
234.91272962706944
20
-73.199999999999989
10
220.91272962706944
20
-73.199999999999989
10
220.91272962706944
20
-87.200000000000017
10
234.91272962706944
20
-87.200000000000017
0
LWPOLYLINE
5
282
100
AcDbEntity
8
0
100
AcDbPolyline
90
4
70
1
43
0.0
10
266.01272962706952
20
-3.9999999999999991
10
266.01272962706952
20
-18
10
280.01272962706946
20
-18
10
280.01272962706946
20
-3.9999999999999991
0
LINE
5
283
100
AcDbEntity
8
0
100
AcDbLine
10
222.86272962706946
20
-7.0000000000000018
30
0
11
222.86272962706946
21
7.0000000000000018
31
0
0
LWPOLYLINE
5
284
100
AcDbEntity
8
0
100
AcDbPolyline
90
4
70
1
43
0.0
10
241.91272962706947
20
-11
10
241.91272962706947
20
2.9999999999999982
10
227.9127296270695
20
2.9999999999999982
10
227.9127296270695
20
-11
0
LWPOLYLINE
5
285
100
AcDbEntity
8
0
100
AcDbPolyline
90
4
70
1
43
0.0
10
241.91272962706947
20
-16.050000000000001
10
227.9127296270695
20
-16.050000000000001
10
227.9127296270695
20
-30.050000000000008
10
241.91272962706947
20
-30.050000000000008
0
LWPOLYLINE
5
286
100
AcDbEntity
8
0
100
AcDbPolyline
90
4
70
1
43
0.0
10
241.91272962706947
20
-35.100000000000009
10
227.9127296270695
20
-35.100000000000009
10
227.9127296270695
20
-49.100000000000001
10
241.91272962706947
20
-49.100000000000001
0
LWPOLYLINE
5
287
100
AcDbEntity
8
0
100
AcDbPolyline
90
4
70
1
43
0.0
10
260.96272962706951
20
-37.049999999999997
10
260.96272962706951
20
-23.050000000000001
10
246.96272962706951
20
-23.050000000000001
10
246.96272962706951
20
-37.049999999999997
0
LWPOLYLINE
5
288
100
AcDbEntity
8
0
100
AcDbPolyline
90
4
70
1
43
0.0
10
280.01272962706946
20
-37.049999999999997
10
280.01272962706946
20
-23.050000000000001
10
266.01272962706952
20
-23.050000000000001
10
266.01272962706952
20
-37.049999999999997
0
LWPOLYLINE
5
289
100
AcDbEntity
8
0
100
AcDbPolyline
90
4
70
1
43
0.0
10
280.01272962706946
20
-42.100000000000009
10
266.01272962706952
20
-42.100000000000009
10
266.01272962706952
20
-56.100000000000001
10
280.01272962706946
20
-56.100000000000001
0
LINE
5
290
100
AcDbEntity
8
0
100
AcDbLine
10
168.23772962706948
20
-51.625
30
0
11
177.76272962706946
21
-42.099999999999994
31
0
0
LWPOLYLINE
5
291
100
AcDbEntity
8
0
100
AcDbPolyline
90
3
70
1
43
0.0
10
168.23772962706948
20
-51.625
10
187.28772962706944
20
-51.625
10
187.28772962706944
20
-32.574999999999989
0
LINE
5
292
100
AcDbEntity
8
0
100
AcDbLine
10
122.63391083785136
20
-12.472000000000005
30
0
11
121.43962006330841
21
-114.69593359274562
31
0
0
LINE
5
293
100
AcDbEntity
8
0
100
AcDbLine
10
229.98649316094657
20
-106.12198548877053
30
0
11
241.62642898724067
21
-106.12198548877053
31
0
0
LINE
5
294
100
AcDbEntity
8
0
100
AcDbLine
10
224.85847864971686
20
-111.25
30
0
11
229.98649316094657
21
-106.12198548877053
31
0
0
CIRCLE
5
295
100
AcDbEntity
8
0
100
AcDbCircle
10
141.23967644629158
20
-55.555988314442253
30
-1.7347234759768071e-17
40
19.999999999999496
210
0
220
0
230
1
0
LINE
5
296
100
AcDbEntity
8
0
100
AcDbLine
10
285.26636481353472
20
-76.560992617725404
30
0
11
285.26636481353472
21
-106.12198548877053
31
0
0
LWPOLYLINE
5
297
100
AcDbEntity
8
0
100
AcDbPolyline
90
4
70
1
43
0.0
10
246.96272962706951
20
-3.9999999999999991
10
246.96272962706951
20
-18
10
260.96272962706951
20
-18
10
260.96272962706951
20
-4.0000000000000018
0
CIRCLE
5
298
100
AcDbEntity
8
0
100
AcDbCircle
10
282.26636481353472
20
15.500000253319728
30
0
40
1.5
210
0
220
0
230
1
0
LINE
5
299
100
AcDbEntity
8
0
100
AcDbLine
10
289.26636481353466
20
-44.560992617725397
30
0
11
280.01272962706946
21
-44.505219088551726
31
0
0
LINE
5
300
100
AcDbEntity
8
0
100
AcDbLine
10
187.28772962706944
20
-51.625
30
0
11
168.23772962706948
21
-32.574999999999989
31
0
0
LINE
5
301
100
AcDbEntity
8
0
100
AcDbLine
10
241.62642898724067
20
-106.12198548877053
30
0
11
241.62642898724067
21
-110.12198548877052
31
0
0
LWPOLYLINE
5
302
100
AcDbEntity
8
0
100
AcDbPolyline
90
4
70
1
43
0.0
10
227.9127296270695
20
-68.150000000000006
10
241.91272962706947
20
-68.150000000000006
10
241.91272962706947
20
-54.15000000000002
10
227.9127296270695
20
-54.15000000000002
0
LWPOLYLINE
5
303
100
AcDbEntity
8
0
100
AcDbPolyline
90
4
70
1
43
0.0
10
184.76272962706946
20
-68.149999999999991
10
184.76272962706946
20
-54.149999999999991
10
170.76272962706946
20
-54.149999999999991
10
170.76272962706946
20
-68.149999999999991
0
CIRCLE
5
304
100
AcDbEntity
8
0
100
AcDbCircle
10
279.26636481353478
20
-83.150000000000006
30
0
40
0.70000000000000329
210
0
220
0
230
1
0
LWPOLYLINE
5
305
100
AcDbEntity
8
0
100
AcDbPolyline
90
4
70
1
43
0.0
10
208.86272962706948
20
-31.100000000000001
10
208.86272962706948
20
-45.100000000000009
10
222.86272962706946
20
-45.100000000000009
10
222.86272962706946
20
-31.100000000000001
0
LINE
5
306
100
AcDbEntity
8
0
100
AcDbLine
10
189.81272962706947
20
-49.100000000000001
30
0
11
203.81272962706944
21
-49.100000000000001
31
0
0
LINE
5
307
100
AcDbEntity
8
0
100
AcDbLine
10
285.26636481353472
20
-12.560992617725395
30
0
11
289.26636481353466
21
-12.560992617725395
31
0
0
LINE
5
308
100
AcDbEntity
8
0
100
AcDbLine
10
177.76272962706946
20
-35.099999999999987
30
0
11
177.76272962706946
21
-49.100000000000001
31
0
0
LWPOLYLINE
5
309
100
AcDbEntity
8
0
100
AcDbPolyline
90
4
70
1
43
0.0
10
238.26636481353475
20
-100.15000000000001
10
282.26636481353472
20
-100.15000000000001
10
282.26636481353472
20
-80.150000000000006
10
238.26636481353475
20
-80.150000000000006
0
CIRCLE
5
310
100
AcDbEntity
8
0
100
AcDbCircle
10
241.26636481353472
20
-83.150000000000006
30
0
40
0.70000000000000329
210
0
220
0
230
1
0
LINE
5
311
100
AcDbEntity
8
0
100
AcDbLine
10
185.86272918003462
20
-111.25
30
0
11
168.51686237415666
21
-116.15462895530305
31
0
0
LINE
5
312
100
AcDbEntity
8
0
100
AcDbLine
10
189.81272962706947
20
-35.099999999999987
30
0
11
189.81272962706947
21
-49.100000000000001
31
0
0
LINE
5
313
100
AcDbEntity
8
0
100
AcDbLine
10
241.62642898724067
20
-110.12198548877052
30
0
11
273.62642898724062
21
-110.12198548877052
31
0
0
LINE
5
314
100
AcDbEntity
8
0
100
AcDbLine
10
184.76272962706946
20
3.000000000000016
30
0
11
170.76272962706946
21
3.000000000000016
31
0
0
LWPOLYLINE
5
315
100
AcDbEntity
8
0
100
AcDbPolyline
90
4
70
1
43
0.0
10
246.96272962706951
20
-56.100000000000001
10
260.96272962706951
20
-56.100000000000001
10
260.96272962706951
20
-42.100000000000009
10
246.96272962706951
20
-42.100000000000009
0
LINE
5
316
100
AcDbEntity
8
0
100
AcDbLine
10
170.76272962706946
20
-10.999999999999988
30
0
11
184.76272962706946
21
-10.999999999999988
31
0
0
LINE
5
317
100
AcDbEntity
8
0
100
AcDbLine
10
203.81272962706944
20
-30.04999999999999
30
0
11
203.81272962706944
21
-16.049999999999983
31
0
0
LINE
5
318
100
AcDbEntity
8
0
100
AcDbLine
10
203.81272962706944
20
-35.099999999999987
30
0
11
189.81272962706947
21
-35.099999999999987
31
0
0
LINE
5
319
100
AcDbEntity
8
0
100
AcDbLine
10
184.76272962706946
20
-42.099999999999994
30
0
11
170.76272962706946
21
-42.099999999999994
31
0
0
LINE
5
320
100
AcDbEntity
8
0
100
AcDbLine
10
184.76272962706946
20
-30.04999999999999
30
0
11
184.76272962706946
21
-16.049999999999983
31
0
0
LINE
5
321
100
AcDbEntity
8
0
100
AcDbLine
10
289.26636481353466
20
-76.560992617725404
30
0
11
285.26636481353472
21
-76.560992617725404
31
0
0
LINE
5
322
100
AcDbEntity
8
0
100
AcDbLine
10
241.60996699572996
20
-100.15000000000001
30
0
11
241.62642898724067
21
-106.12198548877053
31
0
0
CIRCLE
5
323
100
AcDbEntity
8
0
100
AcDbCircle
10
279.26636481353478
20
-97.150000000000006
30
0
40
0.70000000000000329
210
0
220
0
230
1
0
CIRCLE
5
324
100
AcDbEntity
8
0
100
AcDbCircle
10
187.28772962706944
20
-32.574999999999989
30
0
40
2.4999999999999991
210
0
220
0
230
1
0
LINE
5
325
100
AcDbEntity
8
0
100
AcDbLine
10
273.62642898724062
20
-106.12198548877053
30
0
11
285.26636481353472
21
-106.12198548877053
31
0
0
LINE
5
326
100
AcDbEntity
8
0
100
AcDbLine
10
203.81272962706944
20
3.000000000000016
30
0
11
203.81272962706944
21
-10.999999999999988
31
0
0
LINE
5
327
100
AcDbEntity
8
0
100
AcDbLine
10
189.36060391487572
20
-111.25
30
0
11
185.86272918003462
21
-111.25
31
0
0
LINE
5
328
100
AcDbEntity
8
0
100
AcDbLine
10
184.76272962706946
20
-35.099999999999987
30
0
11
170.76272962706946
21
-35.099999999999987
31
0
0
LINE
5
329
100
AcDbEntity
8
0
100
AcDbLine
10
224.85847864971686
20
-111.25
30
0
11
221.36060391487575
21
-111.25
31
0
0
LINE
5
330
100
AcDbEntity
8
0
100
AcDbLine
10
273.62642898724062
20
-110.12198548877052
30
0
11
273.62642898724062
21
-106.12198548877053
31
0
0
CIRCLE
5
331
100
AcDbEntity
8
0
100
AcDbCircle
10
282.26636481353472
20
-103.12198548877052
30
0
40
1.4999999999999973
210
0
220
0
230
1
0
CIRCLE
5
332
100
AcDbEntity
8
0
100
AcDbCircle
10
241.26636481353472
20
-97.150000000000006
30
0
40
0.70000000000000329
210
0
220
0
230
1
0
LINE
5
333
100
AcDbEntity
8
0
100
AcDbLine
10
170.76272962706946
20
-49.100000000000001
30
0
11
184.76272962706946
21
-49.100000000000001
31
0
0
LINE
5
334
100
AcDbEntity
8
0
100
AcDbLine
10
187.28772962706944
20
-32.574999999999989
30
0
11
168.23772962706948
21
-32.574999999999989
31
0
0
LINE
5
335
100
AcDbEntity
8
0
100
AcDbLine
10
221.36060391487575
20
-116.0000017285347
30
0
11
221.36060391487575
21
-111.25
31
0
0
LWPOLYLINE
5
336
100
AcDbEntity
8
0
100
AcDbPolyline
90
8
70
1
43
0.0
10
129.23967644629192
20
-51.555988314442587
42
-0.99999999999999989
10
129.23967644629184
20
-59.555988314442274
10
124.29854561541185
20
-61.653373915747487
42
0.70288191016091583
10
158.18080727717134
20
-61.653373915746677
10
153.23967644629124
20
-59.555988314441954
42
-0.99999999999999989
10
153.23967644629133
20
-51.555988314442267
10
158.18080727717123
20
-49.458602713136308
42
0.7028819101608802
10
124.29854561541218
20
-49.458602713136997
0
CIRCLE
5
337
100
AcDbEntity
8
0
100
AcDbCircle
10
126.13391083785137
20
-55.472000000000001
30
0
40
1.4999999999999971
210
0
220
0
230
1
0
LINE
5
338
100
AcDbEntity
8
0
100
AcDbLine
10
203.81272962706944
20
-54.149999999999991
30
0
11
203.81272962706944
21
-68.149999999999991
31
0
0
LINE
5
339
100
AcDbEntity
8
0
100
AcDbLine
10
166.23772962706943
20
-33.482093731209446
30
0
11
164.23772962706946
21
-33.482093731209446
31
0
0
LINE
5
340
100
AcDbEntity
8
0
100
AcDbLine
10
164.23772962706946
20
-33.482093731209446
30
0
11
164.23772962706946
21
-73.000001087784767
31
0
0
LINE
5
341
100
AcDbEntity
8
0
100
AcDbLine
10
165.23772962706946
20
-38.220061534485588
30
0
11
165.23772962706946
21
-73.000001087784767
31
0
0
CIRCLE
5
342
100
AcDbEntity
8
0
100
AcDbCircle
10
118.93135203451394
20
15.500000253319728
30
0
40
1.5000000000000033
210
0
220
0
230
1
0
LINE
5
343
100
AcDbEntity
8
0
100
AcDbLine
10
170.76272962706946
20
-35.099999999999987
30
0
11
170.76272962706946
21
-49.100000000000001
31
0
0
CIRCLE
5
344
100
AcDbEntity
8
0
100
AcDbCircle
10
156.13390883785064
20
-55.472003000000001
30
-1.7347234759768071e-17
40
1.799999999999957
210
0
220
0
230
1
0
CIRCLE
5
345
100
AcDbEntity
8
0
100
AcDbCircle
10
156.13391083785135
20
-55.472000000000001
30
0
40
1.4999999999999971
210
0
220
0
230
1
0
LINE
5
346
100
AcDbEntity
8
0
100
AcDbLine
10
159.63391083785137
20
-12.472000000000005
30
0
11
159.63391083785137
21
-79.504263866347827
31
0
0
LINE
5
347
100
AcDbEntity
8
0
100
AcDbLine
10
184.76272962706946
20
-54.149999999999991
30
0
11
184.76272962706946
21
-68.149999999999991
31
0
0
LINE
5
348
100
AcDbEntity
8
0
100
AcDbLine
10
166.23772962706943
20
-42.099999999999994
30
0
11
166.23772962706943
21
-73.590462055410228
31
0
0
LINE
5
349
100
AcDbEntity
8
0
100
AcDbLine
10
289.26636481353466
20
-12.560992617725395
30
0
11
289.26636481353466
21
-76.560992617725404
31
0
0
LINE
5
350
100
AcDbEntity
8
0
100
AcDbLine
10
273.26636481353478
20
18.500000253319726
30
0
11
273.26636481353478
21
24.500000253319723
31
0
0
LINE
5
351
100
AcDbEntity
8
0
100
AcDbLine
10
273.26636481353478
20
24.500000253319723
30
0
11
209.26636481353472
21
24.500000253319723
31
0
0
LINE
5
352
100
AcDbEntity
8
0
100
AcDbLine
10
141.13391083785135
20
-12.472000000000005
30
0
11
141.13391083785135
21
6.0279999999999934
31
0
0
LINE
5
353
100
AcDbEntity
8
0
100
AcDbLine
10
209.26636481353472
20
24.500000253319723
30
0
11
209.26636481353472
21
18.500000253319726
31
0
0
LINE
5
354
100
AcDbEntity
8
0
100
AcDbLine
10
189.36060391487572
20
-116.0000017285347
30
0
11
221.36060391487575
21
-116.0000017285347
31
0
0
LINE
5
355
100
AcDbEntity
8
0
100
AcDbLine
10
141.13391083785135
20
-12.472000000000005
30
0
11
122.63391083785136
21
-12.472000000000005
31
0
0
LINE
5
356
100
AcDbEntity
8
0
100
AcDbLine
10
168.23772962706948
20
-32.574999999999989
30
0
11
168.23772962706948
21
-51.625
31
0
0
LINE
5
357
100
AcDbEntity
8
0
100
AcDbLine
10
191.93135203451391
20
24.500000365078449
30
0
11
191.93135203451391
21
18.500000253319691
31
0
0
LINE
5
358
100
AcDbEntity
8
0
100
AcDbLine
10
285.26636481353472
20
18.500000253319726
30
0
11
273.26636481353478
21
18.500000253319726
31
0
0
LINE
5
359
100
AcDbEntity
8
0
100
AcDbLine
10
127.93135203451392
20
18.500000253319726
30
0
11
127.93135203451392
21
24.500000365078449
31
0
0
LINE
5
360
100
AcDbEntity
8
0
100
AcDbLine
10
166.23772962706943
20
-38.220061534485588
30
0
11
165.23772962706946
21
-38.220061534485588
31
0
0
LINE
5
361
100
AcDbEntity
8
0
100
AcDbLine
10
141.13391083785135
20
-12.472000000000005
30
0
11
159.63391083785137
21
-12.472000000000005
31
0
0
LINE
5
362
100
AcDbEntity
8
0
100
AcDbLine
10
127.93135203451392
20
24.500000365078449
30
0
11
191.93135203451391
21
24.500000365078449
31
0
0
CIRCLE
5
363
100
AcDbEntity
8
0
100
AcDbCircle
10
141.13391083785135
20
-12.472000000000005
30
0
40
18.5
210
0
220
0
230
1
0
CIRCLE
5
364
100
AcDbEntity
8
0
100
AcDbCircle
10
241.26636481353472
20
21.60086171566892
30
0
40
1.0000000000000011
210
0
220
0
230
1
0
LINE
5
365
100
AcDbEntity
8
0
100
AcDbLine
10
168.23772962706948
20
-42.099999999999994
30
0
11
166.23772962706943
21
-42.099999999999994
31
0
0
LINE
5
366
100
AcDbEntity
8
0
100
AcDbLine
10
168.23772962706948
20
-32.574999999999989
30
0
11
168.23772962706948
21
-42.099999999999994
31
0
0
LINE
5
367
100
AcDbEntity
8
0
100
AcDbLine
10
166.23772962706943
20
-42.099999999999994
30
0
11
166.23772962706943
21
5
31
0
0
LINE
5
368
100
AcDbEntity
8
0
100
AcDbLine
10
209.26636481353472
20
18.500000253319726
30
0
11
191.93135203451391
21
18.500000253319691
31
0
0
CIRCLE
5
369
100
AcDbEntity
8
0
100
AcDbCircle
10
159.93135203451391
20
21.740479047333352
30
0
40
1.0000000000000011
210
0
220
0
230
1
0
LINE
5
370
100
AcDbEntity
8
0
100
AcDbLine
10
141.13391083785135
20
-12.472000000000005
30
0
11
141.13391083785135
21
-30.972000275671483
31
0
0
CIRCLE
5
371
100
AcDbEntity
8
0
100
AcDbCircle
10
126.13391083785137
20
-55.472000000000001
30
-1.7347234759768071e-17
40
1.7999999999999545
210
0
220
0
230
1
0
LINE
5
372
100
AcDbEntity
8
0
100
AcDbLine
10
159.93135203451391
20
24.500000365078449
30
0
11
159.93135203451391
21
10
31
0
0
LINE
5
373
100
AcDbEntity
8
0
100
AcDbLine
10
115.93135203451394
20
18.500000253319726
30
0
11
127.93135203451392
21
18.500000253319726
31
0
0
LINE
5
374
100
AcDbEntity
8
0
100
AcDbLine
10
241.26636481353472
20
24.500000253319723
30
0
11
241.26636481353472
21
15
31
0
0
LINE
5
375
100
AcDbEntity
8
0
100
AcDbLine
10
170.76272962706946
20
3.000000000000016
30
0
11
170.76272962706946
21
-10.999999999999988
31
0
0
LINE
5
376
100
AcDbEntity
8
0
100
AcDbLine
10
114.65673983399709
20
-100.15000000000001
30
0
11
118.28197098214363
21
-98.459526953037226
31
0
0
LINE
5
377
100
AcDbEntity
8
0
100
AcDbLine
10
115.93135203451394
20
-93.418608352364345
30
0
11
118.28197098214363
21
-98.459526953037226
31
0
0
LINE
5
378
100
AcDbEntity
8
0
100
AcDbLine
10
285.26636481353472
20
18.500000253319726
30
0
11
285.26636481353472
21
-12.560992617725395
31
0
0
LINE
5
379
100
AcDbEntity
8
0
100
AcDbLine
10
128.22250029261974
20
-129.2418671854912
30
0
11
114.65673983399709
21
-100.15000000000001
31
0
0
LINE
5
380
100
AcDbEntity
8
0
100
AcDbLine
10
131.84773144076632
20
-127.55139413852842
30
0
11
134.03185107741234
21
-132.23525381453658
31
0
0
LINE
5
381
100
AcDbEntity
8
0
100
AcDbLine
10
134.03185107741234
20
-132.23525381453658
30
0
11
136.77343191711748
21
-130.95683367353107
31
0
0
LINE
5
382
100
AcDbEntity
8
0
100
AcDbLine
10
159.63391083785137
20
-43.77967162246491
30
0
11
111.93136481353474
21
-43.492158738205461
31
0
0
LINE
5
383
100
AcDbEntity
8
0
100
AcDbLine
10
138.4639049892703
20
-134.58206487569782
30
0
11
167.46575460660438
21
-121.05828029847532
31
0
0
LINE
5
384
100
AcDbEntity
8
0
100
AcDbLine
10
111.93136481353474
20
-71.998228281843694
30
0
11
107.93136481353473
21
-71.998228281843723
31
0
0
LINE
5
385
100
AcDbEntity
8
0
100
AcDbLine
10
111.93136481353474
20
-64.998228281843708
30
0
11
107.93136481353473
21
-64.998228281843708
31
0
0
LINE
5
386
100
AcDbEntity
8
0
100
AcDbLine
10
111.93136481353474
20
-21.986089194567207
30
0
11
107.93136481353473
21
-21.986089194567207
31
0
0
LINE
5
387
100
AcDbEntity
8
0
100
AcDbLine
10
111.93136481353474
20
-14.986089194567205
30
0
11
107.93136481353473
21
-14.986089194567205
31
0
0
LINE
5
388
100
AcDbEntity
8
0
100
AcDbLine
10
132.85235860569856
20
-101.31140504842769
30
0
11
138.76901427006834
21
-113.99971406694075
31
0
0
LINE
5
389
100
AcDbEntity
8
0
100
AcDbLine
10
129.46653192862692
20
-110.61388738986909
30
0
11
142.15484094714
21
-104.69723172549934
31
0
0
LINE
5
390
100
AcDbEntity
8
0
100
AcDbLine
10
165.99458862378978
20
-76.513451654498624
30
0
11
170.78287063034912
21
-89.669148345501355
31
0
0
LINE
5
391
100
AcDbEntity
8
0
100
AcDbLine
10
161.81088128156807
20
-85.485441003279661
30
0
11
174.9665779725708
21
-80.697158996720319
31
0
0
CIRCLE
5
392
100
AcDbEntity
8
0
100
AcDbCircle
10
-70.903635186465266
20
-44.545924612544241
30
0
40
1.100000000000003
210
0
220
0
230
1
0
CIRCLE
5
393
100
AcDbEntity
8
0
100
AcDbCircle
10
10.502125712193727
20
-113.5000017285347
30
0
40
1.1000000000000005
210
0
220
0
230
1
0
CIRCLE
5
394
100
AcDbEntity
8
0
100
AcDbCircle
10
63.45616682150758
20
-125.32205196352018
30
0
40
1.1000000000000001
210
0
220
0
230
1
0
LINE
5
395
100
AcDbEntity
8
0
100
AcDbLine
10
-41.763699360171188
20
-110.12198548877052
30
0
11
-41.763699360171188
21
-104.00000154972076
31
0
0
CIRCLE
5
396
100
AcDbEntity
8
0
100
AcDbCircle
10
-41.763699360171188
20
-107.62198548877052
30
0
40
1.100000000000005
210
0
220
0
230
1
0
ENDSEC
0
SECTION
2
OBJECTS
0
DICTIONARY
5
C
100
AcDbDictionary
3
ACAD_GROUP
350
D
3
ACAD_MLINESTYLE
350
17
0
DICTIONARY
5
D
100
AcDbDictionary
0
DICTIONARY
5
1A
330
C
100
AcDbDictionary
0
DICTIONARY
5
17
100
AcDbDictionary
0
ENDSEC
0
EOF
