0
SECTION
2
HEADER
9
$INSUNITS
70
4
9
$ACADVER
1
AC1014
9
$HANDSEED
5
FFFF
0
ENDSEC
0
SECTION
2
TABLES
0
TABLE
2
VPORT
5
8
100
AcDbSymbolTable
0
ENDTAB
0
TABLE
2
LTYPE
5
5
100
AcDbSymbolTable
0
LTYPE
5
14
100
AcDbSymbolTableRecord
100
AcDbLinetypeTableRecord
2
BYBLOCK
70
0
0
LTYPE
5
15
100
AcDbSymbolTableRecord
100
AcDbLinetypeTableRecord
2
BYLAYER
70
0
0
ENDTAB
0
TABLE
2
LAYER
5
2
100
AcDbSymbolTable
70
2
0
LAYER
5
50
100
AcDbSymbolTableRecord
100
AcDbLayerTableRecord
2
0
70
0
6
CONTINUOUS
0
ENDTAB
0
TABLE
2
STYLE
5
3
100
AcDbSymbolTable
70
1
0
STYLE
5
11
100
AcDbSymbolTableRecord
100
AcDbTextStyleTableRecord
2
STANDARD
70
0
0
ENDTAB
0
TABLE
2
VIEW
5
6
100
AcDbSymbolTable
70
0
0
ENDTAB
0
TABLE
2
UCS
5
7
100
AcDbSymbolTable
70
0
0
ENDTAB
0
TABLE
2
APPID
5
9
100
AcDbSymbolTable
70
2
0
APPID
5
12
100
AcDbSymbolTableRecord
100
AcDbRegAppTableRecord
2
ACAD
70
0
0
ENDTAB
0
TABLE
2
DIMSTYLE
5
A
100
AcDbSymbolTable
70
1
0
ENDTAB
0
TABLE
2
BLOCK_RECORD
5
1
100
AcDbSymbolTable
70
1
0
BLOCK_RECORD
5
1F
100
AcDbSymbolTableRecord
100
AcDbBlockTableRecord
2
*MODEL_SPACE
0
BLOCK_RECORD
5
1B
100
AcDbSymbolTableRecord
100
AcDbBlockTableRecord
2
*PAPER_SPACE
0
ENDTAB
0
ENDSEC
0
SECTION
2
BLOCKS
0
BLOCK
5
20
100
AcDbEntity
100
AcDbBlockBegin
2
*MODEL_SPACE
0
ENDBLK
5
21
100
AcDbEntity
100
AcDbBlockEnd
0
BLOCK
5
1C
100
AcDbEntity
100
AcDbBlockBegin
2
*PAPER_SPACE
0
ENDBLK
5
1D
100
AcDbEntity
100
AcDbBlockEnd
0
ENDSEC
0
SECTION
2
ENTITIES
0
LINE
5
100
100
AcDbEntity
8
0
100
AcDbLine
10
115.42980982105666
20
48.601509308132258
30
0
11
163.0798098210567
21
48.601509308132293
31
0
0
LINE
5
101
100
AcDbEntity
8
0
100
AcDbLine
10
163.0798098210567
20
42.601312026816352
30
0
11
163.0798098210567
21
48.601509308132293
31
0
0
LINE
5
102
100
AcDbEntity
8
0
100
AcDbLine
10
163.0798098210567
20
42.601312026816352
30
0
11
170.5798098210567
21
42.601312026816309
31
0
0
ARC
5
103
100
AcDbEntity
8
0
100
AcDbCircle
10
170.57980982105673
20
40.101312026816331
30
0
40
2.5
210
-0
220
0
230
1
100
AcDbArc
50
0
51
90.000000000000654
0
LINE
5
104
100
AcDbEntity
8
0
100
AcDbLine
10
173.07980982105673
20
40.101312026816309
30
0
11
173.0798098210567
21
22.225546139301429
31
0
0
CIRCLE
5
105
100
AcDbEntity
8
0
100
AcDbCircle
10
170.07980982105667
20
39.601312026816359
30
0
40
1
210
0
220
-0
230
1
0
LINE
5
106
100
AcDbEntity
8
0
100
AcDbLine
10
173.0798098210567
20
22.225546139301429
30
0
11
177.07980982105667
21
22.225546139301432
31
0
0
LINE
5
107
100
AcDbEntity
8
0
100
AcDbLine
10
177.07980982105667
20
22.225546139301432
30
0
11
177.07980982105667
21
-41.774454041109088
31
0
0
LINE
5
108
100
AcDbEntity
8
0
100
AcDbLine
10
177.07980982105667
20
-41.774454041109088
30
0
11
171.64768582408783
21
-41.774454036015982
31
0
0
LINE
5
109
100
AcDbEntity
8
0
100
AcDbLine
10
171.64768582408783
20
-41.774454036015982
30
0
11
171.56820236747021
21
-58.609491120744018
31
0
0
ARC
5
110
100
AcDbEntity
8
0
100
AcDbCircle
10
169.06823023048392
20
-58.597687973183653
30
0
40
2.5000000000000004
210
-0
220
0
230
1
100
AcDbArc
50
270.47807740965396
51
359.72949077896806
0
LINE
5
111
100
AcDbEntity
8
0
100
AcDbLine
10
135.62162029063057
20
-61.376860826503339
30
0
11
169.08909005062361
21
-61.097600945249624
31
0
0
ARC
5
112
100
AcDbEntity
8
0
100
AcDbCircle
10
135.6633399309099
20
-66.376686770635288
30
0
40
5
210
0
220
0
230
1
100
AcDbArc
50
90.478077409653309
51
138.07539633501304
0
LINE
5
113
100
AcDbEntity
8
0
100
AcDbLine
10
116.42343636075871
20
-80.318068254189569
30
0
11
131.94321642928992
21
-63.035926208623323
31
0
0
ARC
5
114
100
AcDbEntity
8
0
100
AcDbCircle
10
114.56337460994872
20
-78.647687973183565
30
0
40
2.4999999999999933
210
0
220
0
230
1
100
AcDbArc
50
269.90003982459649
51
318.07539633501267
0
LINE
5
115
100
AcDbEntity
8
0
100
AcDbLine
10
114.55901302670716
20
-81.147684168498984
30
0
11
109.42768410400177
21
-81.138731867580205
31
0
0
LINE
5
116
100
AcDbEntity
8
0
100
AcDbLine
10
109.42768410380404
20
-84.647687973183679
30
0
11
109.42768410400177
21
-81.138731867580205
31
0
0
LINE
5
117
100
AcDbEntity
8
0
100
AcDbLine
10
93.427684108863019
20
-84.647687973183679
30
0
11
109.42768410380404
21
-84.647687973183679
31
0
0
LINE
5
118
100
AcDbEntity
8
0
100
AcDbLine
10
93.427684108863019
20
-84.647687973183679
30
0
11
77.427684108863019
21
-84.647687973183707
31
0
0
CIRCLE
5
119
100
AcDbEntity
8
0
100
AcDbCircle
10
93.427684108863019
20
-82.647687973183679
30
0
40
1.1000000000000005
210
0
220
-0
230
1
0
LINE
5
120
100
AcDbEntity
8
0
100
AcDbLine
10
77.427684108862977
20
-80.647687973183679
30
0
11
71.943282900191733
21
-80.647687973183679
31
0
0
LINE
5
121
100
AcDbEntity
8
0
100
AcDbLine
10
77.427684108863019
20
-84.647687973183707
30
0
11
77.427684108862977
21
-80.647687973183679
31
0
0
LINE
5
122
100
AcDbEntity
8
0
100
AcDbLine
10
23.916134553433753
20
-100.7078217114676
30
0
11
71.943282900191718
21
-80.647687973183679
31
0
0
ARC
5
123
100
AcDbEntity
8
0
100
AcDbCircle
10
22.952598316842558
20
-98.400962825281539
30
0
40
2.4999999999999774
210
0
220
0
230
1
100
AcDbArc
50
204.99999999999994
51
292.66947500413391
0
LINE
5
124
100
AcDbEntity
8
0
100
AcDbLine
10
20.686828849250954
20
-99.457508479633276
30
0
11
18.802987172883185
21
-95.41759696751825
31
0
0
LINE
5
125
100
AcDbEntity
8
0
100
AcDbLine
10
15.177756024736562
20
-97.108070014481058
30
0
11
18.802987172883185
21
-95.41759696751825
31
0
0
LINE
5
126
100
AcDbEntity
8
0
100
AcDbLine
10
5.0349177429597534
20
-75.356683125601492
30
0
11
15.177756024736562
21
-97.108070014481058
31
0
0
CIRCLE
5
127
100
AcDbEntity
8
0
100
AcDbCircle
10
10.651097672699347
20
-82.66821668544992
30
0
40
0.99999999999999711
210
0
220
-0
230
1
0
LINE
5
128
100
AcDbEntity
8
0
100
AcDbLine
10
5.0349177429597534
20
-75.356683125601492
30
0
11
2.4992081725155382
21
-69.918836403381576
31
0
0
LINE
5
129
100
AcDbEntity
8
0
100
AcDbLine
10
2.4992081725155382
20
-69.918836403381576
30
0
11
6.1244393206621126
21
-68.228363356418782
31
0
0
LINE
5
130
100
AcDbEntity
8
0
100
AcDbLine
10
6.1244393206621126
20
-68.228363356418782
30
0
11
3.5110697955230021
21
-62.623974323909202
31
0
0
ARC
5
131
100
AcDbEntity
8
0
100
AcDbCircle
10
5.7768392631146162
20
-61.567428669557458
30
0
40
2.4999999999999902
210
0
220
0
230
1
100
AcDbArc
50
114.99999999999964
51
205
0
LINE
5
132
100
AcDbEntity
8
0
100
AcDbLine
10
6.200889068480441
20
-58.611246200470013
30
0
11
6.3134550218883776
21
-41.796901050062878
31
0
0
LINE
5
133
100
AcDbEntity
8
0
100
AcDbLine
10
4.7202936087628853
20
-59.301659201965833
30
0
11
6.200889068480441
21
-58.611246200470013
31
0
0
LINE
5
134
100
AcDbEntity
8
0
100
AcDbLine
10
2.7284799505144433
20
-41.772900939844902
30
0
11
6.3134550218883776
21
-41.796901050062878
31
0
0
LINE
5
135
100
AcDbEntity
8
0
100
AcDbLine
10
2.729393326190797
20
-37.470540108991699
30
0
11
2.7284799505144433
21
-41.772900939844902
31
0
0
LINE
5
136
100
AcDbEntity
8
0
100
AcDbLine
10
2.729393326190797
20
-37.470540108991699
30
0
11
0.014849629438347667
21
-37.471116396821216
31
0
0
LINE
5
137
100
AcDbEntity
8
0
100
AcDbLine
10
0.01484962943834742
20
-37.471116396821216
30
0
11
-2.7296153488215662
21
-37.471699036830806
31
0
0
LINE
5
138
100
AcDbEntity
8
0
100
AcDbLine
10
-2.7296153488215662
20
-37.471699036830806
30
0
11
-2.7287022191814083
21
-41.772900939844902
31
0
0
LINE
5
139
100
AcDbEntity
8
0
100
AcDbLine
10
-2.7287022191814083
20
-41.772900939844902
30
0
11
-6.3136772905553427
21
-41.796901050062878
31
0
0
LINE
5
140
100
AcDbEntity
8
0
100
AcDbLine
10
-6.2011113371473989
20
-58.611246200470021
30
0
11
-6.3136772905553427
21
-41.796901050062878
31
0
0
LINE
5
141
100
AcDbEntity
8
0
100
AcDbLine
10
-4.7205158774298432
20
-59.301659201965848
30
0
11
-6.2011113371473989
21
-58.611246200470021
31
0
0
ARC
5
142
100
AcDbEntity
8
0
100
AcDbCircle
10
-5.7770615317815723
20
-61.567428669557458
30
0
40
2.4999999999999929
210
-0
220
0
230
1
100
AcDbArc
50
-25.000000000000178
51
65.000000000000298
0
LINE
5
143
100
AcDbEntity
8
0
100
AcDbLine
10
-6.124661589329067
20
-68.228363356418782
30
0
11
-3.5112920641899583
21
-62.623974323909209
31
0
0
LINE
5
144
100
AcDbEntity
8
0
100
AcDbLine
10
-2.4994304411824908
20
-69.918836403381576
30
0
11
-6.124661589329067
21
-68.228363356418782
31
0
0
LINE
5
145
100
AcDbEntity
8
0
100
AcDbLine
10
-5.0351400116267033
20
-75.356683125601492
30
0
11
-2.4994304411824908
21
-69.918836403381576
31
0
0
LINE
5
146
100
AcDbEntity
8
0
100
AcDbLine
10
-5.0351400116267033
20
-75.356683125601492
30
0
11
-15.177978293403505
21
-97.108070014481058
31
0
0
LINE
5
147
100
AcDbEntity
8
0
100
AcDbLine
10
-15.177978293403505
20
-97.108070014481058
30
0
11
-18.803209441550127
21
-95.41759696751825
31
0
0
LINE
5
148
100
AcDbEntity
8
0
100
AcDbLine
10
-20.687051117917893
20
-99.457508479633304
30
0
11
-18.803209441550127
21
-95.41759696751825
31
0
0
ARC
5
149
100
AcDbEntity
8
0
100
AcDbCircle
10
-22.952820585509496
20
-98.400962825281567
30
0
40
2.4999999999999796
210
0
220
0
230
1
100
AcDbArc
50
247.33052499586594
51
335.00000000000006
0
LINE
5
150
100
AcDbEntity
8
0
100
AcDbLine
10
-23.916356822100692
20
-100.70782171146762
30
0
11
-71.943505168858678
21
-80.647687973183722
31
0
0
LINE
5
151
100
AcDbEntity
8
0
100
AcDbLine
10
-77.427906377529922
20
-80.647687973183722
30
0
11
-71.943505168858678
21
-80.647687973183722
31
0
0
LINE
5
152
100
AcDbEntity
8
0
100
AcDbLine
10
-77.427906377529965
20
-84.647687973183736
30
0
11
-77.427906377529922
21
-80.647687973183722
31
0
0
LINE
5
153
100
AcDbEntity
8
0
100
AcDbLine
10
-93.427906377529965
20
-84.647687973183707
30
0
11
-77.427906377529965
21
-84.647687973183736
31
0
0
LINE
5
154
100
AcDbEntity
8
0
100
AcDbLine
10
-93.427906377529965
20
-84.647687973183707
30
0
11
-109.42790637247099
21
-84.647687973183722
31
0
0
CIRCLE
5
155
100
AcDbEntity
8
0
100
AcDbCircle
10
-93.427906377529965
20
-82.647687973183707
30
0
40
1.1000000000000005
210
0
220
-0
230
1
0
LINE
5
156
100
AcDbEntity
8
0
100
AcDbLine
10
-109.42790637247099
20
-84.647687973183722
30
0
11
-109.42790637266874
21
-81.138731867580262
31
0
0
LINE
5
157
100
AcDbEntity
8
0
100
AcDbLine
10
-114.55923529537414
20
-81.14768416849904
30
0
11
-109.42790637266874
21
-81.138731867580262
31
0
0
LINE
5
158
100
AcDbEntity
8
0
100
AcDbLine
10
-116.42365862942569
20
-80.318068254189626
30
0
11
-131.94343869795688
21
-63.03592620862338
31
0
0
ARC
5
159
100
AcDbEntity
8
0
100
AcDbCircle
10
-114.5635968786157
20
-78.647687973183622
30
0
40
2.5000000000000093
210
0
220
0
230
1
100
AcDbArc
50
221.92460366498733
51
270.09996017540351
0
ARC
5
160
100
AcDbEntity
8
0
100
AcDbCircle
10
-135.66356219957689
20
-66.376686770635331
30
0
40
4.9999999999999964
210
0
220
-0
230
1
100
AcDbArc
50
41.924603664986627
51
89.521922590346364
0
LINE
5
161
100
AcDbEntity
8
0
100
AcDbLine
10
-135.62184255929753
20
-61.376860826503403
30
0
11
-169.08931231929051
21
-61.09760094524971
31
0
0
CIRCLE
5
162
100
AcDbEntity
8
0
100
AcDbCircle
10
-168.57078805867101
20
-58.101823187835905
30
0
40
1.0000000000000091
210
0
220
-0
230
1
0
LINE
5
163
100
AcDbEntity
8
0
100
AcDbLine
10
-171.64790809275479
20
-41.77445403601606
30
0
11
-171.56842463613711
21
-58.609491120744096
31
0
0
ARC
5
164
100
AcDbEntity
8
0
100
AcDbCircle
10
-169.06845249915082
20
-58.597687973183724
30
0
40
2.5000000000000084
210
0
220
0
230
1
100
AcDbArc
50
180.27050922103322
51
269.52192259034598
0
LINE
5
165
100
AcDbEntity
8
0
100
AcDbLine
10
-177.08003208972366
20
-41.774454041109166
30
0
11
-171.64790809275479
21
-41.77445403601606
31
0
0
LINE
5
166
100
AcDbEntity
8
0
100
AcDbLine
10
-177.08003208972366
20
22.225546139301358
30
0
11
-177.08003208972366
21
-41.774454041109166
31
0
0
LINE
5
167
100
AcDbEntity
8
0
100
AcDbLine
10
-173.08003208972366
20
22.225546139301354
30
0
11
-177.08003208972366
21
22.225546139301358
31
0
0
LINE
5
168
100
AcDbEntity
8
0
100
AcDbLine
10
-173.08003208972369
20
40.101312026816231
30
0
11
-173.08003208972366
21
22.225546139301354
31
0
0
ARC
5
169
100
AcDbEntity
8
0
100
AcDbCircle
10
-170.58003208972369
20
40.10131202681626
30
0
40
2.4999999999999822
210
0
220
-0
230
1
100
AcDbArc
50
89.999999999999346
51
180
0
LINE
5
170
100
AcDbEntity
8
0
100
AcDbLine
10
-163.08003208972366
20
42.601312026816281
30
0
11
-170.58003208972366
21
42.601312026816238
31
0
0
CIRCLE
5
171
100
AcDbEntity
8
0
100
AcDbCircle
10
-170.08003208972366
20
39.601312026816281
30
0
40
1
210
0
220
-0
230
1
0
LINE
5
172
100
AcDbEntity
8
0
100
AcDbLine
10
-163.08003208972366
20
42.601312026816281
30
0
11
-163.08003208972366
21
48.601509308132222
31
0
0
LINE
5
173
100
AcDbEntity
8
0
100
AcDbLine
10
-115.43003208972367
20
48.601509308132201
30
0
11
-163.08003208972366
21
48.601509308132222
31
0
0
LINE
5
174
100
AcDbEntity
8
0
100
AcDbLine
10
-115.43003208972367
20
48.601509308132201
30
0
11
-115.43003208972367
21
45.601410667474241
31
0
0
LINE
5
175
100
AcDbEntity
8
0
100
AcDbLine
10
-65.998667499706372
20
45.601410667474255
30
0
11
-115.43003208972367
21
45.601410667474241
31
0
0
CIRCLE
5
176
100
AcDbEntity
8
0
100
AcDbCircle
10
-117.43003208972367
20
46.601509308132208
30
0
40
1.0000000000000073
210
0
220
-0
230
1
0
CIRCLE
5
177
100
AcDbEntity
8
0
100
AcDbCircle
10
-63.998667499706357
20
46.601509308132208
30
0
40
0.99999999999999889
210
0
220
-0
230
1
0
LINE
5
178
100
AcDbEntity
8
0
100
AcDbLine
10
-65.998667499706357
20
48.601509308132208
30
0
11
-65.998667499706372
21
45.601410667474255
31
0
0
LINE
5
179
100
AcDbEntity
8
0
100
AcDbLine
10
-16.201111337147399
20
48.601509308132194
30
0
11
-65.998667499706357
21
48.601509308132208
31
0
0
LINE
5
180
100
AcDbEntity
8
0
100
AcDbLine
10
-16.201111337147388
20
42.601312026816274
30
0
11
-16.201111337147399
21
48.601509308132194
31
0
0
CIRCLE
5
181
100
AcDbEntity
8
0
100
AcDbCircle
10
-9.745977828643456
20
39.601312026816274
30
0
40
0.99999999999999656
210
0
220
-0
230
1
0
LINE
5
182
100
AcDbEntity
8
0
100
AcDbLine
10
-9.2460839655714242
20
42.601312026816274
30
0
11
-16.201111337147388
21
42.601312026816274
31
0
0
ARC
5
183
100
AcDbEntity
8
0
100
AcDbCircle
10
-9.2460839655714295
20
40.101312026816274
30
0
40
2.5000000000000067
210
0
220
-0
230
1
100
AcDbArc
50
0.012163687003018816
51
89.999999999999901
0
LINE
5
184
100
AcDbEntity
8
0
100
AcDbLine
10
-6.7460840219086169
20
40.101842767781349
30
0
11
-6.742289097747606
21
22.226248432378792
31
0
0
LINE
5
185
100
AcDbEntity
8
0
100
AcDbLine
10
-6.742289097747606
20
22.226248432378792
30
0
11
-2.7422891878871178
21
22.227097617922897
31
0
0
LINE
5
186
100
AcDbEntity
8
0
100
AcDbLine
10
-2.7411915160030076
20
17.056628728091592
30
0
11
-2.7422891878871178
21
22.227097617922897
31
0
0
LINE
5
187
100
AcDbEntity
8
0
100
AcDbLine
10
-0.0031022765297202054
20
17.057210014554851
30
0
11
-2.7411915160030076
21
17.056628728091592
31
0
0
LINE
5
188
100
AcDbEntity
8
0
100
AcDbLine
10
-0.0031022765297202054
20
17.057210014554851
30
0
11
2.7420669192201235
21
17.057210014554851
31
0
0
LINE
5
189
100
AcDbEntity
8
0
100
AcDbLine
10
2.7420669192201244
20
22.227097617922897
30
0
11
2.7420669192201235
21
17.057210014554851
31
0
0
LINE
5
190
100
AcDbEntity
8
0
100
AcDbLine
10
6.7420668290806116
20
22.226248432378792
30
0
11
2.7420669192201244
21
22.227097617922897
31
0
0
LINE
5
191
100
AcDbEntity
8
0
100
AcDbLine
10
6.7458617532416163
20
40.101842767781349
30
0
11
6.7420668290806116
21
22.226248432378792
31
0
0
ARC
5
192
100
AcDbEntity
8
0
100
AcDbCircle
10
9.2458616969044289
20
40.101312026816274
30
0
40
2.5
210
0
220
0
230
1
100
AcDbArc
50
90.000000000000171
51
179.98783631299696
0
CIRCLE
5
193
100
AcDbEntity
8
0
100
AcDbCircle
10
9.7457555599764554
20
39.601312026816274
30
0
40
0.99999999999999656
210
0
220
-0
230
1
0
LINE
5
194
100
AcDbEntity
8
0
100
AcDbLine
10
9.2458616969044218
20
42.601312026816274
30
0
11
16.200889068480389
21
42.601312026816281
31
0
0
LINE
5
195
100
AcDbEntity
8
0
100
AcDbLine
10
16.200889068480389
20
42.601312026816281
30
0
11
16.200889068480393
21
48.601509308132201
31
0
0
LINE
5
196
100
AcDbEntity
8
0
100
AcDbLine
10
16.200889068480393
20
48.601509308132201
30
0
11
65.998445231039355
21
48.601509308132236
31
0
0
LINE
5
197
100
AcDbEntity
8
0
100
AcDbLine
10
65.998445231039369
20
45.601410667474276
30
0
11
115.42980982105666
21
45.601410667474298
31
0
0
LINE
5
198
100
AcDbEntity
8
0
100
AcDbLine
10
65.998445231039355
20
48.601509308132236
30
0
11
65.998445231039369
21
45.601410667474276
31
0
0
CIRCLE
5
199
100
AcDbEntity
8
0
100
AcDbCircle
10
63.998445231039355
20
46.601509308132236
30
0
40
0.99999999999999889
210
0
220
-0
230
1
0
CIRCLE
5
200
100
AcDbEntity
8
0
100
AcDbCircle
10
117.42980982105665
20
46.601509308132265
30
0
40
1.0000000000000073
210
0
220
-0
230
1
0
LINE
5
201
100
AcDbEntity
8
0
100
AcDbLine
10
115.42980982105666
20
48.601509308132258
30
0
11
115.42980982105666
21
45.601410667474298
31
0
0
CIRCLE
5
202
100
AcDbEntity
8
0
100
AcDbCircle
10
168.57056579000411
20
-58.101823187835848
30
0
40
1.0000000000000091
210
0
220
-0
230
1
0
CIRCLE
5
203
100
AcDbEntity
8
0
100
AcDbCircle
10
45.200752218278886
20
-21.868864718300838
30
0
40
1.4999999999999971
210
0
220
-0
230
1
0
LINE
5
204
100
AcDbEntity
8
0
100
AcDbLine
10
47.095253764396972
20
-15.838251906962428
30
0
11
42.111626232490991
21
-17.953676287625953
31
0
0
ARC
5
205
100
AcDbEntity
8
0
100
AcDbCircle
10
42.111626232490956
20
-21.953676287625797
30
0
40
3.9999999999998614
210
0
220
-0
230
1
100
AcDbArc
50
89.999999999999503
51
269.99999999999949
0
LINE
5
206
100
AcDbEntity
8
0
100
AcDbLine
10
42.11162623249092
20
-25.953676287625662
30
0
11
47.095253764397114
21
-28.069100668287945
31
0
0
ARC
5
207
100
AcDbEntity
8
0
100
AcDbCircle
10
30.160626232491119
20
-21.953676287625985
30
0
40
18.004999999999505
210
0
220
0
230
1
100
AcDbArc
50
199.79462023946056
51
340.1443599707564
0
LINE
5
208
100
AcDbEntity
8
0
100
AcDbLine
10
13.21949540161155
20
-28.051061888931194
30
0
11
18.160626232491516
21
-25.953676287625981
31
0
0
CIRCLE
5
209
100
AcDbEntity
8
0
100
AcDbCircle
10
30.200991031838711
20
21.601312026816295
30
0
40
20
210
0
220
-0
230
1
0
CIRCLE
5
210
100
AcDbEntity
8
0
100
AcDbCircle
10
-30.201213300505707
20
21.601312026816281
30
0
40
20
210
0
220
-0
230
1
0
ARC
5
211
100
AcDbEntity
8
0
100
AcDbCircle
10
18.160626232491552
20
-21.953676287626138
30
0
40
3.9999999999998437
210
0
220
0
230
1
100
AcDbArc
50
-90.000000000000512
51
89.999999999999503
0
CIRCLE
5
212
100
AcDbEntity
8
0
100
AcDbCircle
10
15.200991031838598
20
-21.869687973183709
30
0
40
1.4999999999999971
210
0
220
-0
230
1
0
LINE
5
213
100
AcDbEntity
8
0
100
AcDbLine
10
18.160626232491587
20
-17.953676287626294
30
0
11
13.21949540161186
21
-15.856290686320724
31
0
0
ARC
5
214
100
AcDbEntity
8
0
100
AcDbCircle
10
30.160626232491509
20
-21.953676287625985
30
0
40
18.004999999999576
210
0
220
-0
230
1
100
AcDbArc
50
19.85564002924901
51
160.20537976053939
0
CIRCLE
5
215
100
AcDbEntity
8
0
100
AcDbCircle
10
30.200991031838591
20
-21.953507200300759
30
0
40
19.999999999999496
210
0
220
-0
230
1
0
LINE
5
216
100
AcDbEntity
8
0
100
AcDbLine
10
30.200991031838591
20
-21.953507200300759
30
0
11
10.200991031839104
21
-21.953507200300997
31
0
0
LINE
5
217
100
AcDbEntity
8
0
100
AcDbLine
10
30.160626232491509
20
-21.953676287625985
30
0
11
50.200991031838072
21
-21.953507200301033
31
0
0
LINE
5
218
100
AcDbEntity
8
0
100
AcDbLine
10
30.200991031838711
20
21.601312026816295
30
0
11
30.200991031838733
21
1.601312026816295
31
0
0
LINE
5
219
100
AcDbEntity
8
0
100
AcDbLine
10
30.200991031838711
20
21.601312026816295
30
0
11
30.200991031838711
21
41.601312026816295
31
0
0
LINE
5
220
100
AcDbEntity
8
0
100
AcDbLine
10
30.200991031838711
20
21.601312026816295
30
0
11
50.200991031838711
21
21.601312026816302
31
0
0
LINE
5
221
100
AcDbEntity
8
0
100
AcDbLine
10
30.200991031838711
20
21.601312026816064
30
0
11
10.200991031838713
21
21.60131202681605
31
0
0
LINE
5
222
100
AcDbEntity
8
0
100
AcDbLine
10
-30.201213300505707
20
21.60131202681605
30
0
11
-10.201213300505705
21
21.601312026816046
31
0
0
LINE
5
223
100
AcDbEntity
8
0
100
AcDbLine
10
-30.201213300505707
20
21.601312026816281
30
0
11
-30.201213300505714
21
41.601312026816274
31
0
0
LINE
5
224
100
AcDbEntity
8
0
100
AcDbLine
10
-30.201213300505707
20
21.601312026816281
30
0
11
-50.201213300505714
21
21.601312026816281
31
0
0
LINE
5
225
100
AcDbEntity
8
0
100
AcDbLine
10
-30.201213300505707
20
21.601312026816281
30
0
11
-30.201213300505714
21
1.6013120268162817
31
0
0
LINE
5
226
100
AcDbEntity
8
0
100
AcDbLine
10
10.200991031838713
20
21.60131202681605
30
0
11
10.200991031839104
21
-21.953507200301004
31
0
0
LINE
5
227
100
AcDbEntity
8
0
100
AcDbLine
10
50.200991031838711
20
21.601312026816302
30
0
11
50.200991031838072
21
-21.953507200301033
31
0
0
LINE
5
228
100
AcDbEntity
8
0
100
AcDbLine
10
-10.201213300505705
20
21.601312026816046
30
0
11
-10.201213300506078
21
-21.953507200301008
31
0
0
LINE
5
229
100
AcDbEntity
8
0
100
AcDbLine
10
-50.201213300505714
20
21.601312026816281
30
0
11
-50.20121330050506
21
-21.953507200301058
31
0
0
CIRCLE
5
230
100
AcDbEntity
8
0
100
AcDbCircle
10
-30.201213300505565
20
-21.953507200300777
30
0
40
19.999999999999496
210
0
220
-0
230
1
0
ARC
5
231
100
AcDbEntity
8
0
100
AcDbCircle
10
-30.160848501158483
20
-21.953676287626003
30
0
40
18.004999999999598
210
0
220
-0
230
1
100
AcDbArc
50
19.794620239460649
51
160.14435997075097
0
LINE
5
232
100
AcDbEntity
8
0
100
AcDbLine
10
-18.160848501158561
20
-17.953676287626301
30
0
11
-13.21971767027884
21
-15.856290686320733
31
0
0
CIRCLE
5
233
100
AcDbEntity
8
0
100
AcDbCircle
10
-15.201213300505572
20
-21.869687973183716
30
0
40
1.4999999999999971
210
0
220
-0
230
1
0
LINE
5
234
100
AcDbEntity
8
0
100
AcDbLine
10
-13.21971767027852
20
-28.051061888931201
30
0
11
-18.16084850115849
21
-25.953676287625989
31
0
0
ARC
5
235
100
AcDbEntity
8
0
100
AcDbCircle
10
-30.160848501158092
20
-21.953676287626003
30
0
40
18.00499999999953
210
0
220
0
230
1
100
AcDbArc
50
199.85564002924363
51
340.20537976053942
0
ARC
5
236
100
AcDbEntity
8
0
100
AcDbCircle
10
-18.160848501158526
20
-21.953676287626145
30
0
40
3.9999999999998437
210
0
220
0
230
1
100
AcDbArc
50
90.000000000000512
51
270.00000000000051
0
ARC
5
237
100
AcDbEntity
8
0
100
AcDbCircle
10
-42.111848501157937
20
-21.953676287625818
30
0
40
3.9999999999998437
210
-0
220
0
230
1
100
AcDbArc
50
-89.999999999999588
51
90.000000000000611
0
LINE
5
238
100
AcDbEntity
8
0
100
AcDbLine
10
-30.160848501158483
20
-21.953676287626003
30
0
11
-50.20121330050506
21
-21.953507200301061
31
0
0
LINE
5
239
100
AcDbEntity
8
0
100
AcDbLine
10
-30.201213300505565
20
-21.953507200300777
30
0
11
-10.201213300506078
21
-21.953507200301008
31
0
0
LINE
5
240
100
AcDbEntity
8
0
100
AcDbLine
10
-47.09547603306396
20
-15.838251906962446
30
0
11
-42.111848501157979
21
-17.953676287625974
31
0
0
CIRCLE
5
241
100
AcDbEntity
8
0
100
AcDbCircle
10
-45.200974486945867
20
-21.868864718300856
30
0
40
1.4999999999999971
210
0
220
-0
230
1
0
LINE
5
242
100
AcDbEntity
8
0
100
AcDbLine
10
-42.111848501157887
20
-25.953676287625676
30
0
11
-47.095476033064081
21
-28.069100668287959
31
0
0
LINE
5
243
100
AcDbEntity
8
0
100
AcDbLine
10
0.013363554736163822
20
-30.471116554565363
30
0
11
-2.7311014235237536
21
-30.471699194574953
31
0
0
LINE
5
244
100
AcDbEntity
8
0
100
AcDbLine
10
0.013363554736163822
20
-30.471116554565363
30
0
11
2.730879156071385
21
-30.471693473319498
31
0
0
LINE
5
245
100
AcDbEntity
8
0
100
AcDbLine
10
2.7407364232403424
20
10.057790421854628
30
0
11
2.730879156071385
21
-30.471693473319501
31
0
0
LINE
5
246
100
AcDbEntity
8
0
100
AcDbLine
10
-2.7311014235237536
20
-30.471699194574953
30
0
11
-2.7397054413008206
21
10.056628885835739
31
0
0
LINE
5
247
100
AcDbEntity
8
0
100
AcDbLine
10
2.7364730376457547
20
10.057791458762253
30
0
11
-2.7397054413008206
21
10.056628885835737
31
0
0
ENDSEC
0
SECTION
2
OBJECTS
0
DICTIONARY
5
C
100
AcDbDictionary
3
ACAD_GROUP
350
D
3
ACAD_MLINESTYLE
350
17
0
DICTIONARY
5
D
100
AcDbDictionary
0
DICTIONARY
5
1A
330
C
100
AcDbDictionary
0
DICTIONARY
5
17
100
AcDbDictionary
0
ENDSEC
0
EOF
