0
SECTION
2
HEADER
9
$INSUNITS
70
4
9
$ACADVER
1
AC1014
9
$HANDSEED
5
FFFF
0
ENDSEC
0
SECTION
2
TABLES
0
TABLE
2
VPORT
5
8
100
AcDbSymbolTable
0
ENDTAB
0
TABLE
2
LTYPE
5
5
100
AcDbSymbolTable
0
LTYPE
5
14
100
AcDbSymbolTableRecord
100
AcDbLinetypeTableRecord
2
BYBLOCK
70
0
0
LTYPE
5
15
100
AcDbSymbolTableRecord
100
AcDbLinetypeTableRecord
2
BYLAYER
70
0
0
ENDTAB
0
TABLE
2
LAYER
5
2
100
AcDbSymbolTable
70
2
0
LAYER
5
50
100
AcDbSymbolTableRecord
100
AcDbLayerTableRecord
2
0
70
0
6
CONTINUOUS
0
ENDTAB
0
TABLE
2
STYLE
5
3
100
AcDbSymbolTable
70
1
0
STYLE
5
11
100
AcDbSymbolTableRecord
100
AcDbTextStyleTableRecord
2
STANDARD
70
0
0
ENDTAB
0
TABLE
2
VIEW
5
6
100
AcDbSymbolTable
70
0
0
ENDTAB
0
TABLE
2
UCS
5
7
100
AcDbSymbolTable
70
0
0
ENDTAB
0
TABLE
2
APPID
5
9
100
AcDbSymbolTable
70
2
0
APPID
5
12
100
AcDbSymbolTableRecord
100
AcDbRegAppTableRecord
2
ACAD
70
0
0
ENDTAB
0
TABLE
2
DIMSTYLE
5
A
100
AcDbSymbolTable
70
1
0
ENDTAB
0
TABLE
2
BLOCK_RECORD
5
1
100
AcDbSymbolTable
70
1
0
BLOCK_RECORD
5
1F
100
AcDbSymbolTableRecord
100
AcDbBlockTableRecord
2
*MODEL_SPACE
0
BLOCK_RECORD
5
1B
100
AcDbSymbolTableRecord
100
AcDbBlockTableRecord
2
*PAPER_SPACE
0
ENDTAB
0
ENDSEC
0
SECTION
2
BLOCKS
0
BLOCK
5
20
100
AcDbEntity
100
AcDbBlockBegin
2
*MODEL_SPACE
0
ENDBLK
5
21
100
AcDbEntity
100
AcDbBlockEnd
0
BLOCK
5
1C
100
AcDbEntity
100
AcDbBlockBegin
2
*PAPER_SPACE
0
ENDBLK
5
1D
100
AcDbEntity
100
AcDbBlockEnd
0
ENDSEC
0
SECTION
2
ENTITIES
0
LINE
5
100
100
AcDbEntity
8
0
100
AcDbLine
10
-186.08003188690975
20
37.223635471827109
30
0
11
-186.08003188690975
21
-26.776364528172891
31
0
0
LINE
5
101
100
AcDbEntity
8
0
100
AcDbLine
10
-186.08003188690975
20
-26.776364528172891
30
0
11
-183.06845229633697
21
-26.776364528172891
31
0
0
LINE
5
102
100
AcDbEntity
8
0
100
AcDbLine
10
-183.06845229633697
20
-26.776364528172891
30
0
11
-183.06845229633697
21
-61.599598640657973
31
0
0
LINE
5
103
100
AcDbEntity
8
0
100
AcDbLine
10
-143.98773876667292
20
-63.599598640657973
30
0
11
-181.068452296337
21
-63.599598640657973
31
0
0
LINE
5
104
100
AcDbEntity
8
0
100
AcDbLine
10
-125.01564005624125
20
-80.064847877138092
30
0
11
-139.74820737891542
21
-65.353850931217522
31
0
0
LINE
5
105
100
AcDbEntity
8
0
100
AcDbLine
10
-123.60246292698875
20
-80.649598640657956
30
0
11
-118.42790617471606
21
-80.649598640657956
31
0
0
LINE
5
106
100
AcDbEntity
8
0
100
AcDbLine
10
-118.42790617471606
20
-84.64959864065797
30
0
11
-118.42790617471606
21
-80.649598640657956
31
0
0
LINE
5
107
100
AcDbEntity
8
0
100
AcDbLine
10
-102.42790617471606
20
-84.64959864065797
30
0
11
-118.42790617471606
21
-84.64959864065797
31
0
0
LINE
5
108
100
AcDbEntity
8
0
100
AcDbLine
10
-102.42790617471606
20
-84.64959864065797
30
0
11
-86.427906174716057
21
-84.64959864065797
31
0
0
LINE
5
109
100
AcDbEntity
8
0
100
AcDbLine
10
-86.427906174716057
20
-84.64959864065797
30
0
11
-86.427906174716057
21
-80.649598640657956
31
0
0
LINE
5
110
100
AcDbEntity
8
0
100
AcDbLine
10
-86.427906174716057
20
-80.649598640657956
30
0
11
-81.224135365889538
21
-80.649598640657956
31
0
0
LINE
5
111
100
AcDbEntity
8
0
100
AcDbLine
10
-32.473379720723521
20
-100.8947563941924
30
0
11
-80.684555073398485
21
-80.757757664393722
31
0
0
LINE
5
112
100
AcDbEntity
8
0
100
AcDbLine
10
-29.88993515737727
20
-99.894505808724915
30
0
11
-23.999644883069912
21
-87.262737551662681
31
0
0
LINE
5
113
100
AcDbEntity
8
0
100
AcDbLine
10
-20.374413734923301
20
-88.953210598625461
30
0
11
-23.999644883069912
21
-87.262737551662681
31
0
0
LINE
5
114
100
AcDbEntity
8
0
100
AcDbLine
10
-14.035139808812806
20
-75.358593793075727
30
0
11
-20.374413734923301
21
-88.953210598625461
31
0
0
LINE
5
115
100
AcDbEntity
8
0
100
AcDbLine
10
-14.035139808812806
20
-75.358593793075727
30
0
11
-7.6958658827023037
21
-61.763976987525986
31
0
0
LINE
5
116
100
AcDbEntity
8
0
100
AcDbLine
10
-7.6958658827023037
20
-61.763976987525986
30
0
11
-11.321097030848883
21
-60.073503940563199
31
0
0
LINE
5
117
100
AcDbEntity
8
0
100
AcDbLine
10
-11.321097030848883
20
-60.073503940563199
30
0
11
-4.6192697874484079
21
-45.70138903703139
31
0
0
LINE
5
118
100
AcDbEntity
8
0
100
AcDbLine
10
-4.6192697874484079
20
-45.70138903703139
30
0
11
-2.5061784787449004
21
-41.16985010184812
31
0
0
LINE
5
119
100
AcDbEntity
8
0
100
AcDbLine
10
-3.4735575293368015
20
-38.511998004293424
30
0
11
-15.201111134333507
21
-33.043349946860197
31
0
0
LINE
5
120
100
AcDbEntity
8
0
100
AcDbLine
10
-15.201111134333507
20
-16.024412235095458
30
0
11
-15.201111134333507
21
-33.043349946860197
31
0
0
LINE
5
121
100
AcDbEntity
8
0
100
AcDbLine
10
-11.201111134333505
20
-16.024412235095458
30
0
11
-15.201111134333507
21
-16.024412235095458
31
0
0
LINE
5
122
100
AcDbEntity
8
0
100
AcDbLine
10
-11.201111134333502
20
47.975587764904546
30
0
11
-15.201111134333502
21
47.975587764904546
31
0
0
LINE
5
123
100
AcDbEntity
8
0
100
AcDbLine
10
-15.2011111343335
20
55.599401359342025
30
0
11
-15.201111134333502
21
47.975587764904546
31
0
0
LINE
5
124
100
AcDbEntity
8
0
100
AcDbLine
10
-25.201111134333498
20
57.599401359342039
30
0
11
-17.201111134333502
21
57.599401359342025
31
0
0
LINE
5
125
100
AcDbEntity
8
0
100
AcDbLine
10
-25.201111134333498
20
57.599401359342039
30
0
11
-25.201111134333502
21
63.599598640657959
31
0
0
LINE
5
126
100
AcDbEntity
8
0
100
AcDbLine
10
-172.08003188690978
20
57.599401359342039
30
0
11
-172.08003188690978
21
63.599598640657973
31
0
0
LINE
5
127
100
AcDbEntity
8
0
100
AcDbLine
10
-182.08003188690978
20
37.223635471827109
30
0
11
-186.08003188690975
21
37.223635471827109
31
0
0
LINE
5
128
100
AcDbEntity
8
0
100
AcDbLine
10
-182.08003188690978
20
55.599401359342039
30
0
11
-182.08003188690978
21
37.223635471827109
31
0
0
LINE
5
129
100
AcDbEntity
8
0
100
AcDbLine
10
-124.43003188690977
20
63.599598640657966
30
0
11
-172.08003188690978
21
63.599598640657973
31
0
0
LINE
5
130
100
AcDbEntity
8
0
100
AcDbLine
10
-172.08003188690978
20
57.599401359342039
30
0
11
-180.08003188690978
21
57.599401359342039
31
0
0
LINE
5
131
100
AcDbEntity
8
0
100
AcDbLine
10
-74.998667296892478
20
57.599401359342039
30
0
11
-124.43003188690977
21
57.599401359342039
31
0
0
LINE
5
132
100
AcDbEntity
8
0
100
AcDbLine
10
-124.43003188690977
20
57.599401359342039
30
0
11
-124.43003188690977
21
63.599598640657966
31
0
0
LINE
5
133
100
AcDbEntity
8
0
100
AcDbLine
10
-25.201111134333502
20
63.599598640657959
30
0
11
-74.998667296892478
21
63.599598640657966
31
0
0
LINE
5
134
100
AcDbEntity
8
0
100
AcDbLine
10
-74.998667296892478
20
57.599401359342039
30
0
11
-74.998667296892478
21
63.599598640657966
31
0
0
CIRCLE
5
135
100
AcDbEntity
8
0
100
AcDbCircle
10
-71.998667296892492
20
60.599598640657966
30
0
40
0.99999999999999889
210
0
220
-0
230
1
0
CIRCLE
5
136
100
AcDbEntity
8
0
100
AcDbCircle
10
-127.43003188690977
20
60.599598640657966
30
0
40
1.0000000000000073
210
0
220
-0
230
1
0
CIRCLE
5
137
100
AcDbEntity
8
0
100
AcDbCircle
10
-179.08003188690975
20
54.599401359342039
30
0
40
1
210
0
220
-0
230
1
0
CIRCLE
5
138
100
AcDbEntity
8
0
100
AcDbCircle
10
-18.201111134333502
20
54.599401359342032
30
0
40
0.99999999999999656
210
0
220
-0
230
1
0
CIRCLE
5
139
100
AcDbEntity
8
0
100
AcDbCircle
10
-13.201111134333502
20
15.975587764904544
30
0
40
1
210
0
220
-0
230
1
0
CIRCLE
5
140
100
AcDbEntity
8
0
100
AcDbCircle
10
-15.847755382886104
20
-74.513357269594337
30
0
40
0.99999999999999711
210
0
220
-0
230
1
0
CIRCLE
5
141
100
AcDbEntity
8
0
100
AcDbCircle
10
-102.42790617471606
20
-82.649598640657985
30
0
40
1.1000000000000005
210
0
220
-0
230
1
0
CIRCLE
5
142
100
AcDbEntity
8
0
100
AcDbCircle
10
-180.06845229633697
20
-60.599598640657973
30
0
40
1.0000000000000091
210
0
220
-0
230
1
0
CIRCLE
5
143
100
AcDbEntity
8
0
100
AcDbCircle
10
-25.201213097691681
20
-6.8715986406579521
30
0
40
1.4999999999999971
210
0
220
-0
230
1
0
CIRCLE
5
144
100
AcDbEntity
8
0
100
AcDbCircle
10
-55.200974284131981
20
-6.8707753857751008
30
0
40
1.4999999999999971
210
0
220
-0
230
1
0
CIRCLE
5
145
100
AcDbEntity
8
0
100
AcDbCircle
10
-40.201213097691678
20
-6.9554178677750134
30
0
40
19.999999999999496
210
0
220
-0
230
1
0
LWPOLYLINE
5
146
100
AcDbEntity
8
0
100
AcDbPolyline
90
8
70
1
43
0.0
10
-23.219717467464946
20
-0.85820135379497287
42
0.7024841970410064
10
-57.095475830250081
20
-0.84016257443669196
10
-52.111848298344086
20
-2.9555869551002178
42
-0.99999999999999989
10
-52.111848298344015
20
-10.955586955099905
10
-57.095475830250209
20
-13.071011335762206
42
0.70248419704104159
10
-23.219717467464605
20
-13.052972556405447
10
-28.160848298344597
20
-10.955586955100225
42
-0.99999999999999989
10
-28.160848298344668
20
-2.9555869551005376
0
LINE
5
147
100
AcDbEntity
8
0
100
AcDbLine
10
-11.201111134333502
20
45.018434684458015
30
0
11
-0.00011113433350029567
21
45.018434684458015
31
0
0
LINE
5
148
100
AcDbEntity
8
0
100
AcDbLine
10
-0.00011113433350029567
20
38.018434684458015
30
0
11
-11.201111134333502
21
38.018434684458015
31
0
0
LINE
5
149
100
AcDbEntity
8
0
100
AcDbLine
10
-11.201111134333503
20
19.233193376284483
30
0
11
-0.00011113433350251611
21
19.233193376284483
31
0
0
LINE
5
150
100
AcDbEntity
8
0
100
AcDbLine
10
-0.00011113433350140589
20
12.233193376284479
30
0
11
-11.201111134333503
21
12.233193376284479
31
0
0
LINE
5
151
100
AcDbEntity
8
0
100
AcDbLine
10
-11.201111134333503
20
-7.2078966688208892
30
0
11
0
21
-7.2078966688208892
31
0
0
LINE
5
152
100
AcDbEntity
8
0
100
AcDbLine
10
-11.201111134333505
20
-14.207896668820887
30
0
11
0
21
-14.207896668820892
31
0
0
CIRCLE
5
153
100
AcDbEntity
8
0
100
AcDbCircle
10
-40.201213097691813
20
36.599401359342039
30
0
40
20
210
0
220
-0
230
1
0
LINE
5
154
100
AcDbEntity
8
0
100
AcDbLine
10
-0.00011113433350029567
20
38.018434684458015
30
0
11
-0.00011113433349918544
21
33.000000491738319
31
0
0
ARC
5
155
100
AcDbEntity
8
0
100
AcDbCircle
10
-4.3187940528181947
20
-40.324613578366723
30
0
40
1.9999999999999951
210
-0
220
0
230
1
100
AcDbArc
50
-25.000000000000025
51
65.000000000000128
0
ARC
5
156
100
AcDbEntity
8
0
100
AcDbCircle
10
-31.702550731450568
20
-99.04926928524354
30
0
40
1.9999999999999911
210
0
220
0
230
1
100
AcDbArc
50
247.33052499586631
51
335.00000000000057
0
ARC
5
157
100
AcDbEntity
8
0
100
AcDbCircle
10
-181.068452296337
20
-61.599598640657987
30
0
40
1.9999999999999929
210
0
220
-0
230
1
100
AcDbArc
50
180
51
270
0
ARC
5
158
100
AcDbEntity
8
0
100
AcDbCircle
10
-180.08003188690978
20
55.599401359342053
30
0
40
1.999999999999984
210
0
220
-0
230
1
100
AcDbArc
50
90
51
180
0
ARC
5
159
100
AcDbEntity
8
0
100
AcDbCircle
10
-17.201111134333516
20
55.599401359342018
30
0
40
2.0000000000000151
210
0
220
-0
230
1
100
AcDbArc
50
0
51
89.999999999999588
0
ARC
5
160
100
AcDbEntity
8
0
100
AcDbCircle
10
-123.60246292698874
20
-78.649598640657942
30
0
40
2.0000000000000138
210
0
220
0
230
1
100
AcDbArc
50
225.04197492253664
51
269.9999999999996
0
ARC
5
161
100
AcDbEntity
8
0
100
AcDbCircle
10
-143.98773876667289
20
-69.599598640657916
30
0
40
5.9999999999999414
210
0
220
-0
230
1
100
AcDbArc
50
45.041974922536838
51
90.00000000000027
0
ARC
5
162
100
AcDbEntity
8
0
100
AcDbCircle
10
-81.224135365889566
20
-82.049598640658047
30
0
40
1.400000000000108
210
0
220
-0
230
1
100
AcDbArc
50
67.330524995867705
51
89.999999999998849
0
LINE
5
163
100
AcDbEntity
8
0
100
AcDbLine
10
-11.201111134333503
20
19.233193376284483
30
0
11
-11.201111134333502
21
38.018434684458015
31
0
0
LINE
5
164
100
AcDbEntity
8
0
100
AcDbLine
10
-11.201111134333502
20
45.018434684458015
30
0
11
-11.201111134333502
21
47.975587764904546
31
0
0
LINE
5
165
100
AcDbEntity
8
0
100
AcDbLine
10
-11.201111134333503
20
12.233193376284479
30
0
11
-11.201111134333503
21
-7.2078966688208892
31
0
0
LINE
5
166
100
AcDbEntity
8
0
100
AcDbLine
10
-11.201111134333505
20
-14.207896668820887
30
0
11
-11.201111134333505
21
-16.024412235095458
31
0
0
LINE
5
167
100
AcDbEntity
8
0
100
AcDbLine
10
124.42980961824276
20
57.599401359342089
30
0
11
124.42980961824276
21
63.599598640658016
31
0
0
LINE
5
168
100
AcDbEntity
8
0
100
AcDbLine
10
124.42980961824276
20
63.599598640658016
30
0
11
172.07980961824279
21
63.599598640658058
31
0
0
LINE
5
169
100
AcDbEntity
8
0
100
AcDbLine
10
186.07980961824279
20
37.223635471827194
30
0
11
186.07980961824279
21
-26.776364528172813
31
0
0
LINE
5
170
100
AcDbEntity
8
0
100
AcDbLine
10
15.200888865666528
20
-16.024412235095447
30
0
11
15.200888865666538
21
-33.043349946860189
31
0
0
CIRCLE
5
171
100
AcDbEntity
8
0
100
AcDbCircle
10
127.42980961824276
20
60.59959864065803
30
0
40
1.0000000000000073
210
0
220
-0
230
1
0
LWPOLYLINE
5
172
100
AcDbEntity
8
0
100
AcDbPolyline
90
8
70
1
43
0.0
10
52.111626029677026
20
-10.955586955099879
10
57.095253561583206
20
-13.071011335762178
42
-0.70248419704104137
10
23.219495198797631
20
-13.052972556405438
10
28.160626029677616
20
-10.955586955100216
42
0.99999999999999989
10
28.160626029677687
20
-2.9555869551005287
10
23.219495198797961
20
-0.85820135379496731
42
-0.70248419704100618
10
57.095253561583093
20
-0.84016257443666476
10
52.111626029677097
20
-2.9555869551001912
42
0.99999999999999989
0
CIRCLE
5
173
100
AcDbEntity
8
0
100
AcDbCircle
10
179.07980961824279
20
54.599401359342117
30
0
40
1
210
0
220
-0
230
1
0
ARC
5
174
100
AcDbEntity
8
0
100
AcDbCircle
10
180.07980961824279
20
55.599401359342131
30
0
40
1.9999999999999929
210
-0
220
0
230
1
100
AcDbArc
50
0
51
90
0
LINE
5
175
100
AcDbEntity
8
0
100
AcDbLine
10
102.42768390604911
20
-84.649598640657914
30
0
11
86.427683906049126
21
-84.649598640657928
31
0
0
LINE
5
176
100
AcDbEntity
8
0
100
AcDbLine
10
74.998445028225476
20
57.599401359342075
30
0
11
124.42980961824276
21
57.599401359342089
31
0
0
LINE
5
177
100
AcDbEntity
8
0
100
AcDbLine
10
183.06823002767001
20
-26.776364528172813
30
0
11
183.06823002767007
21
-61.599598640657888
31
0
0
LINE
5
178
100
AcDbEntity
8
0
100
AcDbLine
10
11.200888865666517
20
12.233193376284483
30
0
11
11.200888865666524
21
-7.2078966688208812
31
0
0
LINE
5
179
100
AcDbEntity
8
0
100
AcDbLine
10
102.42768390604911
20
-84.649598640657914
30
0
11
118.42768390604911
21
-84.649598640657914
31
0
0
LINE
5
180
100
AcDbEntity
8
0
100
AcDbLine
10
86.427683906049083
20
-80.649598640657914
30
0
11
81.223913097222578
21
-80.649598640657914
31
0
0
LINE
5
181
100
AcDbEntity
8
0
100
AcDbLine
10
86.427683906049126
20
-84.649598640657928
30
0
11
86.427683906049083
21
-80.649598640657914
31
0
0
LINE
5
182
100
AcDbEntity
8
0
100
AcDbLine
10
172.07980961824279
20
57.599401359342117
30
0
11
180.07980961824279
21
57.599401359342117
31
0
0
CIRCLE
5
183
100
AcDbEntity
8
0
100
AcDbCircle
10
55.200752015464985
20
-6.8707753857750742
30
0
40
1.4999999999999971
210
0
220
-0
230
1
0
LINE
5
184
100
AcDbEntity
8
0
100
AcDbLine
10
172.07980961824279
20
57.599401359342117
30
0
11
172.07980961824279
21
63.599598640658058
31
0
0
LINE
5
185
100
AcDbEntity
8
0
100
AcDbLine
10
118.42768390604911
20
-84.649598640657914
30
0
11
118.42768390604908
21
-80.649598640657899
31
0
0
ARC
5
186
100
AcDbEntity
8
0
100
AcDbCircle
10
81.223913097222592
20
-82.049598640658004
30
0
40
1.4000000000000945
210
0
220
0
230
1
100
AcDbArc
50
90.000000000000583
51
112.66947500413252
0
ARC
5
187
100
AcDbEntity
8
0
100
AcDbCircle
10
123.60224065832176
20
-78.649598640657885
30
0
40
2.0000000000000107
210
0
220
0
230
1
100
AcDbArc
50
270.0000000000004
51
314.95802507746333
0
CIRCLE
5
188
100
AcDbEntity
8
0
100
AcDbCircle
10
102.42768390604911
20
-82.649598640657928
30
0
40
1.1000000000000005
210
0
220
-0
230
1
0
LINE
5
189
100
AcDbEntity
8
0
100
AcDbLine
10
125.01541778757428
20
-80.064847877138035
30
0
11
139.74798511024844
21
-65.353850931217465
31
0
0
LINE
5
190
100
AcDbEntity
8
0
100
AcDbLine
10
182.07980961824279
20
55.599401359342117
30
0
11
182.07980961824279
21
37.223635471827194
31
0
0
LINE
5
191
100
AcDbEntity
8
0
100
AcDbLine
10
182.07980961824279
20
37.223635471827194
30
0
11
186.07980961824279
21
37.223635471827194
31
0
0
LINE
5
192
100
AcDbEntity
8
0
100
AcDbLine
10
15.20088886566649
20
55.599401359342039
30
0
11
15.200888865666498
21
47.975587764904553
31
0
0
CIRCLE
5
193
100
AcDbEntity
8
0
100
AcDbCircle
10
13.20088886566651
20
15.975587764904549
30
0
40
1
210
0
220
-0
230
1
0
LINE
5
194
100
AcDbEntity
8
0
100
AcDbLine
10
11.200888865666528
20
-14.207896668820874
30
0
11
-0.00022226866697748341
21
-14.207896668820892
31
0
0
LINE
5
195
100
AcDbEntity
8
0
100
AcDbLine
10
25.200888865666492
20
63.599598640657966
30
0
11
74.998445028225461
21
63.599598640658002
31
0
0
ARC
5
196
100
AcDbEntity
8
0
100
AcDbCircle
10
17.200888865666506
20
55.599401359342025
30
0
40
2.0000000000000107
210
0
220
0
230
1
100
AcDbArc
50
90.000000000000398
51
180
0
LINE
5
197
100
AcDbEntity
8
0
100
AcDbLine
10
11.200888865666496
20
45.018434684458022
30
0
11
-0.00011113433350339288
21
45.018434684458015
31
0
0
LINE
5
198
100
AcDbEntity
8
0
100
AcDbLine
10
-0.00011113433348777655
20
12.233193376284479
30
0
11
11.200888865666517
21
12.233193376284483
31
0
0
CIRCLE
5
199
100
AcDbEntity
8
0
100
AcDbCircle
10
71.998445028225461
20
60.599598640657995
30
0
40
0.99999999999999889
210
0
220
-0
230
1
0
CIRCLE
5
200
100
AcDbEntity
8
0
100
AcDbCircle
10
25.200990829024697
20
-6.8715986406579432
30
0
40
1.4999999999999971
210
0
220
-0
230
1
0
LINE
5
201
100
AcDbEntity
8
0
100
AcDbLine
10
-0.00011113433350029567
20
38.018434684458015
30
0
11
11.200888865666501
21
38.018434684458015
31
0
0
LINE
5
202
100
AcDbEntity
8
0
100
AcDbLine
10
11.200888865666496
20
45.018434684458022
30
0
11
11.200888865666496
21
47.975587764904546
31
0
0
LINE
5
203
100
AcDbEntity
8
0
100
AcDbLine
10
11.200888865666528
20
-16.024412235095447
30
0
11
15.200888865666528
21
-16.024412235095447
31
0
0
LINE
5
204
100
AcDbEntity
8
0
100
AcDbLine
10
25.200888865666489
20
57.599401359342046
30
0
11
17.200888865666492
21
57.599401359342039
31
0
0
LINE
5
205
100
AcDbEntity
8
0
100
AcDbLine
10
74.998445028225476
20
57.599401359342075
30
0
11
74.998445028225461
21
63.599598640658002
31
0
0
LINE
5
206
100
AcDbEntity
8
0
100
AcDbLine
10
11.200888865666496
20
47.975587764904546
30
0
11
15.200888865666498
21
47.975587764904553
31
0
0
CIRCLE
5
207
100
AcDbEntity
8
0
100
AcDbCircle
10
18.200888865666492
20
54.599401359342039
30
0
40
0.99999999999999656
210
0
220
-0
230
1
0
CIRCLE
5
208
100
AcDbEntity
8
0
100
AcDbCircle
10
40.200990829024818
20
36.59940135934206
30
0
40
20
210
0
220
-0
230
1
0
LINE
5
209
100
AcDbEntity
8
0
100
AcDbLine
10
11.200888865666528
20
-14.207896668820874
30
0
11
11.200888865666528
21
-16.024412235095447
31
0
0
ARC
5
210
100
AcDbEntity
8
0
100
AcDbCircle
10
31.70232846278363
20
-99.049269285243525
30
0
40
1.9999999999999862
210
0
220
0
230
1
100
AcDbArc
50
204.99999999999901
51
292.66947500413386
0
LINE
5
211
100
AcDbEntity
8
0
100
AcDbLine
10
11.200888865666512
20
19.233193376284486
30
0
11
11.200888865666501
21
38.018434684458015
31
0
0
LINE
5
212
100
AcDbEntity
8
0
100
AcDbLine
10
25.200888865666489
20
57.599401359342046
30
0
11
25.200888865666492
21
63.599598640657966
31
0
0
LINE
5
213
100
AcDbEntity
8
0
100
AcDbLine
10
11.200888865666512
20
19.233193376284486
30
0
11
-0.00011113433348976354
21
19.233193376284483
31
0
0
LINE
5
214
100
AcDbEntity
8
0
100
AcDbLine
10
11.200888865666524
20
-7.2078966688208812
30
0
11
-0.0002222686669805806
21
-7.2078966688208901
31
0
0
LINE
5
215
100
AcDbEntity
8
0
100
AcDbLine
10
20.374191466256356
20
-88.953210598625446
30
0
11
23.999422614402963
21
-87.262737551662667
31
0
0
LINE
5
216
100
AcDbEntity
8
0
100
AcDbLine
10
29.889712888710331
20
-99.894505808724887
30
0
11
23.999422614402963
21
-87.262737551662667
31
0
0
LINE
5
217
100
AcDbEntity
8
0
100
AcDbLine
10
3.4733352606698342
20
-38.511998004293424
30
0
11
15.200888865666538
21
-33.043349946860189
31
0
0
LINE
5
218
100
AcDbEntity
8
0
100
AcDbLine
10
32.473157452056583
20
-100.89475639419237
30
0
11
80.684332804731511
21
-80.757757664393694
31
0
0
LINE
5
219
100
AcDbEntity
8
0
100
AcDbLine
10
4.6190475187814437
20
-45.70138903703139
30
0
11
2.5059562100779353
21
-41.16985010184812
31
0
0
LINE
5
220
100
AcDbEntity
8
0
100
AcDbLine
10
7.6956436140353475
20
-61.763976987525986
30
0
11
11.320874762181926
21
-60.073503940563185
31
0
0
ARC
5
221
100
AcDbEntity
8
0
100
AcDbCircle
10
4.3185717841512288
20
-40.324613578366723
30
0
40
1.9999999999999918
210
0
220
0
230
1
100
AcDbArc
50
114.99999999999991
51
205.00000000000003
0
CIRCLE
5
222
100
AcDbEntity
8
0
100
AcDbCircle
10
40.20099082902469
20
-6.9554178677749956
30
0
40
19.999999999999496
210
0
220
-0
230
1
0
CIRCLE
5
223
100
AcDbEntity
8
0
100
AcDbCircle
10
180.06823002767007
20
-60.599598640657902
30
0
40
1.0000000000000091
210
0
220
-0
230
1
0
LINE
5
224
100
AcDbEntity
8
0
100
AcDbLine
10
123.60224065832178
20
-80.649598640657899
30
0
11
118.42768390604908
21
-80.649598640657899
31
0
0
LINE
5
225
100
AcDbEntity
8
0
100
AcDbLine
10
14.034917540145855
20
-75.358593793075727
30
0
11
7.6956436140353475
21
-61.763976987525986
31
0
0
LINE
5
226
100
AcDbEntity
8
0
100
AcDbLine
10
186.07980961824279
20
-26.776364528172813
30
0
11
183.06823002767001
21
-26.776364528172813
31
0
0
LINE
5
227
100
AcDbEntity
8
0
100
AcDbLine
10
14.034917540145855
20
-75.358593793075727
30
0
11
20.374191466256356
21
-88.953210598625446
31
0
0
CIRCLE
5
228
100
AcDbEntity
8
0
100
AcDbCircle
10
15.847533114219152
20
-74.513357269594337
30
0
40
0.99999999999999711
210
0
220
-0
230
1
0
LINE
5
229
100
AcDbEntity
8
0
100
AcDbLine
10
143.98751649800596
20
-63.599598640657916
30
0
11
181.0682300276701
21
-63.599598640657895
31
0
0
ARC
5
230
100
AcDbEntity
8
0
100
AcDbCircle
10
181.0682300276701
20
-61.599598640657902
30
0
40
1.9999999999999929
210
-0
220
0
230
1
100
AcDbArc
50
-90
51
0
0
ARC
5
231
100
AcDbEntity
8
0
100
AcDbCircle
10
143.98751649800593
20
-69.59959864065786
30
0
40
5.9999999999999432
210
0
220
-0
230
1
100
AcDbArc
50
89.99999999999973
51
134.95802507746336
0
LINE
5
232
100
AcDbEntity
8
0
100
AcDbLine
10
11.320874762181926
20
-60.073503940563185
30
0
11
4.6190475187814437
21
-45.70138903703139
31
0
0
ENDSEC
0
SECTION
2
OBJECTS
0
DICTIONARY
5
C
100
AcDbDictionary
3
ACAD_GROUP
350
D
3
ACAD_MLINESTYLE
350
17
0
DICTIONARY
5
D
100
AcDbDictionary
0
DICTIONARY
5
1A
330
C
100
AcDbDictionary
0
DICTIONARY
5
17
100
AcDbDictionary
0
ENDSEC
0
EOF
