0
SECTION
2
HEADER
9
$INSUNITS
70
4
9
$ACADVER
1
AC1014
9
$HANDSEED
5
FFFF
0
ENDSEC
0
SECTION
2
TABLES
0
TABLE
2
VPORT
5
8
100
AcDbSymbolTable
0
ENDTAB
0
TABLE
2
LTYPE
5
5
100
AcDbSymbolTable
0
LTYPE
5
14
100
AcDbSymbolTableRecord
100
AcDbLinetypeTableRecord
2
BYBLOCK
70
0
0
LTYPE
5
15
100
AcDbSymbolTableRecord
100
AcDbLinetypeTableRecord
2
BYLAYER
70
0
0
ENDTAB
0
TABLE
2
LAYER
5
2
100
AcDbSymbolTable
70
2
0
LAYER
5
50
100
AcDbSymbolTableRecord
100
AcDbLayerTableRecord
2
0
70
0
6
CONTINUOUS
0
ENDTAB
0
TABLE
2
STYLE
5
3
100
AcDbSymbolTable
70
1
0
STYLE
5
11
100
AcDbSymbolTableRecord
100
AcDbTextStyleTableRecord
2
STANDARD
70
0
0
ENDTAB
0
TABLE
2
VIEW
5
6
100
AcDbSymbolTable
70
0
0
ENDTAB
0
TABLE
2
UCS
5
7
100
AcDbSymbolTable
70
0
0
ENDTAB
0
TABLE
2
APPID
5
9
100
AcDbSymbolTable
70
2
0
APPID
5
12
100
AcDbSymbolTableRecord
100
AcDbRegAppTableRecord
2
ACAD
70
0
0
ENDTAB
0
TABLE
2
DIMSTYLE
5
A
100
AcDbSymbolTable
70
1
0
ENDTAB
0
TABLE
2
BLOCK_RECORD
5
1
100
AcDbSymbolTable
70
1
0
BLOCK_RECORD
5
1F
100
AcDbSymbolTableRecord
100
AcDbBlockTableRecord
2
*MODEL_SPACE
0
BLOCK_RECORD
5
1B
100
AcDbSymbolTableRecord
100
AcDbBlockTableRecord
2
*PAPER_SPACE
0
ENDTAB
0
ENDSEC
0
SECTION
2
BLOCKS
0
BLOCK
5
20
100
AcDbEntity
100
AcDbBlockBegin
2
*MODEL_SPACE
0
ENDBLK
5
21
100
AcDbEntity
100
AcDbBlockEnd
0
BLOCK
5
1C
100
AcDbEntity
100
AcDbBlockBegin
2
*PAPER_SPACE
0
ENDBLK
5
1D
100
AcDbEntity
100
AcDbBlockEnd
0
ENDSEC
0
SECTION
2
ENTITIES
0
LWPOLYLINE
5
100
100
AcDbEntity
8
0
100
AcDbPolyline
90
84
70
1
43
0.0
10
4.7202936087628853
20
-59.301659201965848
10
6.200889068480441
20
-58.611246200470021
10
6.3134550218883776
20
-41.796901050062878
10
2.7284799505144433
20
-41.772900939844902
10
2.7293930801545989
20
-37.471699036830806
10
-2.7296153488215662
20
-37.471699036830806
10
-2.7287022191814083
20
-41.772900939844902
10
-6.3136772905553427
20
-41.796901050062878
10
-6.2011113371473989
20
-58.611246200470021
10
-4.7205158774298379
20
-59.301659201965833
42
-0.41421356237309775
10
-3.5112920641899583
20
-62.623974323909209
10
-6.124661589329067
20
-68.228363356418782
10
-2.4994304411824908
20
-69.918836403381576
10
-5.0351400116267033
20
-75.356683125601492
10
-15.177978293403505
20
-97.108070014481058
10
-18.803209441550127
20
-95.41759696751825
10
-20.687051117917893
20
-99.457508479633304
42
-0.40234959564097383
10
-23.916356822100692
20
-100.70782171146762
10
-71.943505168858678
20
-80.647687973183722
10
-77.427906377529922
20
-80.647687973183722
10
-77.427906377529965
20
-84.647687973183736
10
-93.427906377529965
20
-84.647687973183707
10
-109.42790637247099
20
-84.647687973183722
10
-109.42790637266874
20
-81.138731867580262
10
-114.55923529537414
20
-81.147684168499055
42
-0.2133563981436723
10
-116.42365862942569
20
-80.318068254189626
10
-131.94343869795688
20
-63.03592620862338
42
0.21072083469683306
10
-135.62184255929753
20
-61.376860826503389
10
-169.08931231929051
20
-61.09760094524971
42
-0.41039198102075997
10
-171.56842463613711
20
-58.609491120744096
10
-171.64790809275479
20
-41.77445403601606
10
-177.08003208972366
20
-41.774454041109166
10
-177.08003208972366
20
22.225546139301358
10
-173.08003208972366
20
22.225546139301354
10
-173.08003208972366
20
40.101312026816231
42
-0.41421356237310231
10
-170.58003208972366
20
42.601312026816238
10
-168.08003208972366
20
42.60131202681626
10
-168.08003208972366
20
56.601509308132222
10
-115.43003208972367
20
56.601509308132201
10
-65.998667499706357
20
56.601509308132208
10
-16.201111337147413
20
56.601509308132194
10
-16.201111337147388
20
42.601312026816274
10
-9.2460839655714242
20
42.601312026816274
42
-0.41415138356766129
10
-6.7460840219086169
20
40.101842767781349
10
-6.742289097747606
20
22.226248432378792
10
-2.7422891878871178
20
22.227097617922897
10
-2.7411915160030076
20
17.056628728091592
10
2.7409692473360159
20
17.056628728091596
10
2.7420669192201244
20
22.227097617922897
10
6.7420668290806116
20
22.226248432378792
10
6.7458617532416234
20
40.101842767781349
42
-0.41415138356766107
10
9.2458616969044218
20
42.601312026816274
10
16.200889068480389
20
42.601312026816281
10
16.200889068480407
20
56.601509308132201
10
65.998445231039341
20
56.601509308132236
10
115.42980982105666
20
56.60150930813225
10
168.0798098210567
20
56.601509308132293
10
168.0798098210567
20
42.601312026816331
10
170.5798098210567
20
42.601312026816331
42
-0.41421356237310125
10
173.07980982105673
20
40.101312026816309
10
173.0798098210567
20
22.225546139301429
10
177.07980982105667
20
22.225546139301436
10
177.07980982105667
20
-41.774454041109088
10
171.64768582408783
20
-41.774454036015982
10
171.56820236747021
20
-58.609491120744025
42
-0.41039198102075997
10
169.08909005062361
20
-61.097600945249638
10
135.62162029063057
20
-61.376860826503346
42
0.21072083469683309
10
131.94321642928992
20
-63.035926208623323
10
116.42343636075867
20
-80.318068254189555
42
-0.21335639814367124
10
114.55901302670716
20
-81.147684168498984
10
109.42768410400177
20
-81.138731867580205
10
109.42768410380404
20
-84.647687973183679
10
93.427684108863019
20
-84.647687973183679
10
77.427684108863005
20
-84.647687973183707
10
77.427684108862977
20
-80.647687973183679
10
71.943282900191718
20
-80.647687973183679
10
23.916134553433753
20
-100.7078217114676
42
-0.40234959564097383
10
20.686828849250954
20
-99.457508479633276
10
18.802987172883185
20
-95.41759696751825
10
15.177756024736562
20
-97.108070014481058
10
5.0349177429597534
20
-75.356683125601492
10
2.4992081725155382
20
-69.918836403381576
10
6.1244393206621126
20
-68.228363356418782
10
3.5110697955230097
20
-62.623974323909202
42
-0.4142135623730972
0
LWPOLYLINE
5
101
100
AcDbEntity
8
0
100
AcDbPolyline
90
4
70
1
43
0.0
10
-2.7311014235237536
20
-30.471699194574953
10
-2.7397054413008206
20
10.056628885835739
10
2.739483172633832
20
10.056628885835739
10
2.7308791548567828
20
-30.471699194574953
0
ENDSEC
0
SECTION
2
OBJECTS
0
DICTIONARY
5
C
100
AcDbDictionary
3
ACAD_GROUP
350
D
3
ACAD_MLINESTYLE
350
17
0
DICTIONARY
5
D
100
AcDbDictionary
0
DICTIONARY
5
1A
330
C
100
AcDbDictionary
0
DICTIONARY
5
17
100
AcDbDictionary
0
ENDSEC
0
EOF
