0
SECTION
2
HEADER
9
$INSUNITS
70
4
9
$ACADVER
1
AC1014
9
$HANDSEED
5
FFFF
0
ENDSEC
0
SECTION
2
TABLES
0
TABLE
2
VPORT
5
8
100
AcDbSymbolTable
0
ENDTAB
0
TABLE
2
LTYPE
5
5
100
AcDbSymbolTable
0
LTYPE
5
14
100
AcDbSymbolTableRecord
100
AcDbLinetypeTableRecord
2
BYBLOCK
70
0
0
LTYPE
5
15
100
AcDbSymbolTableRecord
100
AcDbLinetypeTableRecord
2
BYLAYER
70
0
0
ENDTAB
0
TABLE
2
LAYER
5
2
100
AcDbSymbolTable
70
2
0
LAYER
5
50
100
AcDbSymbolTableRecord
100
AcDbLayerTableRecord
2
0
70
0
6
CONTINUOUS
0
ENDTAB
0
TABLE
2
STYLE
5
3
100
AcDbSymbolTable
70
1
0
STYLE
5
11
100
AcDbSymbolTableRecord
100
AcDbTextStyleTableRecord
2
STANDARD
70
0
0
ENDTAB
0
TABLE
2
VIEW
5
6
100
AcDbSymbolTable
70
0
0
ENDTAB
0
TABLE
2
UCS
5
7
100
AcDbSymbolTable
70
0
0
ENDTAB
0
TABLE
2
APPID
5
9
100
AcDbSymbolTable
70
2
0
APPID
5
12
100
AcDbSymbolTableRecord
100
AcDbRegAppTableRecord
2
ACAD
70
0
0
ENDTAB
0
TABLE
2
DIMSTYLE
5
A
100
AcDbSymbolTable
70
1
0
ENDTAB
0
TABLE
2
BLOCK_RECORD
5
1
100
AcDbSymbolTable
70
1
0
BLOCK_RECORD
5
1F
100
AcDbSymbolTableRecord
100
AcDbBlockTableRecord
2
*MODEL_SPACE
0
BLOCK_RECORD
5
1B
100
AcDbSymbolTableRecord
100
AcDbBlockTableRecord
2
*PAPER_SPACE
0
ENDTAB
0
ENDSEC
0
SECTION
2
BLOCKS
0
BLOCK
5
20
100
AcDbEntity
100
AcDbBlockBegin
2
*MODEL_SPACE
0
ENDBLK
5
21
100
AcDbEntity
100
AcDbBlockEnd
0
BLOCK
5
1C
100
AcDbEntity
100
AcDbBlockBegin
2
*PAPER_SPACE
0
ENDBLK
5
1D
100
AcDbEntity
100
AcDbBlockEnd
0
ENDSEC
0
SECTION
2
ENTITIES
0
LWPOLYLINE
5
100
100
AcDbEntity
8
0
100
AcDbPolyline
90
68
70
1
43
0.0
10
-178.5540803619605
20
-61.647687973183814
10
-140.19011009088615
20
-61.647687973183814
10
-122.67689248245321
20
-81.149634073409345
10
-116.42790637266873
20
-81.138731867580262
10
-116.42790637247097
20
-84.647687973183722
10
-100.42790637752995
20
-84.647687973183707
10
-84.427906377529951
20
-84.647687973183736
10
-84.427906377529922
20
-80.647687973183722
10
-78.943505168858664
20
-80.647687973183722
10
-25.007442678360341
20
-103.17587596935631
10
-22.177978293403498
20
-97.108070014481058
10
-18.316549431553529
20
-98.90868386418245
10
-5.8741992930358862
20
-71.609309450344369
10
-9.4994304411824828
20
-69.918836403381576
10
-5.829515261691613
20
-62.048677903280371
10
-5.8295152616916148
20
-39.223682938232059
10
-1.8295152616916166
20
-39.223682938232059
10
-1.8295152616916166
20
-38.005001403956939
10
0
20
-38.005001403956939
10
1.8295152616916166
20
-38.005001403956939
10
1.8295152616916166
20
-39.223682938232059
10
5.8295152616916148
20
-39.223682938232059
10
5.829515261691613
20
-62.048677903280371
10
9.4994304411824828
20
-69.918836403381576
10
5.8741992930358862
20
-71.609309450344369
10
18.316549431553529
20
-98.90868386418245
10
22.177978293403498
20
-97.108070014481058
10
25.007442678360341
20
-103.17587596935631
10
78.943505168858664
20
-80.647687973183722
10
84.427906377529922
20
-80.647687973183722
10
84.427906377529951
20
-84.647687973183736
10
100.42790637752995
20
-84.647687973183707
10
116.42790637247097
20
-84.647687973183722
10
116.42790637266873
20
-81.138731867580262
10
122.67689248245321
20
-81.149634073409345
10
140.19011009088615
20
-61.647687973183814
10
178.5540803619605
20
-61.647687973183814
10
178.64790809275479
20
-41.77445403601606
10
184.08003208972363
20
-41.774454041109166
10
184.08003208972363
20
22.225546139301358
10
180.08003208972366
20
22.22554613930135
10
180.08003208972369
20
47.601312026816245
10
175.08003208972366
20
47.601312026816245
10
175.08003208972366
20
56.601509308132208
10
122.43003208972367
20
56.601509308132208
10
72.998667499706343
20
56.601509308132208
10
10.82951526169162
20
56.601509308132208
10
10.82951526169162
20
47.601312026816245
10
5.8295152616916202
20
47.601312026816245
10
5.8295152616916193
20
24.776317061767941
10
1.8295152616916166
20
24.776317061767941
10
1.8295152616916166
20
22.507926255638093
10
0
20
22.507926255638093
10
-1.8295152616916166
20
22.507926255638093
10
-1.8295152616916166
20
24.776317061767941
10
-5.8295152616916193
20
24.776317061767941
10
-5.8295152616916202
20
47.601312026816245
10
-10.82951526169162
20
47.60131202681626
10
-10.82951526169162
20
56.601509308132208
10
-72.998667499706343
20
56.601509308132208
10
-122.43003208972367
20
56.601509308132201
10
-175.08003208972366
20
56.601509308132222
10
-175.08003208972366
20
47.601312026816238
10
-180.08003208972369
20
47.601312026816238
10
-180.08003208972366
20
22.225546139301354
10
-184.08003208972363
20
22.225546139301358
10
-184.08003208972363
20
-41.774454041109166
10
-178.64790809275479
20
-41.77445403601606
0
CIRCLE
5
101
100
AcDbEntity
8
0
100
AcDbCircle
10
100.42790637752995
20
-82.647687973183707
30
0
40
1.1000000000000005
210
0
220
-0
230
1
0
CIRCLE
5
102
100
AcDbEntity
8
0
100
AcDbCircle
10
175.57078805867098
20
-58.101823187835905
30
0
40
1.0000000000000091
210
0
220
-0
230
1
0
CIRCLE
5
103
100
AcDbEntity
8
0
100
AcDbCircle
10
177.08003208972366
20
44.601312026816274
30
0
40
1
210
0
220
-0
230
1
0
CIRCLE
5
104
100
AcDbEntity
8
0
100
AcDbCircle
10
70.998667499706357
20
54.601509308132215
30
0
40
0.99999999999999889
210
0
220
-0
230
1
0
CIRCLE
5
105
100
AcDbEntity
8
0
100
AcDbCircle
10
124.43003208972365
20
54.601509308132215
30
0
40
1.0000000000000073
210
0
220
-0
230
1
0
LWPOLYLINE
5
106
100
AcDbEntity
8
0
100
AcDbPolyline
90
8
70
1
43
0.0
10
0
20
15.507926255638091
10
-1.8295152616916166
20
15.507926255638091
10
-1.8295152616916166
20
-7.2236829382320611
10
-1.8295152616916166
20
-31.005001403956935
10
0
20
-31.005001403956935
10
1.8295152616916166
20
-31.005001403956935
10
1.8295152616916166
20
-7.2236829382320611
10
1.8295152616916166
20
15.507926255638091
0
CIRCLE
5
107
100
AcDbEntity
8
0
100
AcDbCircle
10
3.8295152616916166
20
-7.2236829382320611
30
0
40
0.99999999999999978
210
0
220
-0
230
1
0
CIRCLE
5
108
100
AcDbEntity
8
0
100
AcDbCircle
10
-3.8295152616916166
20
-7.2236829382320611
30
0
40
0.99999999999999978
210
0
220
-0
230
1
0
CIRCLE
5
109
100
AcDbEntity
8
0
100
AcDbCircle
10
-70.998667499706357
20
54.601509308132208
30
0
40
0.99999999999999889
210
0
220
-0
230
1
0
CIRCLE
5
110
100
AcDbEntity
8
0
100
AcDbCircle
10
-124.43003208972365
20
54.601509308132208
30
0
40
1.0000000000000073
210
0
220
-0
230
1
0
CIRCLE
5
111
100
AcDbEntity
8
0
100
AcDbCircle
10
-177.08003208972366
20
44.601312026816288
30
0
40
1
210
0
220
-0
230
1
0
CIRCLE
5
112
100
AcDbEntity
8
0
100
AcDbCircle
10
-175.57078805867098
20
-58.101823187835905
30
0
40
1.0000000000000091
210
0
220
-0
230
1
0
CIRCLE
5
113
100
AcDbEntity
8
0
100
AcDbCircle
10
-100.42790637752995
20
-82.647687973183707
30
0
40
1.1000000000000005
210
0
220
-0
230
1
0
CIRCLE
5
114
100
AcDbEntity
8
0
100
AcDbCircle
10
-8.0800320897236233
20
44.601312026816288
30
0
40
1
210
0
220
-0
230
1
0
CIRCLE
5
115
100
AcDbEntity
8
0
100
AcDbCircle
10
-182.08003208972366
20
-9.7744538606986531
30
0
40
0.99999999999999079
210
0
220
-0
230
1
0
CIRCLE
5
116
100
AcDbEntity
8
0
100
AcDbCircle
10
8.0800320897236233
20
44.601312026816274
30
0
40
1
210
0
220
-0
230
1
0
CIRCLE
5
117
100
AcDbEntity
8
0
100
AcDbCircle
10
182.08003208972366
20
-9.7744538606986531
30
0
40
0.99999999999999079
210
0
220
-0
230
1
0
ENDSEC
0
SECTION
2
OBJECTS
0
DICTIONARY
5
C
100
AcDbDictionary
3
ACAD_GROUP
350
D
3
ACAD_MLINESTYLE
350
17
0
DICTIONARY
5
D
100
AcDbDictionary
0
DICTIONARY
5
1A
330
C
100
AcDbDictionary
0
DICTIONARY
5
17
100
AcDbDictionary
0
ENDSEC
0
EOF
