0
SECTION
2
HEADER
9
$INSUNITS
70
4
9
$ACADVER
1
AC1014
9
$HANDSEED
5
FFFF
0
ENDSEC
0
SECTION
2
TABLES
0
TABLE
2
VPORT
5
8
100
AcDbSymbolTable
0
ENDTAB
0
TABLE
2
LTYPE
5
5
100
AcDbSymbolTable
0
LTYPE
5
14
100
AcDbSymbolTableRecord
100
AcDbLinetypeTableRecord
2
BYBLOCK
70
0
0
LTYPE
5
15
100
AcDbSymbolTableRecord
100
AcDbLinetypeTableRecord
2
BYLAYER
70
0
0
ENDTAB
0
TABLE
2
LAYER
5
2
100
AcDbSymbolTable
70
2
0
LAYER
5
50
100
AcDbSymbolTableRecord
100
AcDbLayerTableRecord
2
0
70
0
6
CONTINUOUS
0
ENDTAB
0
TABLE
2
STYLE
5
3
100
AcDbSymbolTable
70
1
0
STYLE
5
11
100
AcDbSymbolTableRecord
100
AcDbTextStyleTableRecord
2
STANDARD
70
0
0
ENDTAB
0
TABLE
2
VIEW
5
6
100
AcDbSymbolTable
70
0
0
ENDTAB
0
TABLE
2
UCS
5
7
100
AcDbSymbolTable
70
0
0
ENDTAB
0
TABLE
2
APPID
5
9
100
AcDbSymbolTable
70
2
0
APPID
5
12
100
AcDbSymbolTableRecord
100
AcDbRegAppTableRecord
2
ACAD
70
0
0
ENDTAB
0
TABLE
2
DIMSTYLE
5
A
100
AcDbSymbolTable
70
1
0
ENDTAB
0
TABLE
2
BLOCK_RECORD
5
1
100
AcDbSymbolTable
70
1
0
BLOCK_RECORD
5
1F
100
AcDbSymbolTableRecord
100
AcDbBlockTableRecord
2
*MODEL_SPACE
0
BLOCK_RECORD
5
1B
100
AcDbSymbolTableRecord
100
AcDbBlockTableRecord
2
*PAPER_SPACE
0
ENDTAB
0
ENDSEC
0
SECTION
2
BLOCKS
0
BLOCK
5
20
100
AcDbEntity
100
AcDbBlockBegin
2
*MODEL_SPACE
0
ENDBLK
5
21
100
AcDbEntity
100
AcDbBlockEnd
0
BLOCK
5
1C
100
AcDbEntity
100
AcDbBlockBegin
2
*PAPER_SPACE
0
ENDBLK
5
1D
100
AcDbEntity
100
AcDbBlockEnd
0
ENDSEC
0
SECTION
2
ENTITIES
0
LWPOLYLINE
5
100
100
AcDbEntity
8
0
100
AcDbPolyline
90
4
70
1
43
0.0
10
-177.08003188690978
20
-25.499598640657972
10
-177.08003188690978
20
-11.499598640657975
10
-163.08003188690978
20
-11.499598640657975
10
-163.08003188690978
20
-25.499598640657972
0
LWPOLYLINE
5
101
100
AcDbEntity
8
0
100
AcDbPolyline
90
4
70
1
43
0.0
10
-163.08003188690978
20
7.5504013593420343
10
-163.08003188690978
20
-6.4495986406579675
10
-177.08003188690978
20
-6.4495986406579675
10
-177.08003188690978
20
7.5504013593420343
0
LWPOLYLINE
5
102
100
AcDbEntity
8
0
100
AcDbPolyline
90
4
70
1
43
0.0
10
-144.03003188690977
20
7.5504013593420343
10
-144.03003188690977
20
-6.4495986406579675
10
-158.0300318869098
20
-6.4495986406579675
10
-158.0300318869098
20
7.5504013593420343
0
LWPOLYLINE
5
103
100
AcDbEntity
8
0
100
AcDbPolyline
90
4
70
1
43
0.0
10
-138.98003188690979
20
19.600401359342033
10
-138.98003188690979
20
33.600401359342037
10
-124.98003188690979
20
33.600401359342037
10
-124.98003188690979
20
19.600401359342033
0
LWPOLYLINE
5
104
100
AcDbEntity
8
0
100
AcDbPolyline
90
4
70
1
43
0.0
10
-86.880031886909777
20
19.600401359342047
10
-100.88003188690978
20
19.600401359342047
10
-100.88003188690978
20
33.600401359342051
10
-86.880031886909777
20
33.600401359342051
0
LWPOLYLINE
5
105
100
AcDbEntity
8
0
100
AcDbPolyline
90
2
70
1
43
0.0
10
-119.93003188690977
20
23.60040135934203
10
-119.93003188690977
20
37.600401359342037
0
LWPOLYLINE
5
106
100
AcDbEntity
8
0
100
AcDbPolyline
90
4
70
1
43
0.0
10
-119.93003188690977
20
18.550401359342036
10
-105.93003188690977
20
18.550401359342036
10
-105.93003188690979
20
4.5504013593420307
10
-119.93003188690977
20
4.5504013593420307
0
LINE
5
107
100
AcDbEntity
8
0
100
AcDbLine
10
-100.88003188690978
20
19.600401359342047
30
0
11
-100.88003188690978
21
33.600401359342051
31
0
0
LWPOLYLINE
5
108
100
AcDbEntity
8
0
100
AcDbPolyline
90
4
70
1
43
0.0
10
-177.08003188690978
20
-30.549598640657987
10
-163.08003188690978
20
-30.549598640657987
10
-163.08003188690978
20
-44.549598640657976
10
-177.08003188690978
20
-44.549598640657976
0
LWPOLYLINE
5
109
100
AcDbEntity
8
0
100
AcDbPolyline
90
4
70
1
43
0.0
10
-138.98003188690979
20
-4.4995986406579735
10
-124.98003188690979
20
-4.4995986406579735
10
-124.98003188690979
20
-18.499598640657968
10
-138.98003188690979
20
-18.499598640657968
0
LWPOLYLINE
5
110
100
AcDbEntity
8
0
100
AcDbPolyline
90
4
70
1
43
0.0
10
-158.0300318869098
20
-44.549598640657976
10
-158.0300318869098
20
-30.549598640657987
10
-144.0300318869098
20
-30.549598640657987
10
-144.03003188690977
20
-44.549598640657976
0
LINE
5
111
100
AcDbEntity
8
0
100
AcDbLine
10
-119.93003188690977
20
37.600401359342037
30
0
11
-105.93003188690977
21
37.600401359342037
31
0
0
LWPOLYLINE
5
112
100
AcDbEntity
8
0
100
AcDbPolyline
90
4
70
1
43
0.0
10
-158.0300318869098
20
26.600401359342033
10
-144.0300318869098
20
26.600401359342037
10
-144.03003188690977
20
12.600401359342035
10
-158.03003188690977
20
12.600401359342035
0
LWPOLYLINE
5
113
100
AcDbEntity
8
0
100
AcDbPolyline
90
4
70
1
43
0.0
10
-119.93003188690977
20
-14.499598640657974
10
-119.93003188690977
20
-0.49959864065796777
10
-105.93003188690977
20
-0.49959864065796777
10
-105.93003188690979
20
-14.499598640657974
0
LWPOLYLINE
5
114
100
AcDbEntity
8
0
100
AcDbPolyline
90
4
70
1
43
0.0
10
-119.93003188690977
20
-19.549598640657983
10
-105.93003188690977
20
-19.549598640657983
10
-105.93003188690979
20
-33.549598640657976
10
-119.93003188690979
20
-33.549598640657976
0
LWPOLYLINE
5
115
100
AcDbEntity
8
0
100
AcDbPolyline
90
4
70
1
43
0.0
10
-163.08003188690978
20
26.600401359342037
10
-163.08003188690978
20
12.600401359342037
10
-177.08003188690978
20
12.600401359342035
10
-177.08003188690978
20
26.600401359342037
0
LWPOLYLINE
5
116
100
AcDbEntity
8
0
100
AcDbPolyline
90
4
70
1
43
0.0
10
-158.0300318869098
20
-11.499598640657975
10
-144.0300318869098
20
-11.499598640657975
10
-144.03003188690977
20
-25.499598640657972
10
-158.03003188690977
20
-25.499598640657972
0
LINE
5
117
100
AcDbEntity
8
0
100
AcDbLine
10
-105.93003188690979
20
23.60040135934203
30
0
11
-119.93003188690977
21
23.60040135934203
31
0
0
LWPOLYLINE
5
118
100
AcDbEntity
8
0
100
AcDbPolyline
90
2
70
1
43
0.0
10
-100.88003188690978
20
14.55040135934205
10
-100.88003188690978
20
0.55040135934204537
0
LWPOLYLINE
5
119
100
AcDbEntity
8
0
100
AcDbPolyline
90
4
70
1
43
0.0
10
-67.830031886909779
20
19.600401359342047
10
-81.830031886909779
20
19.600401359342047
10
-81.830031886909779
20
33.600401359342051
10
-67.830031886909779
20
33.600401359342051
0
LWPOLYLINE
5
120
100
AcDbEntity
8
0
100
AcDbPolyline
90
3
70
1
43
0.0
10
-42.334205209838103
20
-69.674180982099443
10
-55.022514228351199
20
-63.757525317729616
10
-36.417549545468304
20
-56.985871963586341
0
LWPOLYLINE
5
121
100
AcDbEntity
8
0
100
AcDbPolyline
90
4
70
1
43
0.0
10
-62.999526268482768
20
-66.20833572440776
10
-67.787808275042096
20
-79.364032415410449
10
-80.943504966044799
20
-74.575750408851121
10
-76.155222959485471
20
-61.42005371784844
0
LWPOLYLINE
5
122
100
AcDbEntity
8
0
100
AcDbPolyline
90
4
70
1
43
0.0
10
-86.380031886909762
20
-75.649598640657956
10
-100.38003188690978
20
-75.649598640657956
10
-100.38003188690978
20
-61.649598640657963
10
-86.380031886909762
20
-61.649598640657963
0
LWPOLYLINE
5
123
100
AcDbEntity
8
0
100
AcDbPolyline
90
4
70
1
43
0.0
10
-100.88003188690978
20
-4.4995986406579558
10
-86.880031886909777
20
-4.4995986406579558
10
-86.880031886909777
20
-18.499598640657968
10
-100.88003188690978
20
-18.499598640657968
0
LWPOLYLINE
5
124
100
AcDbEntity
8
0
100
AcDbPolyline
90
4
70
1
43
0.0
10
-67.830031886909779
20
-18.499598640657968
10
-81.830031886909779
20
-18.499598640657968
10
-81.830031886909779
20
-4.4995986406579558
10
-67.830031886909779
20
-4.4995986406579558
0
LWPOLYLINE
5
125
100
AcDbEntity
8
0
100
AcDbPolyline
90
4
70
1
43
0.0
10
-124.98003188690979
20
0.55040135934202761
10
-138.98003188690979
20
0.55040135934202761
10
-138.98003188690979
20
14.550401359342032
10
-124.98003188690979
20
14.550401359342032
0
CIRCLE
5
126
100
AcDbEntity
8
0
100
AcDbCircle
10
-25.201213097691681
20
-6.8715986406579521
30
0
40
1.4999999999999971
210
0
220
0
230
1
0
LWPOLYLINE
5
127
100
AcDbEntity
8
0
100
AcDbPolyline
90
4
70
1
43
0.0
10
-100.88003188690978
20
-37.549598640657962
10
-100.88003188690978
20
-23.549598640657958
10
-86.880031886909777
20
-23.549598640657958
10
-86.880031886909777
20
-37.549598640657962
0
LINE
5
128
100
AcDbEntity
8
0
100
AcDbLine
10
-105.93003188690977
20
37.600401359342037
30
0
11
-105.93003188690979
21
23.60040135934203
31
0
0
LWPOLYLINE
5
129
100
AcDbEntity
8
0
100
AcDbPolyline
90
4
70
1
43
0.0
10
-79.880031886909777
20
-56.599598640657973
10
-93.880031886909762
20
-56.599598640657973
10
-93.880031886909762
20
-42.599598640657973
10
-79.880031886909777
20
-42.599598640657973
0
LWPOLYLINE
5
130
100
AcDbEntity
8
0
100
AcDbPolyline
90
4
70
1
43
0.0
10
-98.930031886909774
20
-42.599598640657973
10
-98.930031886909774
20
-56.599598640657973
10
-112.93003188690977
20
-56.599598640657973
10
-112.93003188690977
20
-42.599598640657973
0
LINE
5
131
100
AcDbEntity
8
0
100
AcDbLine
10
-55.022514228351199
20
-63.757525317729616
30
0
11
-49.105858563981393
21
-51.069216299216563
31
0
0
LWPOLYLINE
5
132
100
AcDbEntity
8
0
100
AcDbPolyline
90
4
70
1
43
0.0
10
-81.830031886909779
20
14.55040135934205
10
-67.830031886909779
20
14.55040135934205
10
-67.830031886909779
20
0.55040135934204537
10
-81.830031886909779
20
0.55040135934204537
0
LWPOLYLINE
5
133
100
AcDbEntity
8
0
100
AcDbPolyline
90
4
70
1
43
0.0
10
-138.98003188690979
20
-37.549598640657976
10
-138.98003188690979
20
-23.549598640657994
10
-124.98003188690979
20
-23.549598640657994
10
-124.98003188690979
20
-37.549598640657976
0
LWPOLYLINE
5
134
100
AcDbEntity
8
0
100
AcDbPolyline
90
4
70
1
43
0.0
10
-67.830031886909779
20
-37.549598640657962
10
-81.830031886909779
20
-37.549598640657962
10
-81.830031886909779
20
-23.549598640657958
10
-67.830031886909779
20
-23.549598640657958
0
LWPOLYLINE
5
135
100
AcDbEntity
8
0
100
AcDbPolyline
90
4
70
1
43
0.0
10
-105.43003188690977
20
-61.649598640657963
10
-105.43003188690977
20
-75.649598640657956
10
-119.43003188690979
20
-75.649598640657956
10
-119.43003188690979
20
-61.649598640657963
0
CIRCLE
5
136
100
AcDbEntity
8
0
100
AcDbCircle
10
-55.200974284131981
20
-6.8707753857751008
30
0
40
1.4999999999999971
210
0
220
0
230
1
0
LINE
5
137
100
AcDbEntity
8
0
100
AcDbLine
10
-86.880031886909777
20
0.55040135934204537
30
0
11
-100.88003188690978
21
0.55040135934204537
31
0
0
LINE
5
138
100
AcDbEntity
8
0
100
AcDbLine
10
-100.88003188690978
20
-37.549598640657962
30
0
11
-100.88003188690978
21
-23.549598640657958
31
0
0
LWPOLYLINE
5
139
100
AcDbEntity
8
0
100
AcDbPolyline
90
4
70
1
43
0.0
10
-56.48404253812874
20
-48.30719129843628
10
-61.272324544688075
20
-61.462887989438961
10
-74.428021235690807
20
-56.674605982879655
10
-69.63973922913145
20
-43.518909291876909
0
LINE
5
140
100
AcDbEntity
8
0
100
AcDbLine
10
-81.830031886909779
20
-37.549598640657962
30
0
11
-81.830031886909779
21
-23.549598640657958
31
0
0
LINE
5
141
100
AcDbEntity
8
0
100
AcDbLine
10
-49.105858563981393
20
-51.069216299216563
30
0
11
-36.417549545468304
21
-56.985871963586341
31
0
0
LINE
5
142
100
AcDbEntity
8
0
100
AcDbLine
10
-81.830031886909779
20
19.600401359342047
30
0
11
-81.830031886909779
21
33.600401359342051
31
0
0
LINE
5
143
100
AcDbEntity
8
0
100
AcDbLine
10
-86.880031886909777
20
14.55040135934205
30
0
11
-86.880031886909777
21
0.55040135934204537
31
0
0
LINE
5
144
100
AcDbEntity
8
0
100
AcDbLine
10
-81.830031886909779
20
-18.499598640657968
30
0
11
-81.830031886909779
21
-4.4995986406579558
31
0
0
LWPOLYLINE
5
145
100
AcDbEntity
8
0
100
AcDbPolyline
90
4
70
1
43
0.0
10
-44.468427431627703
20
-74.251035306636467
10
-50.385083095997487
20
-86.939344325149506
10
-63.073392114510568
20
-81.022688660779664
10
-57.156736450140784
20
-68.334379642266597
0
LINE
5
146
100
AcDbEntity
8
0
100
AcDbLine
10
-81.830031886909779
20
14.55040135934205
30
0
11
-81.830031886909779
21
0.55040135934204537
31
0
0
LINE
5
147
100
AcDbEntity
8
0
100
AcDbLine
10
-63.305031886909774
20
-7.6196601751435633
30
0
11
-62.305031886909781
21
-7.6196601751435633
31
0
0
LWPOLYLINE
5
148
100
AcDbEntity
8
0
100
AcDbPolyline
90
4
70
1
43
0.0
10
-84.355031886909757
20
-1.9745986406579541
10
-65.305031886909774
20
-1.9745986406579541
10
-84.355031886909757
20
-21.02459864065797
10
-65.305031886909774
20
-21.02459864065797
0
LINE
5
149
100
AcDbEntity
8
0
100
AcDbLine
10
-100.88003188690978
20
-4.4995986406579558
30
0
11
-100.88003188690978
21
-18.499598640657968
31
0
0
LINE
5
150
100
AcDbEntity
8
0
100
AcDbLine
10
-100.88003188690978
20
14.55040135934205
30
0
11
-86.880031886909777
21
14.55040135934205
31
0
0
LWPOLYLINE
5
151
100
AcDbEntity
8
0
100
AcDbPolyline
90
8
70
1
43
0.0
10
-23.219717467464626
20
-13.052972556405438
10
-28.160848298344597
20
-10.955586955100225
42
-0.99999999999999989
10
-28.160848298344668
20
-2.9555869551005376
10
-23.219717467464946
20
-0.85820135379496953
42
0.70248419704100618
10
-57.095475830250066
20
-0.8401625744366914
10
-52.111848298344086
20
-2.9555869551002178
42
-0.99999999999999989
10
-52.111848298344015
20
-10.955586955099923
10
-57.095475830250209
20
-13.071011335762206
42
0.70248419704104159
0
LINE
5
152
100
AcDbEntity
8
0
100
AcDbLine
10
-63.305031886909774
20
-2.8816923718674192
30
0
11
-61.305031886909767
21
-2.8816923718674192
31
0
0
LINE
5
153
100
AcDbEntity
8
0
100
AcDbLine
10
-81.830031886909779
20
-11.499598640657966
30
0
11
-67.830031886909779
21
-11.499598640657966
31
0
0
CIRCLE
5
154
100
AcDbEntity
8
0
100
AcDbCircle
10
-40.201213097691678
20
-6.9554178677750134
30
-1.7347234759768071e-17
40
19.999999999999496
210
0
220
0
230
1
0
LINE
5
155
100
AcDbEntity
8
0
100
AcDbLine
10
-65.305031886909774
20
-1.9745986406579541
30
0
11
-65.305031886909774
21
-11.499598640657966
31
0
0
LINE
5
156
100
AcDbEntity
8
0
100
AcDbLine
10
-63.305031886909774
20
-11.499598640657966
30
0
11
-63.305031886909774
21
-42.990060696068198
31
0
0
LINE
5
157
100
AcDbEntity
8
0
100
AcDbLine
10
-65.305031886909774
20
-11.499598640657966
30
0
11
-63.305031886909774
21
-11.499598640657966
31
0
0
LINE
5
158
100
AcDbEntity
8
0
100
AcDbLine
10
-62.305031886909781
20
-7.6196601751435633
30
0
11
-62.305031886909774
21
-42.399599728442738
31
0
0
LINE
5
159
100
AcDbEntity
8
0
100
AcDbLine
10
-84.355031886909757
20
-21.02459864065797
30
0
11
-84.355031886909757
21
-1.9745986406579541
31
0
0
LINE
5
160
100
AcDbEntity
8
0
100
AcDbLine
10
-74.830031886909779
20
-4.4995986406579558
30
0
11
-74.830031886909779
21
-18.499598640657968
31
0
0
LINE
5
161
100
AcDbEntity
8
0
100
AcDbLine
10
-65.305031886909774
20
-1.9745986406579541
30
0
11
-65.305031886909774
21
-21.02459864065797
31
0
0
LINE
5
162
100
AcDbEntity
8
0
100
AcDbLine
10
-63.305031886909774
20
-11.499598640657966
30
0
11
-63.305031886909774
21
35.60040135934203
31
0
0
CIRCLE
5
163
100
AcDbEntity
8
0
100
AcDbCircle
10
-84.355031886909757
20
-1.9745986406579541
30
0
40
2.4999999999999991
210
0
220
0
230
1
0
LINE
5
164
100
AcDbEntity
8
0
100
AcDbLine
10
-65.305031886909774
20
-21.02459864065797
30
0
11
-74.830031886909779
21
-11.499598640657966
31
0
0
LINE
5
165
100
AcDbEntity
8
0
100
AcDbLine
10
-61.305031886909767
20
-2.8816923718674192
30
0
11
-61.305031886909767
21
-42.399599728442738
31
0
0
CIRCLE
5
166
100
AcDbEntity
8
0
100
AcDbCircle
10
-102.42790617471606
20
-82.649598640657985
30
0
40
1.1000000000000005
210
0
220
0
230
1
0
CIRCLE
5
167
100
AcDbEntity
8
0
100
AcDbCircle
10
-183.83366707337504
20
-13.945523253202206
30
0
40
1.100000000000003
210
0
220
0
230
1
0
CIRCLE
5
168
100
AcDbEntity
8
0
100
AcDbCircle
10
-40.201213097691813
20
36.599401359342039
30
0
40
20
210
0
220
0
230
1
0
LINE
5
169
100
AcDbEntity
8
0
100
AcDbLine
10
-40.201213097691813
20
36.599401359342039
30
0
11
-60.201213097691813
21
36.599401359342039
31
0
0
LINE
5
170
100
AcDbEntity
8
0
100
AcDbLine
10
-40.201213097691813
20
36.599401359342039
30
0
11
-40.201213097691813
21
16.599401359342043
31
0
0
LINE
5
171
100
AcDbEntity
8
0
100
AcDbLine
10
-40.201213097691813
20
36.599401359341812
30
0
11
-20.201213097691813
21
36.599401359341805
31
0
0
CIRCLE
5
172
100
AcDbEntity
8
0
100
AcDbCircle
10
-40.201213097691813
20
36.599401359342039
30
0
40
19.999999999999996
210
0
220
0
230
1
0
LINE
5
173
100
AcDbEntity
8
0
100
AcDbLine
10
-40.201213097691678
20
-6.9554178677750134
30
-1.7347234759768071e-17
11
-60.201213097691173
21
-6.9554178677750134
31
-1.7347234759768071e-17
0
LINE
5
174
100
AcDbEntity
8
0
100
AcDbLine
10
-40.201213097691678
20
-6.9554178677750134
30
-1.7347234759768071e-17
11
-20.20121309769219
21
-6.9554178677752443
31
-1.7347234759768071e-17
0
LINE
5
175
100
AcDbEntity
8
0
100
AcDbLine
10
-40.201213097691678
20
-6.9554178677750134
30
-1.7347234759768071e-17
11
-40.201213097691678
21
-26.955417867774507
31
-1.7347234759768071e-17
0
LINE
5
176
100
AcDbEntity
8
0
100
AcDbLine
10
-40.201213097691678
20
-6.9554178677750134
30
-1.7347234759768071e-17
11
-40.201213097691678
21
13.044582132224482
31
-1.7347234759768071e-17
0
LINE
5
177
100
AcDbEntity
8
0
100
AcDbLine
10
-40.201213097691813
20
16.599401359342043
30
0
11
-40.201213097691678
21
-26.955417867774507
31
-1.7347234759768071e-17
0
LINE
5
178
100
AcDbEntity
8
0
100
AcDbLine
10
-20.20121309769219
20
-6.9554178677752443
30
-1.7347234759768071e-17
11
-20.201213097691813
21
36.599401359341805
31
0
0
LINE
5
179
100
AcDbEntity
8
0
100
AcDbLine
10
-60.201213097691813
20
36.599401359342039
30
0
11
-60.201213097691173
21
-6.9554178677750134
31
-1.7347234759768071e-17
0
LWPOLYLINE
5
180
100
AcDbEntity
8
0
100
AcDbPolyline
90
4
70
1
43
0.0
10
-122.45503188690978
20
-40.074598640657982
10
-141.50503188690979
20
-40.074598640658003
10
-141.50503188690979
20
-21.024598640658006
10
-122.45503188690978
20
-21.024598640657992
0
LINE
5
181
100
AcDbEntity
8
0
100
AcDbLine
10
-122.45503188690978
20
-40.074598640657982
30
0
11
-141.50503188690979
21
-21.024598640658006
31
0
0
LINE
5
182
100
AcDbEntity
8
0
100
AcDbLine
10
-141.50503188690979
20
-40.074598640658003
30
0
11
-122.45503188690978
21
-21.024598640657992
31
0
0
LWPOLYLINE
5
183
100
AcDbEntity
8
0
100
AcDbPolyline
90
4
70
1
43
0.0
10
-96.405031886909782
20
-59.124598640657965
10
-115.45503188690979
20
-59.124598640657965
10
-115.45503188690979
20
-40.074598640657975
10
-96.405031886909782
20
-40.074598640657975
0
LINE
5
184
100
AcDbEntity
8
0
100
AcDbLine
10
-96.405031886909782
20
-59.124598640657965
30
0
11
-115.45503188690979
21
-40.074598640657975
31
0
0
LINE
5
185
100
AcDbEntity
8
0
100
AcDbLine
10
-115.45503188690979
20
-59.124598640657965
30
0
11
-96.405031886909782
21
-40.074598640657975
31
0
0
LWPOLYLINE
5
186
100
AcDbEntity
8
0
100
AcDbPolyline
90
5
70
1
43
0.0
10
-137.9800318869101
20
-49.549598640658104
10
-137.9800318869101
20
-43.599598640658115
10
-125.98003188691011
20
-43.59959864065813
10
-125.98003188691011
20
-55.599598640658094
10
-137.9800318869101
20
-55.599598640658087
0
CIRCLE
5
187
100
AcDbEntity
8
0
100
AcDbCircle
10
-131.98003188691013
20
-49.599598640657973
30
0
40
1.0000000000000044
210
0
220
0
230
1
0
LWPOLYLINE
5
188
100
AcDbEntity
8
0
100
AcDbPolyline
90
4
70
1
43
0.0
10
-31.840695220933206
20
-59.120094185376857
10
-19.152386202420118
20
-65.036749849746627
10
-25.069041866789917
20
-77.725058868259737
10
-37.757350885303012
20
-71.808403203889924
0
LWPOLYLINE
5
189
100
AcDbEntity
8
0
100
AcDbPolyline
90
4
70
1
43
0.0
10
-39.891573107093514
20
-76.385257528425015
10
-27.203264088580426
20
-82.301913192794771
10
-33.119919752950231
20
-94.990222211307895
10
-45.808228771463313
20
-89.073566546938068
0
LINE
5
190
100
AcDbEntity
8
0
100
AcDbLine
10
-49.105858563981393
20
-51.069216299216563
30
0
11
-42.334205209838103
21
-69.674180982099443
31
0
0
LWPOLYLINE
5
191
100
AcDbEntity
8
0
100
AcDbPolyline
90
4
70
1
43
0.0
10
-41.112889158465798
20
-73.029719255262265
10
-58.378052501514063
20
-64.978841369101914
10
-50.327174615353705
20
-47.713678026053678
10
-33.062011272305448
20
-55.76455591221405
0
LINE
5
192
100
AcDbEntity
8
0
100
AcDbLine
10
-41.112889158465798
20
-73.029719255262265
30
0
11
-50.327174615353705
21
-47.713678026053678
31
0
0
LINE
5
193
100
AcDbEntity
8
0
100
AcDbLine
10
-58.378052501514063
20
-64.978841369101914
30
0
11
-33.062011272305448
21
-55.76455591221405
31
0
0
LWPOLYLINE
5
194
100
AcDbEntity
8
0
100
AcDbPolyline
90
4
70
1
43
0.0
10
-33.062011272305426
20
-55.764555912213893
10
-15.796847929257201
20
-63.815433798374258
10
-23.84772581541754
20
-81.08059714142243
10
-41.112889158465777
20
-73.029719255262094
0
LWPOLYLINE
5
195
100
AcDbEntity
8
0
100
AcDbPolyline
90
4
70
1
43
0.0
10
-51.138775825667693
20
-24.79769596057529
10
-9.4486176219832689
20
-44.238136000646634
10
-17.055746333315511
20
-60.551676167305715
10
-58.745904536999944
20
-41.111236127234406
0
LINE
5
196
100
AcDbEntity
8
0
100
AcDbLine
10
-131.98003188690979
20
-30.549598640657997
30
0
11
-131.98003188690979
21
-56.385688908108776
31
0
0
LINE
5
197
100
AcDbEntity
8
0
100
AcDbLine
10
-105.93003188690979
20
-49.599598640657973
30
0
11
-146.99866926384576
21
-49.599598640657973
31
0
0
LINE
5
198
100
AcDbEntity
8
0
100
AcDbLine
10
-119.43003188690979
20
-63.599598640657973
30
0
11
-119.43003188690979
21
-75.649598640657956
31
0
0
LWPOLYLINE
5
199
100
AcDbEntity
8
0
100
AcDbPolyline
90
37
70
1
43
0.0
10
-4.6192697874484079
20
-45.70138903703139
10
-1.6609419552635001
20
-39.357234527774814
10
-15.201111134333507
20
-33.043349946860197
10
-15.201111134333507
20
-16.024412235095458
10
-11.201111134333505
20
-16.024412235095458
10
-11.201111134333503
20
15.975587764904544
10
-11.201111134333502
20
47.975587764904546
10
-15.201111134333502
20
47.975587764904546
10
-15.2011111343335
20
57.599401359342025
10
-25.201111134333498
20
57.599401359342039
10
-25.201111134333502
20
63.599598640657959
10
-74.998667296892478
20
63.599598640657966
10
-74.998667296892478
20
57.599401359342039
10
-124.43003188690977
20
57.599401359342039
10
-124.43003188690977
20
63.599598640657966
10
-172.08003188690978
20
63.599598640657973
10
-172.08003188690978
20
57.599401359342039
10
-182.08003188690978
20
57.599401359342039
10
-182.08003188690978
20
37.223635471827109
10
-186.08003188690975
20
37.223635471827109
10
-186.08003188690975
20
-26.776364528172891
10
-183.06845229633697
20
-26.776364528172891
10
-183.06845229633697
20
-63.599598640657973
10
-141.50503188690979
20
-63.599598640657973
10
-124.43003188690979
20
-80.649598640657956
10
-118.42790617471606
20
-80.649598640657956
10
-118.42790617471606
20
-84.64959864065797
10
-102.42790617471606
20
-84.64959864065797
10
-86.427906174716057
20
-84.64959864065797
10
-86.427906174716057
20
-80.649598640657956
10
-80.943504966044799
20
-80.649598640657956
10
-30.701472126470396
20
-101.63485245519446
10
-23.999644883069912
20
-87.262737551662681
10
-20.374413734923301
20
-88.953210598625461
10
-14.035139808812806
20
-75.358593793075727
10
-7.6958658827023037
20
-61.763976987525986
10
-11.321097030848883
20
-60.073503940563199
0
LINE
5
200
100
AcDbEntity
8
0
100
AcDbLine
10
-124.43003188690979
20
-68.599598640657973
30
0
11
-124.43003188690979
21
-80.649598640657956
31
0
0
LINE
5
201
100
AcDbEntity
8
0
100
AcDbLine
10
-40.201213097691813
20
36.599401359342039
30
0
11
-40.201213097691813
21
57.599401359342039
31
0
0
LINE
5
202
100
AcDbEntity
8
0
100
AcDbLine
10
-19.201213097691806
20
57.599401359342025
30
0
11
-15.2011111343335
21
57.599401359342025
31
0
0
LINE
5
203
100
AcDbEntity
8
0
100
AcDbLine
10
-40.201213097691813
20
36.599401359342039
30
0
11
-19.201213097691809
21
36.599401359342039
31
0
0
LINE
5
204
100
AcDbEntity
8
0
100
AcDbLine
10
-30.293696723825477
20
-34.517915980610958
30
0
11
-37.900825435157735
21
-50.83145614727006
31
0
0
LINE
5
205
100
AcDbEntity
8
0
100
AcDbLine
10
-45.720031886909766
20
-60.371698640657982
30
0
11
-41.694592943829612
21
-51.739116969133853
31
0
0
LINE
5
206
100
AcDbEntity
8
0
100
AcDbLine
10
-41.694592943829612
20
-51.739116969133853
30
0
11
-36.418149076620281
21
-40.423746580223217
31
0
0
LINE
5
207
100
AcDbEntity
8
0
100
AcDbLine
10
-19.152386202420118
20
-65.036749849746627
30
0
11
-11.770756090532934
21
-49.20679299016281
31
0
0
LINE
5
208
100
AcDbEntity
8
0
100
AcDbLine
10
-186.08003188690975
20
5.2236354718271105
30
0
11
-15.201111134333505
21
5.2236354718271016
31
0
0
LINE
5
209
100
AcDbEntity
8
0
100
AcDbLine
10
-17.660370956959401
20
-73.668120746112933
30
0
11
-14.035139808812806
21
-75.358593793075727
31
0
0
LINE
5
210
100
AcDbEntity
8
0
100
AcDbLine
10
-102.42790617471606
20
-80.649598640657956
30
0
11
-102.42790617471606
21
-84.64959864065797
31
0
0
LINE
5
211
100
AcDbEntity
8
0
100
AcDbLine
10
-15.201111134333505
20
15.975587764904544
30
0
11
-11.201111134333503
21
15.975587764904544
31
0
0
LINE
5
212
100
AcDbEntity
8
0
100
AcDbLine
10
-86.427906174716057
20
-80.649598640657956
30
0
11
-86.380031886909762
21
-80.649598640657956
31
0
0
LINE
5
213
100
AcDbEntity
8
0
100
AcDbLine
10
-124.43003188690979
20
-68.599598640657973
30
0
11
-124.43003188690977
21
5.2236354718271087
31
0
0
LINE
5
214
100
AcDbEntity
8
0
100
AcDbLine
10
-14.998667296892485
20
52.614312716117794
30
0
11
-15.201111134333502
21
52.614312716117794
31
0
0
LINE
5
215
100
AcDbEntity
8
0
100
AcDbLine
10
-28.221120684249627
20
52.614312716117794
30
0
11
-52.181305511134006
21
52.614312716117794
31
0
0
LINE
5
216
100
AcDbEntity
8
0
100
AcDbLine
10
-202.40000298023222
20
63.599598640657973
30
0
11
-202.40000298023222
21
-63.599598640657973
31
0
0
CIRCLE
5
217
100
AcDbEntity
8
0
100
AcDbCircle
10
-179.08003188690975
20
54.599401359342039
30
0
40
1
210
0
220
0
230
1
0
CIRCLE
5
218
100
AcDbEntity
8
0
100
AcDbCircle
10
-184.08003188690975
20
5.2236354718271105
30
0
40
0.99999999999999079
210
0
220
0
230
1
0
CIRCLE
5
219
100
AcDbEntity
8
0
100
AcDbCircle
10
-15.847755382886104
20
-74.513357269594337
30
0
40
0.99999999999999734
210
0
220
0
230
1
0
CIRCLE
5
220
100
AcDbEntity
8
0
100
AcDbCircle
10
-13.201111134333502
20
15.975587764904544
30
0
40
1
210
0
220
0
230
1
0
CIRCLE
5
221
100
AcDbEntity
8
0
100
AcDbCircle
10
-127.43003188690977
20
60.599598640657966
30
0
40
1.0000000000000073
210
0
220
0
230
1
0
CIRCLE
5
222
100
AcDbEntity
8
0
100
AcDbCircle
10
-71.998667296892492
20
60.599598640657966
30
0
40
0.99999999999999889
210
0
220
0
230
1
0
CIRCLE
5
223
100
AcDbEntity
8
0
100
AcDbCircle
10
-18.201111134333502
20
54.599401359342032
30
0
40
0.99999999999999656
210
0
220
0
230
1
0
CIRCLE
5
224
100
AcDbEntity
8
0
100
AcDbCircle
10
-180.06845229633697
20
-60.599598640657973
30
0
40
1.0000000000000091
210
0
220
0
230
1
0
LINE
5
225
100
AcDbEntity
8
0
100
AcDbLine
10
-11.201111134333502
20
45.018434684458015
30
0
11
-0.00011113433350029567
21
45.018434684458015
31
0
0
LINE
5
226
100
AcDbEntity
8
0
100
AcDbLine
10
-0.00011113433350029567
20
38.018434684458015
30
0
11
-11.201111134333502
21
38.018434684458015
31
0
0
LINE
5
227
100
AcDbEntity
8
0
100
AcDbLine
10
-11.201111134333503
20
19.233193376284483
30
0
11
-0.00011113433350251611
21
19.233193376284483
31
0
0
LINE
5
228
100
AcDbEntity
8
0
100
AcDbLine
10
-0.00011113433350140589
20
12.233193376284479
30
0
11
-11.201111134333503
21
12.233193376284479
31
0
0
LINE
5
229
100
AcDbEntity
8
0
100
AcDbLine
10
-0.00011113433350029567
20
38.018434684458015
30
0
11
-0.00011113433349918544
21
33.000000491738319
31
0
0
LINE
5
230
100
AcDbEntity
8
0
100
AcDbLine
10
-11.201111134333505
20
-14.207896668820887
30
0
11
0
21
-14.207896668820892
31
0
0
LINE
5
231
100
AcDbEntity
8
0
100
AcDbLine
10
-11.201111134333503
20
-7.2078966688208892
30
0
11
0
21
-7.2078966688208892
31
0
0
LWPOLYLINE
5
232
100
AcDbEntity
8
0
100
AcDbPolyline
90
4
70
1
43
0.0
10
100.87980961824277
20
14.550401359342096
10
86.879809618242774
20
14.550401359342091
10
86.879809618242774
20
0.55040135934208312
10
100.87980961824277
20
0.55040135934208756
0
LWPOLYLINE
5
233
100
AcDbEntity
8
0
100
AcDbPolyline
90
3
70
1
43
0.0
10
58.37783023284711
20
-64.9788413691019
10
50.326952346686738
20
-47.71367802605365
10
33.061789003638495
20
-55.764555912214036
0
CIRCLE
5
234
100
AcDbEntity
8
0
100
AcDbCircle
10
131.97980961824314
20
-49.599598640657909
30
0
40
1.0000000000000044
210
0
220
0
230
1
0
LWPOLYLINE
5
235
100
AcDbEntity
8
0
100
AcDbPolyline
90
5
70
1
43
0.0
10
125.97980961824314
20
-43.599598640658073
10
125.97980961824314
20
-55.59959864065803
10
137.97980961824311
20
-55.59959864065803
10
137.97980961824311
20
-49.549598640658061
10
137.97980961824311
20
-43.599598640658073
0
LWPOLYLINE
5
236
100
AcDbEntity
8
0
100
AcDbPolyline
90
3
70
1
43
0.0
10
96.404809618242808
20
-59.124598640657936
10
115.45480961824282
20
-40.074598640657925
10
115.45480961824282
20
-59.124598640657915
0
LINE
5
237
100
AcDbEntity
8
0
100
AcDbLine
10
115.45480961824282
20
-40.074598640657925
30
0
11
96.404809618242808
21
-40.074598640657932
31
0
0
LWPOLYLINE
5
238
100
AcDbEntity
8
0
100
AcDbPolyline
90
4
70
1
43
0.0
10
86.379809618242803
20
-61.649598640657928
10
86.379809618242803
20
-75.649598640657928
10
100.3798096182428
20
-75.649598640657914
10
100.3798096182428
20
-61.649598640657914
0
LWPOLYLINE
5
239
100
AcDbEntity
8
0
100
AcDbPolyline
90
37
70
1
43
0.0
10
14.034917540145855
20
-75.358593793075727
10
7.6956436140353475
20
-61.763976987525986
10
11.320874762181926
20
-60.073503940563185
10
4.6190475187814437
20
-45.70138903703139
10
1.6607196865965341
20
-39.357234527774814
10
15.200888865666538
20
-33.043349946860189
10
15.200888865666528
20
-16.024412235095447
10
11.200888865666528
20
-16.024412235095447
10
11.200888865666512
20
15.975587764904549
10
11.200888865666496
20
47.975587764904546
10
15.200888865666498
20
47.975587764904553
10
15.20088886566649
20
57.599401359342039
10
25.200888865666489
20
57.599401359342046
10
25.200888865666492
20
63.599598640657966
10
74.998445028225461
20
63.599598640658002
10
74.998445028225476
20
57.599401359342075
10
124.42980961824276
20
57.599401359342089
10
124.42980961824276
20
63.599598640658016
10
172.07980961824279
20
63.599598640658058
10
172.07980961824279
20
57.599401359342117
10
182.07980961824279
20
57.599401359342117
10
182.07980961824279
20
37.223635471827194
10
186.07980961824279
20
37.223635471827194
10
186.07980961824279
20
-26.776364528172813
10
183.06823002767001
20
-26.776364528172813
10
183.06823002767007
20
-63.599598640657895
10
141.50480961824283
20
-63.599598640657916
10
124.42980961824281
20
-80.649598640657899
10
118.42768390604908
20
-80.649598640657899
10
118.42768390604911
20
-84.649598640657914
10
102.42768390604911
20
-84.649598640657914
10
86.427683906049126
20
-84.649598640657928
10
86.427683906049083
20
-80.649598640657914
10
80.943282697377839
20
-80.649598640657914
10
30.701249857803457
20
-101.63485245519445
10
23.999422614402963
20
-87.262737551662667
10
20.374191466256356
20
-88.953210598625446
0
LWPOLYLINE
5
240
100
AcDbEntity
8
0
100
AcDbPolyline
90
4
70
1
43
0.0
10
76.155000690818497
20
-61.420053717848404
10
62.999303999815822
20
-66.208335724407718
10
67.78758600637515
20
-79.364032415410421
10
80.943282697377839
20
-74.575750408851093
0
LWPOLYLINE
5
241
100
AcDbEntity
8
0
100
AcDbPolyline
90
4
70
1
43
0.0
10
25.068819598122971
20
-77.725058868259708
10
37.757128616636059
20
-71.808403203889924
10
31.84047295226625
20
-59.120094185376843
10
19.152163933753165
20
-65.036749849746641
0
LINE
5
242
100
AcDbEntity
8
0
100
AcDbLine
10
19.152163933753165
20
-65.036749849746641
30
0
11
11.770533821865975
21
-49.206792990162796
31
0
0
LWPOLYLINE
5
243
100
AcDbEntity
8
0
100
AcDbPolyline
90
4
70
1
43
0.0
10
15.796625660590244
20
-63.815433798374258
10
23.847503546750595
20
-81.080597141422416
10
41.112666889798817
20
-73.02971925526208
10
33.061789003638467
20
-55.764555912213879
0
LWPOLYLINE
5
244
100
AcDbEntity
8
0
100
AcDbPolyline
90
4
70
1
43
0.0
10
44.46820516296075
20
-74.251035306636453
10
50.384860827330527
20
-86.939344325149492
10
63.073169845843609
20
-81.022688660779636
10
57.156514181473824
20
-68.334379642266583
0
LWPOLYLINE
5
245
100
AcDbEntity
8
0
100
AcDbPolyline
90
4
70
1
43
0.0
10
79.879809618242803
20
-56.599598640657938
10
93.879809618242803
20
-56.599598640657938
10
93.879809618242803
20
-42.599598640657931
10
79.879809618242803
20
-42.599598640657931
0
LWPOLYLINE
5
246
100
AcDbEntity
8
0
100
AcDbPolyline
90
4
70
1
43
0.0
10
100.8798096182428
20
-4.4995986406579114
10
86.879809618242803
20
-4.4995986406579203
10
86.879809618242803
20
-18.499598640657933
10
100.8798096182428
20
-18.499598640657922
0
LWPOLYLINE
5
247
100
AcDbEntity
8
0
100
AcDbPolyline
90
3
70
1
43
0.0
10
49.105636295314419
20
-51.069216299216542
10
42.333982941171158
20
-69.674180982099443
10
55.022291959684253
20
-63.757525317729602
0
LINE
5
248
100
AcDbEntity
8
0
100
AcDbLine
10
186.07980961824279
20
5.2236354718271949
30
0
11
15.200888865666517
21
5.2236354718271105
31
0
0
LWPOLYLINE
5
249
100
AcDbEntity
8
0
100
AcDbPolyline
90
4
70
1
43
0.0
10
100.8798096182428
20
-23.549598640657912
10
86.879809618242803
20
-23.549598640657923
10
86.879809618242803
20
-37.549598640657926
10
100.8798096182428
20
-37.549598640657919
0
LINE
5
250
100
AcDbEntity
8
0
100
AcDbLine
10
33.061789003638495
20
-55.764555912214036
30
0
11
41.112666889798852
21
-73.02971925526225
31
0
0
LINE
5
251
100
AcDbEntity
8
0
100
AcDbLine
10
17.660148688292448
20
-73.668120746112947
30
0
11
14.034917540145855
21
-75.358593793075727
31
0
0
LINE
5
252
100
AcDbEntity
8
0
100
AcDbLine
10
41.112666889798852
20
-73.02971925526225
30
0
11
50.326952346686738
21
-47.71367802605365
31
0
0
LWPOLYLINE
5
253
100
AcDbEntity
8
0
100
AcDbPolyline
90
4
70
1
43
0.0
10
100.87980961824277
20
33.600401359342094
10
86.879809618242774
20
33.600401359342086
10
86.879809618242774
20
19.600401359342086
10
100.87980961824277
20
19.600401359342094
0
LWPOLYLINE
5
254
100
AcDbEntity
8
0
100
AcDbPolyline
90
4
70
1
43
0.0
10
39.891350838426561
20
-76.385257528425001
10
27.20304181991348
20
-82.301913192794757
10
33.119697484283293
20
-94.990222211307881
10
45.80800650279636
20
-89.073566546938054
0
LINE
5
255
100
AcDbEntity
8
0
100
AcDbLine
10
36.417327276801352
20
-56.98587196358632
30
0
11
42.333982941171158
21
-69.674180982099443
31
0
0
LWPOLYLINE
5
256
100
AcDbEntity
8
0
100
AcDbPolyline
90
4
70
1
43
0.0
10
69.639516960464491
20
-43.518909291876881
10
56.483820269461766
20
-48.307191298436258
10
61.272102276021116
20
-61.462887989438926
10
74.427798967023833
20
-56.674605982879612
0
LINE
5
257
100
AcDbEntity
8
0
100
AcDbLine
10
45.719809618242792
20
-60.371698640657954
30
0
11
41.694370675162645
21
-51.739116969133825
31
0
0
CIRCLE
5
258
100
AcDbEntity
8
0
100
AcDbCircle
10
15.847533114219152
20
-74.513357269594337
30
0
40
0.99999999999999734
210
0
220
0
230
1
0
LINE
5
259
100
AcDbEntity
8
0
100
AcDbLine
10
36.417327276801352
20
-56.98587196358632
30
0
11
55.022291959684253
21
-63.757525317729602
31
0
0
LINE
5
260
100
AcDbEntity
8
0
100
AcDbLine
10
49.105636295314419
20
-51.069216299216542
30
0
11
36.417327276801352
21
-56.98587196358632
31
0
0
LWPOLYLINE
5
261
100
AcDbEntity
8
0
100
AcDbPolyline
90
4
70
1
43
0.0
10
9.4483953533163039
20
-44.238136000646634
10
17.055524064648555
20
-60.551676167305715
10
58.74568226833297
20
-41.111236127234385
10
51.138553557000733
20
-24.797695960575261
0
LWPOLYLINE
5
262
100
AcDbEntity
8
0
100
AcDbPolyline
90
2
70
1
43
0.0
10
81.82980961824282
20
-37.549598640657926
10
81.82980961824282
20
-23.549598640657923
0
LWPOLYLINE
5
263
100
AcDbEntity
8
0
100
AcDbPolyline
90
4
70
1
43
0.0
10
105.9298096182428
20
-19.549598640657937
10
105.92980961824281
20
-33.549598640657933
10
119.92980961824281
20
-33.549598640657919
10
119.9298096182428
20
-19.549598640657926
0
LINE
5
264
100
AcDbEntity
8
0
100
AcDbLine
10
65.3048096182428
20
-21.024598640657945
30
0
11
84.354809618242797
21
-21.024598640657935
31
0
0
LWPOLYLINE
5
265
100
AcDbEntity
8
0
100
AcDbPolyline
90
4
70
1
43
0.0
10
163.07980961824282
20
-30.549598640657916
10
163.07980961824288
20
-44.549598640657905
10
177.07980961824288
20
-44.549598640657905
10
177.07980961824279
20
-30.549598640657905
0
LWPOLYLINE
5
266
100
AcDbEntity
8
0
100
AcDbPolyline
90
4
70
1
43
0.0
10
67.829809618242791
20
-18.499598640657943
10
81.82980961824282
20
-18.499598640657933
10
81.82980961824282
20
-4.4995986406579203
10
67.829809618242791
20
-4.4995986406579291
0
LINE
5
267
100
AcDbEntity
8
0
100
AcDbLine
10
131.9798096182428
20
-30.549598640657933
30
0
11
131.97980961824283
21
-56.385688908108733
31
0
0
LWPOLYLINE
5
268
100
AcDbEntity
8
0
100
AcDbPolyline
90
4
70
1
43
0.0
10
138.97980961824283
20
-37.549598640657919
10
138.97980961824283
20
-23.549598640657933
10
124.97980961824281
20
-23.549598640657941
10
124.97980961824281
20
-37.549598640657926
0
LINE
5
269
100
AcDbEntity
8
0
100
AcDbLine
10
41.694370675162645
20
-51.739116969133825
30
0
11
36.417926807953314
21
-40.423746580223195
31
0
0
LINE
5
270
100
AcDbEntity
8
0
100
AcDbLine
10
30.293474455158513
20
-34.517915980610937
30
0
11
37.900603166490768
21
-50.831456147270053
31
0
0
LWPOLYLINE
5
271
100
AcDbEntity
8
0
100
AcDbPolyline
90
3
70
1
43
0.0
10
141.50480961824283
20
-40.074598640657939
10
122.45480961824282
20
-21.024598640657935
10
141.50480961824283
20
-21.024598640657945
0
LINE
5
272
100
AcDbEntity
8
0
100
AcDbLine
10
122.45480961824282
20
-21.024598640657935
30
0
11
122.45480961824282
21
-40.074598640657932
31
0
0
LWPOLYLINE
5
273
100
AcDbEntity
8
0
100
AcDbPolyline
90
8
70
1
43
0.0
10
23.219495198797652
20
-13.052972556405429
10
28.160626029677616
20
-10.955586955100216
42
0.99999999999999989
10
28.160626029677687
20
-2.9555869551005287
10
23.219495198797979
20
-0.85820135379496953
42
-0.70248419704100606
10
57.095253561583078
20
-0.84016257443666476
10
52.111626029677097
20
-2.9555869551001734
42
0.99999999999999989
10
52.111626029677026
20
-10.955586955099896
10
57.095253561583192
20
-13.07101133576217
42
-0.70248419704104137
0
LWPOLYLINE
5
274
100
AcDbEntity
8
0
100
AcDbPolyline
90
4
70
1
43
0.0
10
81.829809618242777
20
19.600401359342083
10
81.829809618242777
20
33.600401359342086
10
67.829809618242777
20
33.600401359342079
10
67.829809618242777
20
19.600401359342079
0
LINE
5
275
100
AcDbEntity
8
0
100
AcDbLine
10
40.20099082902469
20
-6.9554178677749956
30
-1.7347234759768071e-17
11
60.200990829024192
21
-6.9554178677749867
31
-1.7347234759768071e-17
0
LINE
5
276
100
AcDbEntity
8
0
100
AcDbLine
10
40.200990829024818
20
36.599401359341826
30
0
11
20.200990829024814
21
36.599401359341812
31
0
0
LINE
5
277
100
AcDbEntity
8
0
100
AcDbLine
10
124.42980961824281
20
-68.599598640657931
30
0
11
124.42980961824281
21
-80.649598640657899
31
0
0
LINE
5
278
100
AcDbEntity
8
0
100
AcDbLine
10
65.304809618242786
20
-1.9745986406579208
30
0
11
65.3048096182428
21
-11.49959864065794
31
0
0
LINE
5
279
100
AcDbEntity
8
0
100
AcDbLine
10
20.200990829025205
20
-6.9554178677752354
30
-1.7347234759768071e-17
11
20.200990829024814
21
36.599401359341812
31
0
0
LWPOLYLINE
5
280
100
AcDbEntity
8
0
100
AcDbPolyline
90
4
70
1
43
0.0
10
158.02980961824278
20
26.600401359342101
10
144.02980961824278
20
26.600401359342101
10
144.02980961824278
20
12.600401359342097
10
158.02980961824278
20
12.600401359342106
0
LINE
5
281
100
AcDbEntity
8
0
100
AcDbLine
10
65.3048096182428
20
-11.49959864065794
30
0
11
63.304809618242786
21
-11.49959864065794
31
0
0
LINE
5
282
100
AcDbEntity
8
0
100
AcDbLine
10
40.200990829024818
20
36.59940135934206
30
0
11
40.200990829024832
21
16.59940135934206
31
0
0
LWPOLYLINE
5
283
100
AcDbEntity
8
0
100
AcDbPolyline
90
4
70
1
43
0.0
10
138.97980961824277
20
19.600401359342097
10
138.97980961824277
20
33.600401359342101
10
124.97980961824277
20
33.600401359342094
10
124.97980961824277
20
19.60040135934209
0
LINE
5
284
100
AcDbEntity
8
0
100
AcDbLine
10
63.304809618242786
20
-7.6196601751435367
30
0
11
62.304809618242786
21
-7.6196601751435367
31
0
0
LINE
5
285
100
AcDbEntity
8
0
100
AcDbLine
10
60.200990829024818
20
36.599401359342068
30
0
11
60.200990829024192
21
-6.9554178677749867
31
-1.7347234759768071e-17
0
CIRCLE
5
286
100
AcDbEntity
8
0
100
AcDbCircle
10
102.42768390604911
20
-82.649598640657928
30
0
40
1.1000000000000005
210
0
220
0
230
1
0
LINE
5
287
100
AcDbEntity
8
0
100
AcDbLine
10
63.304809618242786
20
-11.49959864065794
30
0
11
63.304809618242771
21
35.600401359342058
31
0
0
LWPOLYLINE
5
288
100
AcDbEntity
8
0
100
AcDbPolyline
90
4
70
1
43
0.0
10
163.07980961824282
20
26.600401359342108
10
163.07980961824282
20
12.600401359342106
10
177.07980961824279
20
12.600401359342115
10
177.07980961824279
20
26.600401359342118
0
LINE
5
289
100
AcDbEntity
8
0
100
AcDbLine
10
115.45480961824282
20
-59.124598640657915
30
0
11
96.404809618242808
21
-40.074598640657932
31
0
0
LWPOLYLINE
5
290
100
AcDbEntity
8
0
100
AcDbPolyline
90
4
70
1
43
0.0
10
98.9298096182428
20
-56.599598640657938
10
112.92980961824281
20
-56.599598640657916
10
112.92980961824281
20
-42.599598640657916
10
98.9298096182428
20
-42.599598640657931
0
LWPOLYLINE
5
291
100
AcDbEntity
8
0
100
AcDbPolyline
90
4
70
1
43
0.0
10
119.42980961824281
20
-75.649598640657914
10
105.42980961824281
20
-75.649598640657914
10
105.42980961824281
20
-61.649598640657914
10
119.42980961824281
20
-61.649598640657914
0
CIRCLE
5
292
100
AcDbEntity
8
0
100
AcDbCircle
10
179.07980961824279
20
54.599401359342117
30
0
40
1
210
0
220
0
230
1
0
LWPOLYLINE
5
293
100
AcDbEntity
8
0
100
AcDbPolyline
90
4
70
1
43
0.0
10
81.829809618242777
20
14.550401359342086
10
67.829809618242791
20
14.550401359342082
10
67.829809618242791
20
0.55040135934207424
10
81.829809618242777
20
0.55040135934207868
0
LINE
5
294
100
AcDbEntity
8
0
100
AcDbLine
10
40.200990829024818
20
36.59940135934206
30
0
11
19.200990829024811
21
36.599401359342053
31
0
0
CIRCLE
5
295
100
AcDbEntity
8
0
100
AcDbCircle
10
40.200990829024818
20
36.59940135934206
30
0
40
20
210
0
220
0
230
1
0
LINE
5
296
100
AcDbEntity
8
0
100
AcDbLine
10
81.82980961824282
20
-11.499598640657931
30
0
11
67.829809618242791
21
-11.49959864065794
31
0
0
LINE
5
297
100
AcDbEntity
8
0
100
AcDbLine
10
40.200990829024818
20
36.59940135934206
30
0
11
40.200990829024818
21
57.599401359342053
31
0
0
CIRCLE
5
298
100
AcDbEntity
8
0
100
AcDbCircle
10
71.998445028225461
20
60.599598640657995
30
0
40
0.99999999999999889
210
0
220
0
230
1
0
LINE
5
299
100
AcDbEntity
8
0
100
AcDbLine
10
40.20099082902469
20
-6.9554178677749956
30
-1.7347234759768071e-17
11
20.200990829025205
21
-6.9554178677752354
31
-1.7347234759768071e-17
0
CIRCLE
5
300
100
AcDbEntity
8
0
100
AcDbCircle
10
84.354809618242754
20
-1.9745986406579163
30
0
40
2.4999999999999991
210
0
220
0
230
1
0
CIRCLE
5
301
100
AcDbEntity
8
0
100
AcDbCircle
10
180.06823002767007
20
-60.599598640657902
30
0
40
1.0000000000000091
210
0
220
0
230
1
0
CIRCLE
5
302
100
AcDbEntity
8
0
100
AcDbCircle
10
55.200752015464985
20
-6.8707753857750742
30
0
40
1.4999999999999971
210
0
220
0
230
1
0
LINE
5
303
100
AcDbEntity
8
0
100
AcDbLine
10
40.20099082902469
20
-6.9554178677749956
30
-1.7347234759768071e-17
11
40.20099082902469
21
13.044582132224498
31
-1.7347234759768071e-17
0
LWPOLYLINE
5
304
100
AcDbEntity
8
0
100
AcDbPolyline
90
3
70
1
43
0.0
10
84.354809618242754
20
-1.9745986406579163
10
65.304809618242786
20
-1.9745986406579208
10
84.354809618242797
20
-21.024598640657935
0
LINE
5
305
100
AcDbEntity
8
0
100
AcDbLine
10
96.404809618242808
20
-40.074598640657932
30
0
11
96.404809618242808
21
-59.124598640657936
31
0
0
LINE
5
306
100
AcDbEntity
8
0
100
AcDbLine
10
63.304809618242786
20
-2.8816923718673948
30
0
11
61.304809618242771
21
-2.8816923718673948
31
0
0
LINE
5
307
100
AcDbEntity
8
0
100
AcDbLine
10
81.829809618242777
20
14.550401359342086
30
0
11
81.829809618242777
21
0.55040135934207868
31
0
0
LWPOLYLINE
5
308
100
AcDbEntity
8
0
100
AcDbPolyline
90
4
70
1
43
0.0
10
119.92980961824276
20
23.600401359342086
10
119.92980961824276
20
37.600401359342086
10
105.92980961824276
20
37.600401359342086
10
105.92980961824279
20
23.600401359342076
0
LWPOLYLINE
5
309
100
AcDbEntity
8
0
100
AcDbPolyline
90
4
70
1
43
0.0
10
177.07980961824279
20
-25.49959864065789
10
177.07980961824279
20
-11.499598640657895
10
163.07980961824282
20
-11.499598640657904
10
163.07980961824282
20
-25.499598640657901
0
LWPOLYLINE
5
310
100
AcDbEntity
8
0
100
AcDbPolyline
90
4
70
1
43
0.0
10
158.02980961824278
20
7.5504013593421071
10
144.02980961824278
20
7.5504013593420982
10
144.02980961824281
20
-6.4495986406579053
10
158.02980961824284
20
-6.4495986406578965
0
LWPOLYLINE
5
311
100
AcDbEntity
8
0
100
AcDbPolyline
90
4
70
1
43
0.0
10
158.02980961824284
20
-11.499598640657904
10
144.02980961824281
20
-11.499598640657913
10
144.02980961824281
20
-25.499598640657908
10
158.02980961824281
20
-25.499598640657901
0
LINE
5
312
100
AcDbEntity
8
0
100
AcDbLine
10
102.42768390604908
20
-80.649598640657899
30
0
11
102.42768390604911
21
-84.649598640657914
31
0
0
LWPOLYLINE
5
313
100
AcDbEntity
8
0
100
AcDbPolyline
90
4
70
1
43
0.0
10
119.92980961824276
20
18.550401359342089
10
105.92980961824276
20
18.550401359342082
10
105.92980961824279
20
4.5504013593420778
10
119.92980961824276
20
4.5504013593420822
0
LWPOLYLINE
5
314
100
AcDbEntity
8
0
100
AcDbPolyline
90
4
70
1
43
0.0
10
144.02980961824281
20
-44.549598640657905
10
158.02980961824284
20
-44.549598640657905
10
158.02980961824284
20
-30.549598640657916
10
144.02980961824281
20
-30.549598640657926
0
CIRCLE
5
315
100
AcDbEntity
8
0
100
AcDbCircle
10
184.07980961824279
20
5.2236354718271905
30
0
40
0.99999999999999079
210
0
220
0
230
1
0
LINE
5
316
100
AcDbEntity
8
0
100
AcDbLine
10
100.87980961824277
20
19.600401359342094
30
0
11
100.87980961824277
21
33.600401359342094
31
0
0
LINE
5
317
100
AcDbEntity
8
0
100
AcDbLine
10
19.200990829024796
20
57.599401359342039
30
0
11
15.20088886566649
21
57.599401359342039
31
0
0
CIRCLE
5
318
100
AcDbEntity
8
0
100
AcDbCircle
10
127.42980961824276
20
60.59959864065803
30
0
40
1.0000000000000073
210
0
220
0
230
1
0
CIRCLE
5
319
100
AcDbEntity
8
0
100
AcDbCircle
10
25.200990829024697
20
-6.8715986406579432
30
0
40
1.4999999999999971
210
0
220
0
230
1
0
CIRCLE
5
320
100
AcDbEntity
8
0
100
AcDbCircle
10
18.200888865666492
20
54.599401359342039
30
0
40
0.99999999999999656
210
0
220
0
230
1
0
LWPOLYLINE
5
321
100
AcDbEntity
8
0
100
AcDbPolyline
90
4
70
1
43
0.0
10
177.07980961824279
20
-6.4495986406578876
10
177.07980961824279
20
7.550401359342116
10
163.07980961824282
20
7.5504013593421071
10
163.07980961824282
20
-6.4495986406578965
0
LWPOLYLINE
5
322
100
AcDbEntity
8
0
100
AcDbPolyline
90
4
70
1
43
0.0
10
138.97980961824283
20
-18.499598640657908
10
138.97980961824283
20
-4.4995986406579114
10
124.97980961824281
20
-4.4995986406579203
10
124.97980961824281
20
-18.499598640657915
0
LWPOLYLINE
5
323
100
AcDbEntity
8
0
100
AcDbPolyline
90
4
70
1
43
0.0
10
105.92980961824276
20
-0.49959864065792114
10
105.92980961824281
20
-14.499598640657929
10
119.9298096182428
20
-14.49959864065792
10
119.92980961824276
20
-0.4995986406579167
0
CIRCLE
5
324
100
AcDbEntity
8
0
100
AcDbCircle
10
183.83344480470808
20
-13.945523253202126
30
0
40
1.100000000000003
210
0
220
0
230
1
0
LINE
5
325
100
AcDbEntity
8
0
100
AcDbLine
10
119.92980961824276
20
23.600401359342086
30
0
11
119.92980961824276
21
37.600401359342086
31
0
0
LINE
5
326
100
AcDbEntity
8
0
100
AcDbLine
10
119.42980961824281
20
-63.599598640657931
30
0
11
119.42980961824281
21
-75.649598640657914
31
0
0
LWPOLYLINE
5
327
100
AcDbEntity
8
0
100
AcDbPolyline
90
4
70
1
43
0.0
10
124.97980961824277
20
14.550401359342086
10
124.97980961824277
20
0.55040135934207868
10
138.97980961824277
20
0.55040135934208756
10
138.97980961824277
20
14.550401359342096
0
LINE
5
328
100
AcDbEntity
8
0
100
AcDbLine
10
86.427683906049083
20
-80.649598640657914
30
0
11
86.379809618242803
21
-80.649598640657914
31
0
0
LINE
5
329
100
AcDbEntity
8
0
100
AcDbLine
10
41.112666889798852
20
-73.02971925526225
30
0
11
58.37783023284711
21
-64.9788413691019
31
0
0
LINE
5
330
100
AcDbEntity
8
0
100
AcDbLine
10
62.304809618242786
20
-7.6196601751435367
30
0
11
62.304809618242807
21
-42.399599728442695
31
0
0
LINE
5
331
100
AcDbEntity
8
0
100
AcDbLine
10
124.42980961824281
20
-68.599598640657931
30
0
11
124.42980961824276
21
5.2236354718271638
31
0
0
LINE
5
332
100
AcDbEntity
8
0
100
AcDbLine
10
63.304809618242786
20
-11.49959864065794
30
0
11
63.3048096182428
21
-42.99006069606817
31
0
0
LINE
5
333
100
AcDbEntity
8
0
100
AcDbLine
10
100.8798096182428
20
-37.549598640657919
30
0
11
100.8798096182428
21
-23.549598640657912
31
0
0
LINE
5
334
100
AcDbEntity
8
0
100
AcDbLine
10
40.200990829024832
20
16.59940135934206
30
0
11
40.200990829024704
21
-26.955417867774489
31
-1.7347234759768071e-17
0
LINE
5
335
100
AcDbEntity
8
0
100
AcDbLine
10
81.82980961824282
20
-23.549598640657923
30
0
11
67.829809618242805
21
-23.549598640657933
31
0
0
LINE
5
336
100
AcDbEntity
8
0
100
AcDbLine
10
202.39978071156526
20
63.599598640658066
30
0
11
202.39978071156531
21
-63.599598640657895
31
0
0
LINE
5
337
100
AcDbEntity
8
0
100
AcDbLine
10
67.829809618242805
20
-37.549598640657933
30
0
11
81.82980961824282
21
-37.549598640657926
31
0
0
LINE
5
338
100
AcDbEntity
8
0
100
AcDbLine
10
122.45480961824282
20
-40.074598640657932
30
0
11
141.50480961824283
21
-21.024598640657945
31
0
0
LINE
5
339
100
AcDbEntity
8
0
100
AcDbLine
10
11.200888865666528
20
-14.207896668820874
30
0
11
-0.00022226866697748341
21
-14.207896668820892
31
0
0
CIRCLE
5
340
100
AcDbEntity
8
0
100
AcDbCircle
10
40.20099082902469
20
-6.9554178677749956
30
-1.7347234759768071e-17
40
19.999999999999496
210
0
220
0
230
1
0
LINE
5
341
100
AcDbEntity
8
0
100
AcDbLine
10
67.829809618242805
20
-23.549598640657933
30
0
11
67.829809618242805
21
-37.549598640657933
31
0
0
LINE
5
342
100
AcDbEntity
8
0
100
AcDbLine
10
74.829809618242791
20
-4.4995986406579203
30
0
11
74.829809618242791
21
-18.499598640657933
31
0
0
LINE
5
343
100
AcDbEntity
8
0
100
AcDbLine
10
15.200888865666514
20
15.975587764904553
30
0
11
11.200888865666512
21
15.975587764904549
31
0
0
LINE
5
344
100
AcDbEntity
8
0
100
AcDbLine
10
11.200888865666496
20
45.018434684458022
30
0
11
-0.00011113433350339288
21
45.018434684458015
31
0
0
LINE
5
345
100
AcDbEntity
8
0
100
AcDbLine
10
105.92980961824281
20
-49.599598640657909
30
0
11
146.9984469951788
21
-49.599598640657888
31
0
0
LINE
5
346
100
AcDbEntity
8
0
100
AcDbLine
10
61.304809618242771
20
-2.8816923718673948
30
0
11
61.304809618242793
21
-42.399599728442695
31
0
0
LINE
5
347
100
AcDbEntity
8
0
100
AcDbLine
10
11.200888865666512
20
19.233193376284486
30
0
11
-0.00011113433348976354
21
19.233193376284483
31
0
0
LINE
5
348
100
AcDbEntity
8
0
100
AcDbLine
10
40.20099082902469
20
-6.9554178677749956
30
-1.7347234759768071e-17
11
40.200990829024704
21
-26.955417867774489
31
-1.7347234759768071e-17
0
LINE
5
349
100
AcDbEntity
8
0
100
AcDbLine
10
122.45480961824282
20
-40.074598640657932
30
0
11
141.50480961824283
21
-40.074598640657939
31
0
0
LINE
5
350
100
AcDbEntity
8
0
100
AcDbLine
10
65.304809618242786
20
-1.9745986406579208
30
0
11
65.3048096182428
21
-21.024598640657945
31
0
0
LINE
5
351
100
AcDbEntity
8
0
100
AcDbLine
10
14.998445028225479
20
52.614312716117801
30
0
11
15.200888865666498
21
52.614312716117801
31
0
0
LINE
5
352
100
AcDbEntity
8
0
100
AcDbLine
10
81.82980961824282
20
-18.499598640657933
30
0
11
81.82980961824282
21
-4.4995986406579203
31
0
0
LINE
5
353
100
AcDbEntity
8
0
100
AcDbLine
10
11.200888865666524
20
-7.2078966688208812
30
0
11
-0.0002222686669805806
21
-7.2078966688208901
31
0
0
LINE
5
354
100
AcDbEntity
8
0
100
AcDbLine
10
-0.00011113433350029567
20
38.018434684458015
30
0
11
11.200888865666501
21
38.018434684458015
31
0
0
LINE
5
355
100
AcDbEntity
8
0
100
AcDbLine
10
65.3048096182428
20
-21.024598640657945
30
0
11
74.829809618242791
21
-11.499598640657931
31
0
0
LINE
5
356
100
AcDbEntity
8
0
100
AcDbLine
10
-0.00011113433348777655
20
12.233193376284479
30
0
11
11.200888865666517
21
12.233193376284483
31
0
0
CIRCLE
5
357
100
AcDbEntity
8
0
100
AcDbCircle
10
13.20088886566651
20
15.975587764904549
30
0
40
1
210
0
220
0
230
1
0
LINE
5
358
100
AcDbEntity
8
0
100
AcDbLine
10
65.3048096182428
20
-21.024598640657945
30
0
11
84.354809618242754
21
-1.9745986406579163
31
0
0
LINE
5
359
100
AcDbEntity
8
0
100
AcDbLine
10
100.87980961824277
20
0.55040135934208756
30
0
11
100.87980961824277
21
14.550401359342096
31
0
0
LINE
5
360
100
AcDbEntity
8
0
100
AcDbLine
10
100.8798096182428
20
-18.499598640657922
30
0
11
100.8798096182428
21
-4.4995986406579114
31
0
0
CIRCLE
5
361
100
AcDbEntity
8
0
100
AcDbCircle
10
40.200990829024818
20
36.59940135934206
30
0
40
19.999999999999996
210
0
220
0
230
1
0
LINE
5
362
100
AcDbEntity
8
0
100
AcDbLine
10
40.200990829024818
20
36.59940135934206
30
0
11
60.200990829024818
21
36.599401359342068
31
0
0
LINE
5
363
100
AcDbEntity
8
0
100
AcDbLine
10
81.829809618242777
20
19.600401359342083
30
0
11
81.829809618242777
21
33.600401359342086
31
0
0
LINE
5
364
100
AcDbEntity
8
0
100
AcDbLine
10
28.220898415582617
20
52.614312716117801
30
0
11
52.181083242466997
21
52.614312716117823
31
0
0
ENDSEC
0
SECTION
2
OBJECTS
0
DICTIONARY
5
C
100
AcDbDictionary
3
ACAD_GROUP
350
D
3
ACAD_MLINESTYLE
350
17
0
DICTIONARY
5
D
100
AcDbDictionary
0
DICTIONARY
5
1A
330
C
100
AcDbDictionary
0
DICTIONARY
5
17
100
AcDbDictionary
0
ENDSEC
0
EOF
