0
SECTION
2
HEADER
9
$INSUNITS
70
4
9
$ACADVER
1
AC1014
9
$HANDSEED
5
FFFF
0
ENDSEC
0
SECTION
2
TABLES
0
TABLE
2
VPORT
5
8
100
AcDbSymbolTable
0
ENDTAB
0
TABLE
2
LTYPE
5
5
100
AcDbSymbolTable
0
LTYPE
5
14
100
AcDbSymbolTableRecord
100
AcDbLinetypeTableRecord
2
BYBLOCK
70
0
0
LTYPE
5
15
100
AcDbSymbolTableRecord
100
AcDbLinetypeTableRecord
2
BYLAYER
70
0
0
ENDTAB
0
TABLE
2
LAYER
5
2
100
AcDbSymbolTable
70
2
0
LAYER
5
50
100
AcDbSymbolTableRecord
100
AcDbLayerTableRecord
2
0
70
0
6
CONTINUOUS
0
ENDTAB
0
TABLE
2
STYLE
5
3
100
AcDbSymbolTable
70
1
0
STYLE
5
11
100
AcDbSymbolTableRecord
100
AcDbTextStyleTableRecord
2
STANDARD
70
0
0
ENDTAB
0
TABLE
2
VIEW
5
6
100
AcDbSymbolTable
70
0
0
ENDTAB
0
TABLE
2
UCS
5
7
100
AcDbSymbolTable
70
0
0
ENDTAB
0
TABLE
2
APPID
5
9
100
AcDbSymbolTable
70
2
0
APPID
5
12
100
AcDbSymbolTableRecord
100
AcDbRegAppTableRecord
2
ACAD
70
0
0
ENDTAB
0
TABLE
2
DIMSTYLE
5
A
100
AcDbSymbolTable
70
1
0
ENDTAB
0
TABLE
2
BLOCK_RECORD
5
1
100
AcDbSymbolTable
70
1
0
BLOCK_RECORD
5
1F
100
AcDbSymbolTableRecord
100
AcDbBlockTableRecord
2
*MODEL_SPACE
0
BLOCK_RECORD
5
1B
100
AcDbSymbolTableRecord
100
AcDbBlockTableRecord
2
*PAPER_SPACE
0
ENDTAB
0
ENDSEC
0
SECTION
2
BLOCKS
0
BLOCK
5
20
100
AcDbEntity
100
AcDbBlockBegin
2
*MODEL_SPACE
0
ENDBLK
5
21
100
AcDbEntity
100
AcDbBlockEnd
0
BLOCK
5
1C
100
AcDbEntity
100
AcDbBlockBegin
2
*PAPER_SPACE
0
ENDBLK
5
1D
100
AcDbEntity
100
AcDbBlockEnd
0
ENDSEC
0
SECTION
2
ENTITIES
0
LWPOLYLINE
5
100
100
AcDbEntity
8
0
100
AcDbPolyline
90
4
70
1
43
0.0
10
-177.08003188690978
20
-25.499598640657972
10
-177.08003188690978
20
-11.499598640657975
10
-163.08003188690978
20
-11.499598640657975
10
-163.08003188690978
20
-25.499598640657972
0
LWPOLYLINE
5
101
100
AcDbEntity
8
0
100
AcDbPolyline
90
4
70
1
43
0.0
10
-163.08003188690978
20
7.5504013593420343
10
-163.08003188690978
20
-6.4495986406579675
10
-177.08003188690978
20
-6.4495986406579675
10
-177.08003188690978
20
7.5504013593420343
0
LWPOLYLINE
5
102
100
AcDbEntity
8
0
100
AcDbPolyline
90
4
70
1
43
0.0
10
-144.03003188690977
20
7.5504013593420343
10
-144.03003188690977
20
-6.4495986406579675
10
-158.0300318869098
20
-6.4495986406579675
10
-158.0300318869098
20
7.5504013593420343
0
LWPOLYLINE
5
103
100
AcDbEntity
8
0
100
AcDbPolyline
90
4
70
1
43
0.0
10
-138.98003188690979
20
19.600401359342033
10
-138.98003188690979
20
33.600401359342037
10
-124.98003188690979
20
33.600401359342037
10
-124.98003188690979
20
19.600401359342033
0
LWPOLYLINE
5
104
100
AcDbEntity
8
0
100
AcDbPolyline
90
4
70
1
43
0.0
10
-86.880031886909777
20
19.600401359342047
10
-100.88003188690978
20
19.600401359342047
10
-100.88003188690978
20
33.600401359342051
10
-86.880031886909777
20
33.600401359342051
0
LWPOLYLINE
5
105
100
AcDbEntity
8
0
100
AcDbPolyline
90
2
70
1
43
0.0
10
-119.93003188690977
20
23.60040135934203
10
-119.93003188690977
20
37.600401359342037
0
LWPOLYLINE
5
106
100
AcDbEntity
8
0
100
AcDbPolyline
90
4
70
1
43
0.0
10
-119.93003188690977
20
18.550401359342036
10
-105.93003188690977
20
18.550401359342036
10
-105.93003188690979
20
4.5504013593420307
10
-119.93003188690977
20
4.5504013593420307
0
LINE
5
107
100
AcDbEntity
8
0
100
AcDbLine
10
-100.88003188690978
20
19.600401359342047
30
0
11
-100.88003188690978
21
33.600401359342051
31
0
0
LWPOLYLINE
5
108
100
AcDbEntity
8
0
100
AcDbPolyline
90
4
70
1
43
0.0
10
-177.08003188690978
20
-30.549598640657987
10
-163.08003188690978
20
-30.549598640657987
10
-163.08003188690978
20
-44.549598640657976
10
-177.08003188690978
20
-44.549598640657976
0
LWPOLYLINE
5
109
100
AcDbEntity
8
0
100
AcDbPolyline
90
4
70
1
43
0.0
10
-138.98003188690979
20
-4.4995986406579735
10
-124.98003188690979
20
-4.4995986406579735
10
-124.98003188690979
20
-18.499598640657968
10
-138.98003188690979
20
-18.499598640657968
0
LWPOLYLINE
5
110
100
AcDbEntity
8
0
100
AcDbPolyline
90
4
70
1
43
0.0
10
-158.0300318869098
20
-44.549598640657976
10
-158.0300318869098
20
-30.549598640657987
10
-144.0300318869098
20
-30.549598640657987
10
-144.03003188690977
20
-44.549598640657976
0
LINE
5
111
100
AcDbEntity
8
0
100
AcDbLine
10
-119.93003188690977
20
37.600401359342037
30
0
11
-105.93003188690977
21
37.600401359342037
31
0
0
LWPOLYLINE
5
112
100
AcDbEntity
8
0
100
AcDbPolyline
90
4
70
1
43
0.0
10
-158.0300318869098
20
26.600401359342033
10
-144.0300318869098
20
26.600401359342037
10
-144.03003188690977
20
12.600401359342035
10
-158.03003188690977
20
12.600401359342035
0
LWPOLYLINE
5
113
100
AcDbEntity
8
0
100
AcDbPolyline
90
4
70
1
43
0.0
10
-119.93003188690977
20
-14.499598640657974
10
-119.93003188690977
20
-0.49959864065796777
10
-105.93003188690977
20
-0.49959864065796777
10
-105.93003188690979
20
-14.499598640657974
0
LWPOLYLINE
5
114
100
AcDbEntity
8
0
100
AcDbPolyline
90
4
70
1
43
0.0
10
-119.93003188690977
20
-19.549598640657983
10
-105.93003188690977
20
-19.549598640657983
10
-105.93003188690979
20
-33.549598640657976
10
-119.93003188690979
20
-33.549598640657976
0
LWPOLYLINE
5
115
100
AcDbEntity
8
0
100
AcDbPolyline
90
4
70
1
43
0.0
10
-163.08003188690978
20
26.600401359342037
10
-163.08003188690978
20
12.600401359342037
10
-177.08003188690978
20
12.600401359342035
10
-177.08003188690978
20
26.600401359342037
0
LWPOLYLINE
5
116
100
AcDbEntity
8
0
100
AcDbPolyline
90
4
70
1
43
0.0
10
-158.0300318869098
20
-11.499598640657975
10
-144.0300318869098
20
-11.499598640657975
10
-144.03003188690977
20
-25.499598640657972
10
-158.03003188690977
20
-25.499598640657972
0
LINE
5
117
100
AcDbEntity
8
0
100
AcDbLine
10
-105.93003188690979
20
23.60040135934203
30
0
11
-119.93003188690977
21
23.60040135934203
31
0
0
LWPOLYLINE
5
118
100
AcDbEntity
8
0
100
AcDbPolyline
90
2
70
1
43
0.0
10
-100.88003188690978
20
14.55040135934205
10
-100.88003188690978
20
0.55040135934204537
0
LWPOLYLINE
5
119
100
AcDbEntity
8
0
100
AcDbPolyline
90
4
70
1
43
0.0
10
-67.830031886909779
20
19.600401359342047
10
-81.830031886909779
20
19.600401359342047
10
-81.830031886909779
20
33.600401359342051
10
-67.830031886909779
20
33.600401359342051
0
LWPOLYLINE
5
120
100
AcDbEntity
8
0
100
AcDbPolyline
90
3
70
1
43
0.0
10
-42.334205209838103
20
-69.674180982099443
10
-55.022514228351199
20
-63.757525317729616
10
-36.417549545468304
20
-56.985871963586341
0
LWPOLYLINE
5
121
100
AcDbEntity
8
0
100
AcDbPolyline
90
4
70
1
43
0.0
10
-62.999526268482768
20
-66.20833572440776
10
-67.787808275042096
20
-79.364032415410449
10
-80.943504966044799
20
-74.575750408851121
10
-76.155222959485471
20
-61.42005371784844
0
LWPOLYLINE
5
122
100
AcDbEntity
8
0
100
AcDbPolyline
90
4
70
1
43
0.0
10
-86.380031886909762
20
-75.649598640657956
10
-100.38003188690978
20
-75.649598640657956
10
-100.38003188690978
20
-61.649598640657963
10
-86.380031886909762
20
-61.649598640657963
0
LWPOLYLINE
5
123
100
AcDbEntity
8
0
100
AcDbPolyline
90
4
70
1
43
0.0
10
-100.88003188690978
20
-4.4995986406579558
10
-86.880031886909777
20
-4.4995986406579558
10
-86.880031886909777
20
-18.499598640657968
10
-100.88003188690978
20
-18.499598640657968
0
LWPOLYLINE
5
124
100
AcDbEntity
8
0
100
AcDbPolyline
90
4
70
1
43
0.0
10
-67.830031886909779
20
-18.499598640657968
10
-81.830031886909779
20
-18.499598640657968
10
-81.830031886909779
20
-4.4995986406579558
10
-67.830031886909779
20
-4.4995986406579558
0
LWPOLYLINE
5
125
100
AcDbEntity
8
0
100
AcDbPolyline
90
4
70
1
43
0.0
10
-124.98003188690979
20
0.55040135934202761
10
-138.98003188690979
20
0.55040135934202761
10
-138.98003188690979
20
14.550401359342032
10
-124.98003188690979
20
14.550401359342032
0
CIRCLE
5
126
100
AcDbEntity
8
0
100
AcDbCircle
10
-25.201213097691681
20
-6.8715986406579521
30
0
40
1.4999999999999971
210
0
220
0
230
1
0
LWPOLYLINE
5
127
100
AcDbEntity
8
0
100
AcDbPolyline
90
4
70
1
43
0.0
10
-100.88003188690978
20
-37.549598640657962
10
-100.88003188690978
20
-23.549598640657958
10
-86.880031886909777
20
-23.549598640657958
10
-86.880031886909777
20
-37.549598640657962
0
LINE
5
128
100
AcDbEntity
8
0
100
AcDbLine
10
-105.93003188690977
20
37.600401359342037
30
0
11
-105.93003188690979
21
23.60040135934203
31
0
0
LWPOLYLINE
5
129
100
AcDbEntity
8
0
100
AcDbPolyline
90
4
70
1
43
0.0
10
-79.880031886909777
20
-56.599598640657973
10
-93.880031886909762
20
-56.599598640657973
10
-93.880031886909762
20
-42.599598640657973
10
-79.880031886909777
20
-42.599598640657973
0
LWPOLYLINE
5
130
100
AcDbEntity
8
0
100
AcDbPolyline
90
4
70
1
43
0.0
10
-98.930031886909774
20
-42.599598640657973
10
-98.930031886909774
20
-56.599598640657973
10
-112.93003188690977
20
-56.599598640657973
10
-112.93003188690977
20
-42.599598640657973
0
LINE
5
131
100
AcDbEntity
8
0
100
AcDbLine
10
-55.022514228351199
20
-63.757525317729616
30
0
11
-49.105858563981393
21
-51.069216299216563
31
0
0
LWPOLYLINE
5
132
100
AcDbEntity
8
0
100
AcDbPolyline
90
4
70
1
43
0.0
10
-81.830031886909779
20
14.55040135934205
10
-67.830031886909779
20
14.55040135934205
10
-67.830031886909779
20
0.55040135934204537
10
-81.830031886909779
20
0.55040135934204537
0
LWPOLYLINE
5
133
100
AcDbEntity
8
0
100
AcDbPolyline
90
4
70
1
43
0.0
10
-138.98003188690979
20
-37.549598640657976
10
-138.98003188690979
20
-23.549598640657994
10
-124.98003188690979
20
-23.549598640657994
10
-124.98003188690979
20
-37.549598640657976
0
LWPOLYLINE
5
134
100
AcDbEntity
8
0
100
AcDbPolyline
90
4
70
1
43
0.0
10
-67.830031886909779
20
-37.549598640657962
10
-81.830031886909779
20
-37.549598640657962
10
-81.830031886909779
20
-23.549598640657958
10
-67.830031886909779
20
-23.549598640657958
0
LWPOLYLINE
5
135
100
AcDbEntity
8
0
100
AcDbPolyline
90
4
70
1
43
0.0
10
-105.43003188690977
20
-61.649598640657963
10
-105.43003188690977
20
-75.649598640657956
10
-119.43003188690979
20
-75.649598640657956
10
-119.43003188690979
20
-61.649598640657963
0
CIRCLE
5
136
100
AcDbEntity
8
0
100
AcDbCircle
10
-55.200974284131981
20
-6.8707753857751008
30
0
40
1.4999999999999971
210
0
220
0
230
1
0
LINE
5
137
100
AcDbEntity
8
0
100
AcDbLine
10
-86.880031886909777
20
0.55040135934204537
30
0
11
-100.88003188690978
21
0.55040135934204537
31
0
0
LINE
5
138
100
AcDbEntity
8
0
100
AcDbLine
10
-100.88003188690978
20
-37.549598640657962
30
0
11
-100.88003188690978
21
-23.549598640657958
31
0
0
LWPOLYLINE
5
139
100
AcDbEntity
8
0
100
AcDbPolyline
90
4
70
1
43
0.0
10
-56.48404253812874
20
-48.30719129843628
10
-61.272324544688075
20
-61.462887989438961
10
-74.428021235690807
20
-56.674605982879655
10
-69.63973922913145
20
-43.518909291876909
0
LINE
5
140
100
AcDbEntity
8
0
100
AcDbLine
10
-81.830031886909779
20
-37.549598640657962
30
0
11
-81.830031886909779
21
-23.549598640657958
31
0
0
LINE
5
141
100
AcDbEntity
8
0
100
AcDbLine
10
-49.105858563981393
20
-51.069216299216563
30
0
11
-36.417549545468304
21
-56.985871963586341
31
0
0
LINE
5
142
100
AcDbEntity
8
0
100
AcDbLine
10
-81.830031886909779
20
19.600401359342047
30
0
11
-81.830031886909779
21
33.600401359342051
31
0
0
LINE
5
143
100
AcDbEntity
8
0
100
AcDbLine
10
-86.880031886909777
20
14.55040135934205
30
0
11
-86.880031886909777
21
0.55040135934204537
31
0
0
LINE
5
144
100
AcDbEntity
8
0
100
AcDbLine
10
-81.830031886909779
20
-18.499598640657968
30
0
11
-81.830031886909779
21
-4.4995986406579558
31
0
0
LWPOLYLINE
5
145
100
AcDbEntity
8
0
100
AcDbPolyline
90
4
70
1
43
0.0
10
-44.468427431627703
20
-74.251035306636467
10
-50.385083095997487
20
-86.939344325149506
10
-63.073392114510568
20
-81.022688660779664
10
-57.156736450140784
20
-68.334379642266597
0
LINE
5
146
100
AcDbEntity
8
0
100
AcDbLine
10
-81.830031886909779
20
14.55040135934205
30
0
11
-81.830031886909779
21
0.55040135934204537
31
0
0
LINE
5
147
100
AcDbEntity
8
0
100
AcDbLine
10
-63.305031886909774
20
-7.6196601751435633
30
0
11
-62.305031886909781
21
-7.6196601751435633
31
0
0
LWPOLYLINE
5
148
100
AcDbEntity
8
0
100
AcDbPolyline
90
4
70
1
43
0.0
10
-84.355031886909757
20
-1.9745986406579541
10
-65.305031886909774
20
-1.9745986406579541
10
-84.355031886909757
20
-21.02459864065797
10
-65.305031886909774
20
-21.02459864065797
0
LINE
5
149
100
AcDbEntity
8
0
100
AcDbLine
10
-100.88003188690978
20
-4.4995986406579558
30
0
11
-100.88003188690978
21
-18.499598640657968
31
0
0
LINE
5
150
100
AcDbEntity
8
0
100
AcDbLine
10
-100.88003188690978
20
14.55040135934205
30
0
11
-86.880031886909777
21
14.55040135934205
31
0
0
LWPOLYLINE
5
151
100
AcDbEntity
8
0
100
AcDbPolyline
90
8
70
1
43
0.0
10
-23.219717467464626
20
-13.052972556405438
10
-28.160848298344597
20
-10.955586955100225
42
-0.99999999999999989
10
-28.160848298344668
20
-2.9555869551005376
10
-23.219717467464946
20
-0.85820135379496953
42
0.70248419704100618
10
-57.095475830250066
20
-0.8401625744366914
10
-52.111848298344086
20
-2.9555869551002178
42
-0.99999999999999989
10
-52.111848298344015
20
-10.955586955099923
10
-57.095475830250209
20
-13.071011335762206
42
0.70248419704104159
0
LINE
5
152
100
AcDbEntity
8
0
100
AcDbLine
10
-63.305031886909774
20
-2.8816923718674192
30
0
11
-61.305031886909767
21
-2.8816923718674192
31
0
0
LINE
5
153
100
AcDbEntity
8
0
100
AcDbLine
10
-81.830031886909779
20
-11.499598640657966
30
0
11
-67.830031886909779
21
-11.499598640657966
31
0
0
CIRCLE
5
154
100
AcDbEntity
8
0
100
AcDbCircle
10
-40.201213097691678
20
-6.9554178677750134
30
-1.7347234759768071e-17
40
19.999999999999496
210
0
220
0
230
1
0
LINE
5
155
100
AcDbEntity
8
0
100
AcDbLine
10
-65.305031886909774
20
-1.9745986406579541
30
0
11
-65.305031886909774
21
-11.499598640657966
31
0
0
LINE
5
156
100
AcDbEntity
8
0
100
AcDbLine
10
-63.305031886909774
20
-11.499598640657966
30
0
11
-63.305031886909774
21
-42.990060696068198
31
0
0
LINE
5
157
100
AcDbEntity
8
0
100
AcDbLine
10
-65.305031886909774
20
-11.499598640657966
30
0
11
-63.305031886909774
21
-11.499598640657966
31
0
0
LINE
5
158
100
AcDbEntity
8
0
100
AcDbLine
10
-62.305031886909781
20
-7.6196601751435633
30
0
11
-62.305031886909774
21
-42.399599728442738
31
0
0
LINE
5
159
100
AcDbEntity
8
0
100
AcDbLine
10
-84.355031886909757
20
-21.02459864065797
30
0
11
-84.355031886909757
21
-1.9745986406579541
31
0
0
LINE
5
160
100
AcDbEntity
8
0
100
AcDbLine
10
-74.830031886909779
20
-4.4995986406579558
30
0
11
-74.830031886909779
21
-18.499598640657968
31
0
0
LINE
5
161
100
AcDbEntity
8
0
100
AcDbLine
10
-65.305031886909774
20
-1.9745986406579541
30
0
11
-65.305031886909774
21
-21.02459864065797
31
0
0
LINE
5
162
100
AcDbEntity
8
0
100
AcDbLine
10
-63.305031886909774
20
-11.499598640657966
30
0
11
-63.305031886909774
21
35.60040135934203
31
0
0
CIRCLE
5
163
100
AcDbEntity
8
0
100
AcDbCircle
10
-84.355031886909757
20
-1.9745986406579541
30
0
40
2.4999999999999991
210
0
220
0
230
1
0
LINE
5
164
100
AcDbEntity
8
0
100
AcDbLine
10
-65.305031886909774
20
-21.02459864065797
30
0
11
-74.830031886909779
21
-11.499598640657966
31
0
0
LINE
5
165
100
AcDbEntity
8
0
100
AcDbLine
10
-61.305031886909767
20
-2.8816923718674192
30
0
11
-61.305031886909767
21
-42.399599728442738
31
0
0
CIRCLE
5
166
100
AcDbEntity
8
0
100
AcDbCircle
10
-102.42790617471606
20
-82.649598640657985
30
0
40
1.1000000000000005
210
0
220
0
230
1
0
CIRCLE
5
167
100
AcDbEntity
8
0
100
AcDbCircle
10
-183.83366707337504
20
-13.945523253202206
30
0
40
1.100000000000003
210
0
220
0
230
1
0
CIRCLE
5
168
100
AcDbEntity
8
0
100
AcDbCircle
10
-40.201213097691813
20
36.599401359342039
30
0
40
20
210
0
220
0
230
1
0
LINE
5
169
100
AcDbEntity
8
0
100
AcDbLine
10
-40.201213097691813
20
36.599401359342039
30
0
11
-60.201213097691813
21
36.599401359342039
31
0
0
LINE
5
170
100
AcDbEntity
8
0
100
AcDbLine
10
-40.201213097691813
20
36.599401359342039
30
0
11
-40.201213097691813
21
16.599401359342043
31
0
0
LINE
5
171
100
AcDbEntity
8
0
100
AcDbLine
10
-40.201213097691813
20
36.599401359341812
30
0
11
-20.201213097691813
21
36.599401359341805
31
0
0
CIRCLE
5
172
100
AcDbEntity
8
0
100
AcDbCircle
10
-40.201213097691813
20
36.599401359342039
30
0
40
19.999999999999996
210
0
220
0
230
1
0
LINE
5
173
100
AcDbEntity
8
0
100
AcDbLine
10
-40.201213097691678
20
-6.9554178677750134
30
-1.7347234759768071e-17
11
-60.201213097691173
21
-6.9554178677750134
31
-1.7347234759768071e-17
0
LINE
5
174
100
AcDbEntity
8
0
100
AcDbLine
10
-40.201213097691678
20
-6.9554178677750134
30
-1.7347234759768071e-17
11
-20.20121309769219
21
-6.9554178677752443
31
-1.7347234759768071e-17
0
LINE
5
175
100
AcDbEntity
8
0
100
AcDbLine
10
-40.201213097691678
20
-6.9554178677750134
30
-1.7347234759768071e-17
11
-40.201213097691678
21
-26.955417867774507
31
-1.7347234759768071e-17
0
LINE
5
176
100
AcDbEntity
8
0
100
AcDbLine
10
-40.201213097691678
20
-6.9554178677750134
30
-1.7347234759768071e-17
11
-40.201213097691678
21
13.044582132224482
31
-1.7347234759768071e-17
0
LINE
5
177
100
AcDbEntity
8
0
100
AcDbLine
10
-40.201213097691813
20
16.599401359342043
30
0
11
-40.201213097691678
21
-26.955417867774507
31
-1.7347234759768071e-17
0
LINE
5
178
100
AcDbEntity
8
0
100
AcDbLine
10
-20.20121309769219
20
-6.9554178677752443
30
-1.7347234759768071e-17
11
-20.201213097691813
21
36.599401359341805
31
0
0
LINE
5
179
100
AcDbEntity
8
0
100
AcDbLine
10
-60.201213097691813
20
36.599401359342039
30
0
11
-60.201213097691173
21
-6.9554178677750134
31
-1.7347234759768071e-17
0
LWPOLYLINE
5
180
100
AcDbEntity
8
0
100
AcDbPolyline
90
4
70
1
43
0.0
10
-122.45503188690978
20
-40.074598640657982
10
-141.50503188690979
20
-40.074598640658003
10
-141.50503188690979
20
-21.024598640658006
10
-122.45503188690978
20
-21.024598640657992
0
LINE
5
181
100
AcDbEntity
8
0
100
AcDbLine
10
-122.45503188690978
20
-40.074598640657982
30
0
11
-141.50503188690979
21
-21.024598640658006
31
0
0
LINE
5
182
100
AcDbEntity
8
0
100
AcDbLine
10
-141.50503188690979
20
-40.074598640658003
30
0
11
-122.45503188690978
21
-21.024598640657992
31
0
0
LWPOLYLINE
5
183
100
AcDbEntity
8
0
100
AcDbPolyline
90
4
70
1
43
0.0
10
-96.405031886909782
20
-59.124598640657965
10
-115.45503188690979
20
-59.124598640657965
10
-115.45503188690979
20
-40.074598640657975
10
-96.405031886909782
20
-40.074598640657975
0
LINE
5
184
100
AcDbEntity
8
0
100
AcDbLine
10
-96.405031886909782
20
-59.124598640657965
30
0
11
-115.45503188690979
21
-40.074598640657975
31
0
0
LINE
5
185
100
AcDbEntity
8
0
100
AcDbLine
10
-115.45503188690979
20
-59.124598640657965
30
0
11
-96.405031886909782
21
-40.074598640657975
31
0
0
LWPOLYLINE
5
186
100
AcDbEntity
8
0
100
AcDbPolyline
90
5
70
1
43
0.0
10
-137.9800318869101
20
-49.549598640658104
10
-137.9800318869101
20
-43.599598640658115
10
-125.98003188691011
20
-43.59959864065813
10
-125.98003188691011
20
-55.599598640658094
10
-137.9800318869101
20
-55.599598640658087
0
CIRCLE
5
187
100
AcDbEntity
8
0
100
AcDbCircle
10
-131.98003188691013
20
-49.599598640657973
30
0
40
1.0000000000000044
210
0
220
0
230
1
0
LWPOLYLINE
5
188
100
AcDbEntity
8
0
100
AcDbPolyline
90
4
70
1
43
0.0
10
-31.840695220933206
20
-59.120094185376857
10
-19.152386202420118
20
-65.036749849746627
10
-25.069041866789917
20
-77.725058868259737
10
-37.757350885303012
20
-71.808403203889924
0
LWPOLYLINE
5
189
100
AcDbEntity
8
0
100
AcDbPolyline
90
4
70
1
43
0.0
10
-39.891573107093514
20
-76.385257528425015
10
-27.203264088580426
20
-82.301913192794771
10
-33.119919752950231
20
-94.990222211307895
10
-45.808228771463313
20
-89.073566546938068
0
LINE
5
190
100
AcDbEntity
8
0
100
AcDbLine
10
-49.105858563981393
20
-51.069216299216563
30
0
11
-42.334205209838103
21
-69.674180982099443
31
0
0
LWPOLYLINE
5
191
100
AcDbEntity
8
0
100
AcDbPolyline
90
4
70
1
43
0.0
10
-41.112889158465798
20
-73.029719255262265
10
-58.378052501514063
20
-64.978841369101914
10
-50.327174615353705
20
-47.713678026053678
10
-33.062011272305448
20
-55.76455591221405
0
LINE
5
192
100
AcDbEntity
8
0
100
AcDbLine
10
-41.112889158465798
20
-73.029719255262265
30
0
11
-50.327174615353705
21
-47.713678026053678
31
0
0
LINE
5
193
100
AcDbEntity
8
0
100
AcDbLine
10
-58.378052501514063
20
-64.978841369101914
30
0
11
-33.062011272305448
21
-55.76455591221405
31
0
0
LWPOLYLINE
5
194
100
AcDbEntity
8
0
100
AcDbPolyline
90
4
70
1
43
0.0
10
-33.062011272305426
20
-55.764555912213893
10
-15.796847929257201
20
-63.815433798374258
10
-23.84772581541754
20
-81.08059714142243
10
-41.112889158465777
20
-73.029719255262094
0
LWPOLYLINE
5
195
100
AcDbEntity
8
0
100
AcDbPolyline
90
4
70
1
43
0.0
10
-51.138775825667693
20
-24.79769596057529
10
-9.4486176219832689
20
-44.238136000646634
10
-17.055746333315511
20
-60.551676167305715
10
-58.745904536999944
20
-41.111236127234406
0
LINE
5
196
100
AcDbEntity
8
0
100
AcDbLine
10
-131.98003188690979
20
-30.549598640657997
30
0
11
-131.98003188690979
21
-56.385688908108776
31
0
0
LINE
5
197
100
AcDbEntity
8
0
100
AcDbLine
10
-105.93003188690979
20
-49.599598640657973
30
0
11
-146.99866926384576
21
-49.599598640657973
31
0
0
LINE
5
198
100
AcDbEntity
8
0
100
AcDbLine
10
-119.43003188690979
20
-63.599598640657973
30
0
11
-119.43003188690979
21
-75.649598640657956
31
0
0
LWPOLYLINE
5
199
100
AcDbEntity
8
0
100
AcDbPolyline
90
37
70
1
43
0.0
10
-4.6192697874484079
20
-45.70138903703139
10
-1.6609419552635001
20
-39.357234527774814
10
-15.201111134333507
20
-33.043349946860197
10
-15.201111134333507
20
-16.024412235095458
10
-11.201111134333505
20
-16.024412235095458
10
-11.201111134333503
20
15.975587764904544
10
-11.201111134333502
20
47.975587764904546
10
-15.201111134333502
20
47.975587764904546
10
-15.2011111343335
20
57.599401359342025
10
-25.201111134333498
20
57.599401359342039
10
-25.201111134333502
20
63.599598640657959
10
-74.998667296892478
20
63.599598640657966
10
-74.998667296892478
20
57.599401359342039
10
-124.43003188690977
20
57.599401359342039
10
-124.43003188690977
20
63.599598640657966
10
-172.08003188690978
20
63.599598640657973
10
-172.08003188690978
20
57.599401359342039
10
-182.08003188690978
20
57.599401359342039
10
-182.08003188690978
20
37.223635471827109
10
-186.08003188690975
20
37.223635471827109
10
-186.08003188690975
20
-26.776364528172891
10
-183.06845229633697
20
-26.776364528172891
10
-183.06845229633697
20
-63.599598640657973
10
-141.50503188690979
20
-63.599598640657973
10
-124.43003188690979
20
-80.649598640657956
10
-118.42790617471606
20
-80.649598640657956
10
-118.42790617471606
20
-84.64959864065797
10
-102.42790617471606
20
-84.64959864065797
10
-86.427906174716057
20
-84.64959864065797
10
-86.427906174716057
20
-80.649598640657956
10
-80.943504966044799
20
-80.649598640657956
10
-30.701472126470396
20
-101.63485245519446
10
-23.999644883069912
20
-87.262737551662681
10
-20.374413734923301
20
-88.953210598625461
10
-14.035139808812806
20
-75.358593793075727
10
-7.6958658827023037
20
-61.763976987525986
10
-11.321097030848883
20
-60.073503940563199
0
LINE
5
200
100
AcDbEntity
8
0
100
AcDbLine
10
-124.43003188690979
20
-68.599598640657973
30
0
11
-124.43003188690979
21
-80.649598640657956
31
0
0
LINE
5
201
100
AcDbEntity
8
0
100
AcDbLine
10
-40.201213097691813
20
36.599401359342039
30
0
11
-40.201213097691813
21
57.599401359342039
31
0
0
LINE
5
202
100
AcDbEntity
8
0
100
AcDbLine
10
-19.201213097691806
20
57.599401359342025
30
0
11
-15.2011111343335
21
57.599401359342025
31
0
0
LINE
5
203
100
AcDbEntity
8
0
100
AcDbLine
10
-40.201213097691813
20
36.599401359342039
30
0
11
-19.201213097691809
21
36.599401359342039
31
0
0
LINE
5
204
100
AcDbEntity
8
0
100
AcDbLine
10
-30.293696723825477
20
-34.517915980610958
30
0
11
-37.900825435157735
21
-50.83145614727006
31
0
0
LINE
5
205
100
AcDbEntity
8
0
100
AcDbLine
10
-45.720031886909766
20
-60.371698640657982
30
0
11
-41.694592943829612
21
-51.739116969133853
31
0
0
LINE
5
206
100
AcDbEntity
8
0
100
AcDbLine
10
-41.694592943829612
20
-51.739116969133853
30
0
11
-36.418149076620281
21
-40.423746580223217
31
0
0
LINE
5
207
100
AcDbEntity
8
0
100
AcDbLine
10
-19.152386202420118
20
-65.036749849746627
30
0
11
-11.770756090532934
21
-49.20679299016281
31
0
0
LINE
5
208
100
AcDbEntity
8
0
100
AcDbLine
10
-186.08003188690975
20
5.2236354718271105
30
0
11
-15.201111134333505
21
5.2236354718271016
31
0
0
LINE
5
209
100
AcDbEntity
8
0
100
AcDbLine
10
-17.660370956959401
20
-73.668120746112933
30
0
11
-14.035139808812806
21
-75.358593793075727
31
0
0
LINE
5
210
100
AcDbEntity
8
0
100
AcDbLine
10
-102.42790617471606
20
-80.649598640657956
30
0
11
-102.42790617471606
21
-84.64959864065797
31
0
0
LINE
5
211
100
AcDbEntity
8
0
100
AcDbLine
10
-15.201111134333505
20
15.975587764904544
30
0
11
-11.201111134333503
21
15.975587764904544
31
0
0
LINE
5
212
100
AcDbEntity
8
0
100
AcDbLine
10
-86.427906174716057
20
-80.649598640657956
30
0
11
-86.380031886909762
21
-80.649598640657956
31
0
0
LINE
5
213
100
AcDbEntity
8
0
100
AcDbLine
10
-124.43003188690979
20
-68.599598640657973
30
0
11
-124.43003188690977
21
5.2236354718271087
31
0
0
LINE
5
214
100
AcDbEntity
8
0
100
AcDbLine
10
-14.998667296892485
20
52.614312716117794
30
0
11
-15.201111134333502
21
52.614312716117794
31
0
0
LINE
5
215
100
AcDbEntity
8
0
100
AcDbLine
10
-28.221120684249627
20
52.614312716117794
30
0
11
-52.181305511134006
21
52.614312716117794
31
0
0
LINE
5
216
100
AcDbEntity
8
0
100
AcDbLine
10
-202.40000298023222
20
63.599598640657973
30
0
11
-202.40000298023222
21
-63.599598640657973
31
0
0
CIRCLE
5
217
100
AcDbEntity
8
0
100
AcDbCircle
10
-179.08003188690975
20
54.599401359342039
30
0
40
1
210
0
220
0
230
1
0
CIRCLE
5
218
100
AcDbEntity
8
0
100
AcDbCircle
10
-184.08003188690975
20
5.2236354718271105
30
0
40
0.99999999999999079
210
0
220
0
230
1
0
CIRCLE
5
219
100
AcDbEntity
8
0
100
AcDbCircle
10
-15.847755382886104
20
-74.513357269594337
30
0
40
0.99999999999999734
210
0
220
0
230
1
0
CIRCLE
5
220
100
AcDbEntity
8
0
100
AcDbCircle
10
-13.201111134333502
20
15.975587764904544
30
0
40
1
210
0
220
0
230
1
0
CIRCLE
5
221
100
AcDbEntity
8
0
100
AcDbCircle
10
-127.43003188690977
20
60.599598640657966
30
0
40
1.0000000000000073
210
0
220
0
230
1
0
CIRCLE
5
222
100
AcDbEntity
8
0
100
AcDbCircle
10
-71.998667296892492
20
60.599598640657966
30
0
40
0.99999999999999889
210
0
220
0
230
1
0
CIRCLE
5
223
100
AcDbEntity
8
0
100
AcDbCircle
10
-18.201111134333502
20
54.599401359342032
30
0
40
0.99999999999999656
210
0
220
0
230
1
0
CIRCLE
5
224
100
AcDbEntity
8
0
100
AcDbCircle
10
-180.06845229633697
20
-60.599598640657973
30
0
40
1.0000000000000091
210
0
220
0
230
1
0
LINE
5
225
100
AcDbEntity
8
0
100
AcDbLine
10
-11.201111134333502
20
45.018434684458015
30
0
11
-4.9991111343335
21
45.018434684458015
31
0
0
LINE
5
226
100
AcDbEntity
8
0
100
AcDbLine
10
-4.9991111343335
20
45.018434684458015
30
0
11
-4.9991111343335
21
38.018434684458015
31
0
0
LINE
5
227
100
AcDbEntity
8
0
100
AcDbLine
10
-4.9991111343335
20
38.018434684458015
30
0
11
-11.201111134333502
21
38.018434684458015
31
0
0
LINE
5
228
100
AcDbEntity
8
0
100
AcDbLine
10
-11.201111134333505
20
-14.207896668820883
30
0
11
-4.9991111343335053
21
-14.207896668820883
31
0
0
LINE
5
229
100
AcDbEntity
8
0
100
AcDbLine
10
-4.9991111343335053
20
-14.207896668820883
30
0
11
-4.9991111343335053
21
-7.2078966688208821
31
0
0
LINE
5
230
100
AcDbEntity
8
0
100
AcDbLine
10
-4.9991111343335053
20
-7.2078966688208821
30
0
11
-11.201111134333505
21
-7.2078966688208821
31
0
0
LINE
5
231
100
AcDbEntity
8
0
100
AcDbLine
10
-11.201111134333503
20
19.233193376284483
30
0
11
-4.9991111343335026
21
19.233193376284483
31
0
0
LINE
5
232
100
AcDbEntity
8
0
100
AcDbLine
10
-4.9991111343335026
20
19.233193376284483
30
0
11
-4.9991111343335026
21
12.233193376284479
31
0
0
LINE
5
233
100
AcDbEntity
8
0
100
AcDbLine
10
-4.9991111343335026
20
12.233193376284479
30
0
11
-11.201111134333503
21
12.233193376284479
31
0
0
LINE
5
234
100
AcDbEntity
8
0
100
AcDbLine
10
-4.9991111343335
20
45.018434684458015
30
0
11
-4.9991111343335
21
33.000000491738319
31
0
0
LWPOLYLINE
5
235
100
AcDbEntity
8
0
100
AcDbPolyline
90
4
70
1
43
0.0
10
90.881809618242769
20
-4.4995986406579558
10
76.881809618242769
20
-4.4995986406579558
10
76.881809618242769
20
-18.499598640657968
10
90.881809618242769
20
-18.499598640657968
0
LWPOLYLINE
5
236
100
AcDbEntity
8
0
100
AcDbPolyline
90
4
70
1
43
0.0
10
76.881809618242769
20
0.55040135934204315
10
90.881809618242769
20
0.55040135934204315
10
90.881809618242769
20
14.55040135934205
10
76.881809618242769
20
14.55040135934205
0
LWPOLYLINE
5
237
100
AcDbEntity
8
0
100
AcDbPolyline
90
4
70
1
43
0.0
10
90.881809618242769
20
33.600401359342051
10
76.881809618242769
20
33.600401359342051
10
76.881809618242769
20
19.600401359342044
10
90.881809618242769
20
19.600401359342044
0
LINE
5
238
100
AcDbEntity
8
0
100
AcDbLine
10
176.08180961824277
20
5.2236354718271105
30
0
11
5.2028888656665035
21
5.2236354718271016
31
0
0
CIRCLE
5
239
100
AcDbEntity
8
0
100
AcDbCircle
10
62.000445028225492
20
60.599598640657966
30
0
40
0.99999999999999889
210
0
220
0
230
1
0
CIRCLE
5
240
100
AcDbEntity
8
0
100
AcDbCircle
10
30.20299082902482
20
36.599401359342039
30
0
40
19.999999999999996
210
0
220
0
230
1
0
LINE
5
241
100
AcDbEntity
8
0
100
AcDbLine
10
30.20299082902482
20
36.599401359342039
30
0
11
50.20299082902482
21
36.599401359342039
31
0
0
LWPOLYLINE
5
242
100
AcDbEntity
8
0
100
AcDbPolyline
90
2
70
1
43
0.0
10
71.831809618242787
20
19.600401359342044
10
71.831809618242787
20
33.600401359342051
0
LINE
5
243
100
AcDbEntity
8
0
100
AcDbLine
10
30.20299082902482
20
36.599401359341812
30
0
11
10.202990829024813
21
36.599401359341805
31
0
0
LINE
5
244
100
AcDbEntity
8
0
100
AcDbLine
10
30.20299082902482
20
36.599401359342039
30
0
11
30.20299082902482
21
16.599401359342039
31
0
0
LINE
5
245
100
AcDbEntity
8
0
100
AcDbLine
10
30.20299082902482
20
36.599401359342039
30
0
11
9.2029908290248095
21
36.599401359342039
31
0
0
CIRCLE
5
246
100
AcDbEntity
8
0
100
AcDbCircle
10
30.20299082902482
20
36.599401359342039
30
0
40
20
210
0
220
0
230
1
0
LINE
5
247
100
AcDbEntity
8
0
100
AcDbLine
10
18.222898415582623
20
52.614312716117794
30
0
11
42.183083242467006
21
52.614312716117794
31
0
0
LINE
5
248
100
AcDbEntity
8
0
100
AcDbLine
10
30.20299082902482
20
36.599401359342039
30
0
11
30.20299082902482
21
57.599401359342039
31
0
0
LINE
5
249
100
AcDbEntity
8
0
100
AcDbLine
10
71.831809618242787
20
33.600401359342051
30
0
11
57.831809618242779
21
33.600401359342051
31
0
0
LWPOLYLINE
5
250
100
AcDbEntity
8
0
100
AcDbPolyline
90
37
70
1
43
0.0
10
15.2028888656665
20
57.599401359342039
10
15.2028888656665
20
63.599598640657959
10
65.000445028225485
20
63.599598640657966
10
65.000445028225485
20
57.599401359342039
10
114.43180961824275
20
57.599401359342039
10
114.43180961824275
20
63.599598640657966
10
162.0818096182428
20
63.599598640657973
10
162.0818096182428
20
57.599401359342039
10
172.0818096182428
20
57.599401359342039
10
172.0818096182428
20
37.223635471827109
10
176.08180961824277
20
37.223635471827109
10
176.08180961824277
20
-26.776364528172891
10
173.07023002766999
20
-26.776364528172891
10
173.07023002766999
20
-63.599598640657973
10
131.50680961824278
20
-63.599598640657973
10
114.43180961824277
20
-80.649598640657956
10
108.42968390604904
20
-80.649598640657956
10
108.42968390604904
20
-84.64959864065797
10
92.429683906049036
20
-84.64959864065797
10
76.42968390604905
20
-84.64959864065797
10
76.42968390604905
20
-80.649598640657956
10
70.945282697377806
20
-80.649598640657956
10
20.703249857803392
20
-101.63485245519446
10
14.001422614402909
20
-87.262737551662681
10
10.376191466256302
20
-88.953210598625461
10
4.0369175401458062
20
-75.358593793075727
10
-2.3023563859646967
20
-61.763976987525993
10
1.3228747621818826
20
-60.073503940563199
10
-5.3789524812185929
20
-45.701389037031397
10
-8.3372803134035003
20
-39.357234527774814
10
5.2028888656665062
20
-33.043349946860197
10
5.2028888656665062
20
-16.024412235095458
10
1.2028888656665049
20
-16.024412235095458
10
1.2028888656665027
20
15.975587764904544
10
1.2028888656665004
20
47.975587764904546
10
5.2028888656665018
20
47.975587764904546
10
5.2028888656665
20
57.599401359342025
0
LINE
5
251
100
AcDbEntity
8
0
100
AcDbLine
10
1.2028888656665004
20
45.018434684458015
30
0
11
-4.9991111343335
21
45.018434684458015
31
0
0
LWPOLYLINE
5
252
100
AcDbEntity
8
0
100
AcDbPolyline
90
4
70
1
43
0.0
10
148.03180961824279
20
-30.549598640657987
10
134.03180961824279
20
-30.549598640657987
10
134.03180961824276
20
-44.549598640657962
10
148.03180961824279
20
-44.549598640657962
0
LWPOLYLINE
5
253
100
AcDbEntity
8
0
100
AcDbPolyline
90
3
70
1
43
0.0
10
39.107636295314393
20
-51.069216299216549
10
32.33598294117111
20
-69.674180982099443
10
45.024291959684206
20
-63.757525317729609
0
LWPOLYLINE
5
254
100
AcDbEntity
8
0
100
AcDbPolyline
90
4
70
1
43
0.0
10
167.0818096182428
20
-11.499598640657975
10
153.08180961824277
20
-11.499598640657975
10
153.08180961824277
20
-25.499598640657972
10
167.0818096182428
20
-25.499598640657972
0
LWPOLYLINE
5
255
100
AcDbEntity
8
0
100
AcDbPolyline
90
4
70
1
43
0.0
10
134.03180961824276
20
-25.499598640657972
10
148.03180961824276
20
-25.499598640657972
10
148.03180961824279
20
-11.499598640657975
10
134.03180961824279
20
-11.499598640657975
0
LWPOLYLINE
5
256
100
AcDbEntity
8
0
100
AcDbPolyline
90
4
70
1
43
0.0
10
167.0818096182428
20
-6.4495986406579675
10
167.0818096182428
20
7.550401359342036
10
153.08180961824277
20
7.550401359342036
10
153.08180961824277
20
-6.4495986406579675
0
CIRCLE
5
257
100
AcDbEntity
8
0
100
AcDbCircle
10
173.83544480470806
20
-13.945523253202206
30
0
40
1.100000000000003
210
0
220
0
230
1
0
LWPOLYLINE
5
258
100
AcDbEntity
8
0
100
AcDbPolyline
90
4
70
1
43
0.0
10
134.03180961824276
20
7.550401359342036
10
134.03180961824276
20
-6.4495986406579675
10
148.03180961824279
20
-6.4495986406579675
10
148.03180961824279
20
7.550401359342036
0
LINE
5
259
100
AcDbEntity
8
0
100
AcDbLine
10
7.662148688292401
20
-73.668120746112933
30
0
11
4.0369175401458062
21
-75.358593793075727
31
0
0
LWPOLYLINE
5
260
100
AcDbEntity
8
0
100
AcDbPolyline
90
4
70
1
43
0.0
10
128.98180961824278
20
-18.499598640657968
10
128.98180961824278
20
-4.4995986406579735
10
114.98180961824276
20
-4.4995986406579735
10
114.98180961824276
20
-18.499598640657968
0
LWPOLYLINE
5
261
100
AcDbEntity
8
0
100
AcDbPolyline
90
4
70
1
43
0.0
10
148.03180961824276
20
12.600401359342035
10
148.03180961824279
20
26.600401359342033
10
134.03180961824279
20
26.600401359342037
10
134.03180961824276
20
12.600401359342035
0
LINE
5
262
100
AcDbEntity
8
0
100
AcDbLine
10
26.419327276801312
20
-56.985871963586348
30
0
11
32.33598294117111
21
-69.674180982099443
31
0
0
CIRCLE
5
263
100
AcDbEntity
8
0
100
AcDbCircle
10
169.0818096182428
20
54.599401359342039
30
0
40
1
210
0
220
0
230
1
0
LWPOLYLINE
5
264
100
AcDbEntity
8
0
100
AcDbPolyline
90
4
70
1
43
0.0
10
128.98180961824278
20
19.600401359342037
10
128.98180961824278
20
33.600401359342037
10
114.98180961824276
20
33.600401359342037
10
114.98180961824276
20
19.600401359342037
0
LWPOLYLINE
5
265
100
AcDbEntity
8
0
100
AcDbPolyline
90
4
70
1
43
0.0
10
167.0818096182428
20
-30.549598640657987
10
153.08180961824277
20
-30.549598640657987
10
153.08180961824277
20
-44.549598640657962
10
167.0818096182428
20
-44.549598640657962
0
LWPOLYLINE
5
266
100
AcDbEntity
8
0
100
AcDbPolyline
90
4
70
1
43
0.0
10
167.0818096182428
20
12.600401359342035
10
167.0818096182428
20
26.600401359342037
10
153.08180961824277
20
26.600401359342037
10
153.08180961824277
20
12.600401359342035
0
LINE
5
267
100
AcDbEntity
8
0
100
AcDbLine
10
35.721809618242766
20
-60.371698640657982
30
0
11
31.696370675162619
21
-51.739116969133853
31
0
0
CIRCLE
5
268
100
AcDbEntity
8
0
100
AcDbCircle
10
174.0818096182428
20
5.2236354718271105
30
0
40
0.99999999999999079
210
0
220
0
230
1
0
LINE
5
269
100
AcDbEntity
8
0
100
AcDbLine
10
39.107636295314393
20
-51.069216299216549
30
0
11
26.419327276801312
21
-56.985871963586348
31
0
0
LINE
5
270
100
AcDbEntity
8
0
100
AcDbLine
10
26.419327276801312
20
-56.985871963586348
30
0
11
45.024291959684206
21
-63.757525317729609
31
0
0
LWPOLYLINE
5
271
100
AcDbEntity
8
0
100
AcDbPolyline
90
3
70
1
43
0.0
10
23.063789003638455
20
-55.764555912214043
10
31.114666889798805
20
-73.029719255262265
10
48.37983023284707
20
-64.978841369101914
0
LINE
5
272
100
AcDbEntity
8
0
100
AcDbLine
10
1.2028888656665049
20
-14.207896668820883
30
0
11
-4.9991111343334964
21
-14.207896668820883
31
0
0
LINE
5
273
100
AcDbEntity
8
0
100
AcDbLine
10
-4.9991111343335
20
38.018434684458015
30
0
11
1.2028888656665004
21
38.018434684458015
31
0
0
LINE
5
274
100
AcDbEntity
8
0
100
AcDbLine
10
-4.9991111343334982
20
12.233193376284479
30
0
11
1.2028888656665027
21
12.233193376284479
31
0
0
LINE
5
275
100
AcDbEntity
8
0
100
AcDbLine
10
-4.9991111343334964
20
-14.207896668820883
30
0
11
-4.9991111343334964
21
-7.2078966688208812
31
0
0
CIRCLE
5
276
100
AcDbEntity
8
0
100
AcDbCircle
10
3.2028888656665
20
15.975587764904544
30
0
40
1
210
0
220
0
230
1
0
LINE
5
277
100
AcDbEntity
8
0
100
AcDbLine
10
-4.9991111343334982
20
19.233193376284483
30
0
11
-4.9991111343334982
21
12.233193376284479
31
0
0
LINE
5
278
100
AcDbEntity
8
0
100
AcDbLine
10
1.2028888656665027
20
19.233193376284483
30
0
11
-4.9991111343334982
21
19.233193376284483
31
0
0
LINE
5
279
100
AcDbEntity
8
0
100
AcDbLine
10
-4.9991111343335
20
45.018434684458015
30
0
11
-4.9991111343335
21
38.018434684458015
31
0
0
LINE
5
280
100
AcDbEntity
8
0
100
AcDbLine
10
5.2028888656665035
20
15.975587764904544
30
0
11
1.2028888656665027
21
15.975587764904544
31
0
0
LWPOLYLINE
5
281
100
AcDbEntity
8
0
100
AcDbPolyline
90
4
70
1
43
0.0
10
114.98180961824276
20
-23.549598640657994
10
114.98180961824276
20
-37.549598640657969
10
128.98180961824278
20
-37.549598640657969
10
128.98180961824278
20
-23.549598640657994
0
LINE
5
282
100
AcDbEntity
8
0
100
AcDbLine
10
53.306809618242781
20
-2.8816923718674214
30
0
11
51.306809618242767
21
-2.8816923718674214
31
0
0
LWPOLYLINE
5
283
100
AcDbEntity
8
0
100
AcDbPolyline
90
2
70
1
43
0.0
10
71.831809618242787
20
14.55040135934205
10
71.831809618242787
20
0.55040135934204315
0
LWPOLYLINE
5
284
100
AcDbEntity
8
0
100
AcDbPolyline
90
4
70
1
43
0.0
10
76.381809618242769
20
-75.649598640657956
10
90.381809618242755
20
-75.649598640657956
10
90.381809618242755
20
-61.64959864065797
10
76.381809618242769
20
-61.64959864065797
0
LWPOLYLINE
5
285
100
AcDbEntity
8
0
100
AcDbPolyline
90
3
70
1
43
0.0
10
74.356809618242764
20
-1.9745986406579519
10
55.306809618242774
20
-1.9745986406579519
10
74.356809618242764
20
-21.02459864065797
0
LWPOLYLINE
5
286
100
AcDbEntity
8
0
100
AcDbPolyline
90
4
70
1
43
0.0
10
-0.54960464668373232
20
-44.238136000646627
10
7.0575240646485105
20
-60.551676167305722
10
48.747682268332952
20
-41.111236127234399
10
41.1405535570007
20
-24.79769596057529
0
LWPOLYLINE
5
287
100
AcDbEntity
8
0
100
AcDbPolyline
90
4
70
1
43
0.0
10
59.641516960464457
20
-43.518909291876902
10
46.48582026946174
20
-48.307191298436265
10
51.274102276021083
20
-61.462887989438968
10
64.429798967023814
20
-56.67460598287964
0
LINE
5
288
100
AcDbEntity
8
0
100
AcDbLine
10
71.831809618242787
20
-11.499598640657966
30
0
11
57.831809618242779
21
-11.499598640657966
31
0
0
LWPOLYLINE
5
289
100
AcDbEntity
8
0
100
AcDbPolyline
90
4
70
1
43
0.0
10
90.881809618242769
20
-37.549598640657969
10
90.881809618242769
20
-23.549598640657958
10
76.881809618242769
20
-23.549598640657958
10
76.881809618242769
20
-37.549598640657969
0
LINE
5
290
100
AcDbEntity
8
0
100
AcDbLine
10
57.831809618242779
20
14.55040135934205
30
0
11
57.831809618242779
21
0.55040135934204315
31
0
0
LINE
5
291
100
AcDbEntity
8
0
100
AcDbLine
10
55.306809618242781
20
-11.499598640657966
30
0
11
53.306809618242781
21
-11.499598640657966
31
0
0
LWPOLYLINE
5
292
100
AcDbEntity
8
0
100
AcDbPolyline
90
4
70
1
43
0.0
10
71.831809618242787
20
-4.4995986406579558
10
57.831809618242779
20
-4.4995986406579558
10
57.831809618242779
20
-18.499598640657968
10
71.831809618242787
20
-18.499598640657968
0
LINE
5
293
100
AcDbEntity
8
0
100
AcDbLine
10
112.45680961824277
20
-40.074598640657982
30
0
11
131.50680961824278
21
-21.024598640658006
31
0
0
LINE
5
294
100
AcDbEntity
8
0
100
AcDbLine
10
71.831809618242787
20
14.55040135934205
30
0
11
57.831809618242779
21
14.55040135934205
31
0
0
LINE
5
295
100
AcDbEntity
8
0
100
AcDbLine
10
55.306809618242774
20
-1.9745986406579519
30
0
11
55.306809618242781
21
-11.499598640657966
31
0
0
LWPOLYLINE
5
296
100
AcDbEntity
8
0
100
AcDbPolyline
90
4
70
1
43
0.0
10
53.075169845843568
20
-81.022688660779664
10
47.158514181473791
20
-68.334379642266597
10
34.47020516296071
20
-74.251035306636467
10
40.386860827330494
20
-86.939344325149506
0
LWPOLYLINE
5
297
100
AcDbEntity
8
0
100
AcDbPolyline
90
5
70
1
43
0.0
10
115.9818096182431
20
-43.599598640658115
10
115.9818096182431
20
-55.599598640658094
10
127.98180961824308
20
-55.599598640658073
10
127.98180961824308
20
-49.549598640658104
10
127.98180961824308
20
-43.599598640658115
0
LWPOLYLINE
5
298
100
AcDbEntity
8
0
100
AcDbPolyline
90
4
70
1
43
0.0
10
70.945282697377806
20
-74.575750408851121
10
66.157000690818478
20
-61.420053717848447
10
53.001303999815768
20
-66.20833572440776
10
57.789586006375096
20
-79.364032415410449
0
LWPOLYLINE
5
299
100
AcDbEntity
8
0
100
AcDbPolyline
90
4
70
1
43
0.0
10
83.881809618242755
20
-56.59959864065798
10
83.881809618242755
20
-42.599598640657959
10
69.881809618242784
20
-42.599598640657959
10
69.881809618242784
20
-56.59959864065798
0
CIRCLE
5
300
100
AcDbEntity
8
0
100
AcDbCircle
10
170.07023002766999
20
-60.599598640657966
30
0
40
1.0000000000000091
210
0
220
0
230
1
0
LWPOLYLINE
5
301
100
AcDbEntity
8
0
100
AcDbPolyline
90
4
70
1
43
0.0
10
88.931809618242767
20
-42.599598640657959
10
88.931809618242767
20
-56.59959864065798
10
102.93180961824277
20
-56.59959864065798
10
102.93180961824277
20
-42.599598640657959
0
LINE
5
302
100
AcDbEntity
8
0
100
AcDbLine
10
55.306809618242781
20
-21.02459864065797
30
0
11
74.356809618242764
21
-1.9745986406579519
31
0
0
LWPOLYLINE
5
303
100
AcDbEntity
8
0
100
AcDbPolyline
90
4
70
1
43
0.0
10
114.98180961824276
20
0.55040135934202539
10
128.98180961824278
20
0.55040135934202539
10
128.98180961824278
20
14.550401359342032
10
114.98180961824276
20
14.550401359342032
0
LINE
5
304
100
AcDbEntity
8
0
100
AcDbLine
10
51.306809618242767
20
-2.8816923718674214
30
0
11
51.306809618242767
21
-42.399599728442723
31
0
0
LWPOLYLINE
5
305
100
AcDbEntity
8
0
100
AcDbPolyline
90
4
70
1
43
0.0
10
95.931809618242767
20
-33.549598640657976
10
109.93180961824278
20
-33.549598640657976
10
109.93180961824277
20
-19.549598640657983
10
95.931809618242752
20
-19.549598640657983
0
LINE
5
306
100
AcDbEntity
8
0
100
AcDbLine
10
76.42968390604905
20
-80.649598640657956
30
0
11
76.381809618242769
21
-80.649598640657956
31
0
0
LWPOLYLINE
5
307
100
AcDbEntity
8
0
100
AcDbPolyline
90
4
70
1
43
0.0
10
105.45680961824277
20
-59.124598640657958
10
105.45680961824277
20
-40.074598640657982
10
86.406809618242761
20
-40.074598640657982
10
86.406809618242761
20
-59.124598640657958
0
LWPOLYLINE
5
308
100
AcDbEntity
8
0
100
AcDbPolyline
90
4
70
1
43
0.0
10
95.431809618242767
20
-61.64959864065797
10
95.431809618242767
20
-75.649598640657956
10
109.43180961824277
20
-75.649598640657956
10
109.43180961824277
20
-61.64959864065797
0
LINE
5
309
100
AcDbEntity
8
0
100
AcDbLine
10
55.306809618242781
20
-21.02459864065797
30
0
11
64.831809618242772
21
-11.499598640657966
31
0
0
CIRCLE
5
310
100
AcDbEntity
8
0
100
AcDbCircle
10
121.98180961824309
20
-49.599598640657973
30
0
40
1.0000000000000044
210
0
220
0
230
1
0
LINE
5
311
100
AcDbEntity
8
0
100
AcDbLine
10
105.45680961824277
20
-59.124598640657958
30
0
11
86.406809618242761
21
-40.074598640657982
31
0
0
LINE
5
312
100
AcDbEntity
8
0
100
AcDbLine
10
86.406809618242761
20
-59.124598640657958
30
0
11
105.45680961824277
21
-40.074598640657982
31
0
0
LWPOLYLINE
5
313
100
AcDbEntity
8
0
100
AcDbPolyline
90
4
70
1
43
0.0
10
131.50680961824278
20
-21.024598640658006
10
112.45680961824277
20
-21.024598640657992
10
112.45680961824277
20
-40.074598640657982
10
131.50680961824278
20
-40.074598640658003
0
LWPOLYLINE
5
314
100
AcDbEntity
8
0
100
AcDbPolyline
90
4
70
1
43
0.0
10
21.84247295226621
20
-59.120094185376864
10
9.154163933753118
20
-65.036749849746627
10
15.07081959812292
20
-77.725058868259737
10
27.759128616636019
20
-71.808403203889924
0
LINE
5
315
100
AcDbEntity
8
0
100
AcDbLine
10
109.43180961824277
20
-63.599598640657973
30
0
11
109.43180961824277
21
-75.649598640657956
31
0
0
LINE
5
316
100
AcDbEntity
8
0
100
AcDbLine
10
52.306809618242781
20
-7.6196601751435633
30
0
11
52.306809618242774
21
-42.399599728442723
31
0
0
LWPOLYLINE
5
317
100
AcDbEntity
8
0
100
AcDbPolyline
90
8
70
1
43
0.0
10
13.221495198797623
20
-13.052972556405438
10
18.1626260296776
20
-10.955586955100225
42
0.99999999999999989
10
18.162626029677671
20
-2.9555869551005376
10
13.22149519879796
20
-0.85820135379498286
42
-0.70248419704100618
10
47.097253561583074
20
-0.8401625744366914
10
42.113626029677093
20
-2.9555869551002001
42
0.99999999999999989
10
42.113626029677022
20
-10.955586955099923
10
47.097253561583202
20
-13.071011335762201
42
-0.70248419704104159
0
LINE
5
318
100
AcDbEntity
8
0
100
AcDbLine
10
30.202990829024685
20
-6.9554178677750134
30
-1.7347234759768071e-17
11
50.202990829024181
21
-6.9554178677750134
31
-1.7347234759768071e-17
0
LINE
5
319
100
AcDbEntity
8
0
100
AcDbLine
10
57.831809618242779
20
33.600401359342051
30
0
11
57.831809618242779
21
19.600401359342044
31
0
0
LINE
5
320
100
AcDbEntity
8
0
100
AcDbLine
10
57.831809618242779
20
19.600401359342044
30
0
11
71.831809618242787
21
19.600401359342044
31
0
0
LINE
5
321
100
AcDbEntity
8
0
100
AcDbLine
10
-4.9991111343334964
20
-7.2078966688208812
30
0
11
1.2028888656665049
21
-7.2078966688208812
31
0
0
LINE
5
322
100
AcDbEntity
8
0
100
AcDbLine
10
5.0004450282254842
20
52.614312716117794
30
0
11
5.2028888656665018
21
52.614312716117794
31
0
0
LINE
5
323
100
AcDbEntity
8
0
100
AcDbLine
10
30.202990829024685
20
-6.9554178677750134
30
-1.7347234759768071e-17
11
30.202990829024685
21
13.04458213222448
31
-1.7347234759768071e-17
0
CIRCLE
5
324
100
AcDbEntity
8
0
100
AcDbCircle
10
15.202990829024683
20
-6.8715986406579521
30
0
40
1.4999999999999971
210
0
220
0
230
1
0
CIRCLE
5
325
100
AcDbEntity
8
0
100
AcDbCircle
10
45.202752015464981
20
-6.8707753857751008
30
0
40
1.4999999999999971
210
0
220
0
230
1
0
LINE
5
326
100
AcDbEntity
8
0
100
AcDbLine
10
30.202990829024685
20
-6.9554178677750134
30
-1.7347234759768071e-17
11
10.202990829025186
21
-6.9554178677752443
31
-1.7347234759768071e-17
0
LINE
5
327
100
AcDbEntity
8
0
100
AcDbLine
10
50.20299082902482
20
36.599401359342039
30
0
11
50.202990829024181
21
-6.9554178677750134
31
-1.7347234759768071e-17
0
LWPOLYLINE
5
328
100
AcDbEntity
8
0
100
AcDbPolyline
90
4
70
1
43
0.0
10
95.931809618242767
20
23.60040135934203
10
109.93180961824277
20
23.60040135934203
10
109.93180961824277
20
37.600401359342037
10
95.931809618242752
20
37.600401359342037
0
LINE
5
329
100
AcDbEntity
8
0
100
AcDbLine
10
109.93180961824277
20
23.60040135934203
30
0
11
109.93180961824277
21
37.600401359342037
31
0
0
LINE
5
330
100
AcDbEntity
8
0
100
AcDbLine
10
57.831809618242779
20
0.55040135934204315
30
0
11
71.831809618242787
21
0.55040135934204315
31
0
0
LINE
5
331
100
AcDbEntity
8
0
100
AcDbLine
10
121.98180961824276
20
-30.549598640657997
30
0
11
121.98180961824278
21
-56.385688908108776
31
0
0
LINE
5
332
100
AcDbEntity
8
0
100
AcDbLine
10
53.306809618242781
20
-11.499598640657966
30
0
11
53.306809618242781
21
35.60040135934203
31
0
0
LINE
5
333
100
AcDbEntity
8
0
100
AcDbLine
10
131.50680961824278
20
-40.074598640658003
30
0
11
112.45680961824277
21
-21.024598640657992
31
0
0
LINE
5
334
100
AcDbEntity
8
0
100
AcDbLine
10
10.202990829025186
20
-6.9554178677752443
30
-1.7347234759768071e-17
11
10.202990829024813
21
36.599401359341805
31
0
0
CIRCLE
5
335
100
AcDbEntity
8
0
100
AcDbCircle
10
8.2028888656665018
20
54.599401359342032
30
0
40
0.99999999999999656
210
0
220
0
230
1
0
LINE
5
336
100
AcDbEntity
8
0
100
AcDbLine
10
20.295474455158484
20
-34.517915980610958
30
0
11
27.902603166490731
21
-50.83145614727006
31
0
0
CIRCLE
5
337
100
AcDbEntity
8
0
100
AcDbCircle
10
117.43180961824277
20
60.599598640657966
30
0
40
1.0000000000000073
210
0
220
0
230
1
0
CIRCLE
5
338
100
AcDbEntity
8
0
100
AcDbCircle
10
74.356809618242764
20
-1.9745986406579519
30
0
40
2.4999999999999991
210
0
220
0
230
1
0
LINE
5
339
100
AcDbEntity
8
0
100
AcDbLine
10
53.306809618242781
20
-7.6196601751435633
30
0
11
52.306809618242781
21
-7.6196601751435633
31
0
0
LINE
5
340
100
AcDbEntity
8
0
100
AcDbLine
10
192.40178071156524
20
63.599598640657973
30
0
11
192.40178071156524
21
-63.599598640657973
31
0
0
LINE
5
341
100
AcDbEntity
8
0
100
AcDbLine
10
9.2029908290248041
20
57.599401359342025
30
0
11
5.2028888656665
21
57.599401359342025
31
0
0
LINE
5
342
100
AcDbEntity
8
0
100
AcDbLine
10
31.696370675162619
20
-51.739116969133853
30
0
11
26.419926807953278
21
-40.423746580223224
31
0
0
LINE
5
343
100
AcDbEntity
8
0
100
AcDbLine
10
53.306809618242781
20
-11.499598640657966
30
0
11
53.306809618242781
21
-42.990060696068191
31
0
0
LWPOLYLINE
5
344
100
AcDbEntity
8
0
100
AcDbPolyline
90
4
70
1
43
0.0
10
71.831809618242787
20
-23.549598640657958
10
57.831809618242779
20
-23.549598640657958
10
57.831809618242779
20
-37.549598640657969
10
71.831809618242787
20
-37.549598640657969
0
LINE
5
345
100
AcDbEntity
8
0
100
AcDbLine
10
90.881809618242769
20
-37.549598640657969
30
0
11
90.881809618242769
21
-23.549598640657958
31
0
0
LINE
5
346
100
AcDbEntity
8
0
100
AcDbLine
10
95.931809618242767
20
-49.599598640657973
30
0
11
137.00044699517875
21
-49.599598640657973
31
0
0
LINE
5
347
100
AcDbEntity
8
0
100
AcDbLine
10
30.202990829024685
20
-6.9554178677750134
30
-1.7347234759768071e-17
11
30.202990829024685
21
-26.955417867774507
31
-1.7347234759768071e-17
0
LINE
5
348
100
AcDbEntity
8
0
100
AcDbLine
10
71.831809618242787
20
-23.549598640657958
30
0
11
71.831809618242787
21
-37.549598640657969
31
0
0
LINE
5
349
100
AcDbEntity
8
0
100
AcDbLine
10
64.831809618242772
20
-4.4995986406579558
30
0
11
64.831809618242772
21
-18.499598640657968
31
0
0
LINE
5
350
100
AcDbEntity
8
0
100
AcDbLine
10
55.306809618242774
20
-1.9745986406579519
30
0
11
55.306809618242781
21
-21.02459864065797
31
0
0
LINE
5
351
100
AcDbEntity
8
0
100
AcDbLine
10
30.20299082902482
20
16.599401359342039
30
0
11
30.202990829024685
21
-26.955417867774507
31
-1.7347234759768071e-17
0
CIRCLE
5
352
100
AcDbEntity
8
0
100
AcDbCircle
10
30.202990829024685
20
-6.9554178677750134
30
-1.7347234759768071e-17
40
19.999999999999496
210
0
220
0
230
1
0
LINE
5
353
100
AcDbEntity
8
0
100
AcDbLine
10
48.37983023284707
20
-64.978841369101914
30
0
11
40.328952346686712
21
-47.713678026053678
31
0
0
LINE
5
354
100
AcDbEntity
8
0
100
AcDbLine
10
114.43180961824277
20
-68.599598640657973
30
0
11
114.43180961824275
21
5.2236354718271105
31
0
0
LINE
5
355
100
AcDbEntity
8
0
100
AcDbLine
10
71.831809618242787
20
-18.499598640657968
30
0
11
71.831809618242787
21
-4.4995986406579558
31
0
0
LINE
5
356
100
AcDbEntity
8
0
100
AcDbLine
10
55.306809618242781
20
-21.02459864065797
30
0
11
74.356809618242764
21
-21.02459864065797
31
0
0
LWPOLYLINE
5
357
100
AcDbEntity
8
0
100
AcDbPolyline
90
4
70
1
43
0.0
10
31.114666889798777
20
-73.029719255262094
10
23.063789003638426
20
-55.764555912213901
10
5.7986256605901998
20
-63.815433798374251
10
13.84950354675054
20
-81.08059714142243
0
LINE
5
358
100
AcDbEntity
8
0
100
AcDbLine
10
114.43180961824277
20
-68.599598640657973
30
0
11
114.43180961824277
21
-80.649598640657956
31
0
0
LINE
5
359
100
AcDbEntity
8
0
100
AcDbLine
10
90.881809618242769
20
19.600401359342044
30
0
11
90.881809618242769
21
33.600401359342051
31
0
0
LWPOLYLINE
5
360
100
AcDbEntity
8
0
100
AcDbPolyline
90
4
70
1
43
0.0
10
17.205041819913426
20
-82.301913192794771
10
23.121697484283228
20
-94.990222211307895
10
35.810006502796313
20
-89.073566546938068
10
29.893350838426514
20
-76.385257528425015
0
LWPOLYLINE
5
361
100
AcDbEntity
8
0
100
AcDbPolyline
90
4
70
1
43
0.0
10
95.931809618242767
20
4.5504013593420289
10
109.93180961824277
20
4.5504013593420289
10
109.93180961824277
20
18.550401359342032
10
95.931809618242752
20
18.550401359342032
0
LINE
5
362
100
AcDbEntity
8
0
100
AcDbLine
10
90.881809618242769
20
-18.499598640657968
30
0
11
90.881809618242769
21
-4.4995986406579558
31
0
0
LINE
5
363
100
AcDbEntity
8
0
100
AcDbLine
10
40.328952346686712
20
-47.713678026053678
30
0
11
23.063789003638455
21
-55.764555912214043
31
0
0
CIRCLE
5
364
100
AcDbEntity
8
0
100
AcDbCircle
10
92.429683906049036
20
-82.649598640657985
30
0
40
1.1000000000000005
210
0
220
0
230
1
0
LINE
5
365
100
AcDbEntity
8
0
100
AcDbLine
10
31.114666889798805
20
-73.029719255262265
30
0
11
40.328952346686712
21
-47.713678026053678
31
0
0
LINE
5
366
100
AcDbEntity
8
0
100
AcDbLine
10
90.881809618242769
20
14.55040135934205
30
0
11
90.881809618242769
21
0.55040135934204315
31
0
0
LWPOLYLINE
5
367
100
AcDbEntity
8
0
100
AcDbPolyline
90
4
70
1
43
0.0
10
95.931809618242767
20
-14.499598640657974
10
109.93180961824277
20
-14.499598640657974
10
109.93180961824277
20
-0.49959864065796999
10
95.931809618242752
20
-0.49959864065796999
0
CIRCLE
5
368
100
AcDbEntity
8
0
100
AcDbCircle
10
5.8495331142191027
20
-74.513357269594323
30
0
40
0.99999999999999734
210
0
220
0
230
1
0
LINE
5
369
100
AcDbEntity
8
0
100
AcDbLine
10
92.429683906049036
20
-80.649598640657956
30
0
11
92.429683906049036
21
-84.64959864065797
31
0
0
LINE
5
370
100
AcDbEntity
8
0
100
AcDbLine
10
9.154163933753118
20
-65.036749849746627
30
0
11
1.7725338218659337
21
-49.20679299016281
31
0
0
ENDSEC
0
SECTION
2
OBJECTS
0
DICTIONARY
5
C
100
AcDbDictionary
3
ACAD_GROUP
350
D
3
ACAD_MLINESTYLE
350
17
0
DICTIONARY
5
D
100
AcDbDictionary
0
DICTIONARY
5
1A
330
C
100
AcDbDictionary
0
DICTIONARY
5
17
100
AcDbDictionary
0
ENDSEC
0
EOF
