0
SECTION
2
HEADER
9
$INSUNITS
70
4
9
$ACADVER
1
AC1014
9
$HANDSEED
5
FFFF
0
ENDSEC
0
SECTION
2
TABLES
0
TABLE
2
VPORT
5
8
100
AcDbSymbolTable
0
ENDTAB
0
TABLE
2
LTYPE
5
5
100
AcDbSymbolTable
0
LTYPE
5
14
100
AcDbSymbolTableRecord
100
AcDbLinetypeTableRecord
2
BYBLOCK
70
0
0
LTYPE
5
15
100
AcDbSymbolTableRecord
100
AcDbLinetypeTableRecord
2
BYLAYER
70
0
0
ENDTAB
0
TABLE
2
LAYER
5
2
100
AcDbSymbolTable
70
2
0
LAYER
5
50
100
AcDbSymbolTableRecord
100
AcDbLayerTableRecord
2
0
70
0
6
CONTINUOUS
0
ENDTAB
0
TABLE
2
STYLE
5
3
100
AcDbSymbolTable
70
1
0
STYLE
5
11
100
AcDbSymbolTableRecord
100
AcDbTextStyleTableRecord
2
STANDARD
70
0
0
ENDTAB
0
TABLE
2
VIEW
5
6
100
AcDbSymbolTable
70
0
0
ENDTAB
0
TABLE
2
UCS
5
7
100
AcDbSymbolTable
70
0
0
ENDTAB
0
TABLE
2
APPID
5
9
100
AcDbSymbolTable
70
2
0
APPID
5
12
100
AcDbSymbolTableRecord
100
AcDbRegAppTableRecord
2
ACAD
70
0
0
ENDTAB
0
TABLE
2
DIMSTYLE
5
A
100
AcDbSymbolTable
70
1
0
ENDTAB
0
TABLE
2
BLOCK_RECORD
5
1
100
AcDbSymbolTable
70
1
0
BLOCK_RECORD
5
1F
100
AcDbSymbolTableRecord
100
AcDbBlockTableRecord
2
*MODEL_SPACE
0
BLOCK_RECORD
5
1B
100
AcDbSymbolTableRecord
100
AcDbBlockTableRecord
2
*PAPER_SPACE
0
ENDTAB
0
ENDSEC
0
SECTION
2
BLOCKS
0
BLOCK
5
20
100
AcDbEntity
100
AcDbBlockBegin
2
*MODEL_SPACE
0
ENDBLK
5
21
100
AcDbEntity
100
AcDbBlockEnd
0
BLOCK
5
1C
100
AcDbEntity
100
AcDbBlockBegin
2
*PAPER_SPACE
0
ENDBLK
5
1D
100
AcDbEntity
100
AcDbBlockEnd
0
ENDSEC
0
SECTION
2
ENTITIES
0
LINE
5
100
100
AcDbEntity
8
0
100
AcDbLine
10
-122.43003208972367
20
56.601509308132201
30
0
11
-175.08003208972366
21
56.601509308132222
31
0
0
LINE
5
101
100
AcDbEntity
8
0
100
AcDbLine
10
-122.43003208972367
20
56.601509308132201
30
0
11
-72.998667499706343
21
56.601509308132208
31
0
0
LINE
5
102
100
AcDbEntity
8
0
100
AcDbLine
10
-10.82951526169162
20
56.601509308132208
30
0
11
-72.998667499706343
21
56.601509308132208
31
0
0
LINE
5
103
100
AcDbEntity
8
0
100
AcDbLine
10
-10.82951526169162
20
56.601509308132208
30
0
11
-10.82951526169162
21
47.60131202681626
31
0
0
LINE
5
104
100
AcDbEntity
8
0
100
AcDbLine
10
-5.8295152616916193
20
24.776317061767941
30
0
11
-5.8295152616916202
21
47.601312026816245
31
0
0
LINE
5
105
100
AcDbEntity
8
0
100
AcDbLine
10
-175.08003208972366
20
47.601312026816238
30
0
11
-175.08003208972366
21
56.601509308132222
31
0
0
LINE
5
106
100
AcDbEntity
8
0
100
AcDbLine
10
-175.08003208972366
20
47.601312026816238
30
0
11
-180.08003208972369
21
47.601312026816238
31
0
0
LINE
5
107
100
AcDbEntity
8
0
100
AcDbLine
10
-10.82951526169162
20
47.60131202681626
30
0
11
-5.8295152616916202
21
47.601312026816245
31
0
0
LINE
5
108
100
AcDbEntity
8
0
100
AcDbLine
10
-1.8295152616916166
20
24.776317061767941
30
0
11
-5.8295152616916193
21
24.776317061767941
31
0
0
LINE
5
109
100
AcDbEntity
8
0
100
AcDbLine
10
-180.08003208972369
20
47.601312026816238
30
0
11
-180.08003208972366
21
22.225546139301354
31
0
0
LINE
5
110
100
AcDbEntity
8
0
100
AcDbLine
10
-180.08003208972366
20
22.225546139301354
30
0
11
-184.08003208972363
21
22.225546139301358
31
0
0
LINE
5
111
100
AcDbEntity
8
0
100
AcDbLine
10
-184.08003208972363
20
22.225546139301358
30
0
11
-184.08003208972363
21
-41.774454041109166
31
0
0
LINE
5
112
100
AcDbEntity
8
0
100
AcDbLine
10
-184.08003208972363
20
-41.774454041109166
30
0
11
-178.64790809275479
21
-41.77445403601606
31
0
0
LINE
5
113
100
AcDbEntity
8
0
100
AcDbLine
10
-178.64790809275479
20
-41.77445403601606
30
0
11
-178.5540803619605
21
-61.647687973183814
31
0
0
LINE
5
114
100
AcDbEntity
8
0
100
AcDbLine
10
-178.5540803619605
20
-61.647687973183814
30
0
11
-140.19011009088615
21
-61.647687973183814
31
0
0
LINE
5
115
100
AcDbEntity
8
0
100
AcDbLine
10
-122.67689248245321
20
-81.149634073409345
30
0
11
-140.19011009088615
21
-61.647687973183814
31
0
0
LINE
5
116
100
AcDbEntity
8
0
100
AcDbLine
10
-122.67689248245321
20
-81.149634073409345
30
0
11
-116.42790637266873
21
-81.138731867580262
31
0
0
LINE
5
117
100
AcDbEntity
8
0
100
AcDbLine
10
-116.42790637247097
20
-84.647687973183722
30
0
11
-116.42790637266873
21
-81.138731867580262
31
0
0
LINE
5
118
100
AcDbEntity
8
0
100
AcDbLine
10
-100.42790637752995
20
-84.647687973183707
30
0
11
-116.42790637247097
21
-84.647687973183722
31
0
0
LINE
5
119
100
AcDbEntity
8
0
100
AcDbLine
10
-100.42790637752995
20
-84.647687973183707
30
0
11
-84.427906377529951
21
-84.647687973183736
31
0
0
CIRCLE
5
120
100
AcDbEntity
8
0
100
AcDbCircle
10
-100.42790637752995
20
-82.647687973183707
30
0
40
1.1000000000000005
210
0
220
-0
230
1
0
LINE
5
121
100
AcDbEntity
8
0
100
AcDbLine
10
-84.427906377529951
20
-84.647687973183736
30
0
11
-84.427906377529922
21
-80.647687973183722
31
0
0
LINE
5
122
100
AcDbEntity
8
0
100
AcDbLine
10
-84.427906377529922
20
-80.647687973183722
30
0
11
-78.943505168858664
21
-80.647687973183722
31
0
0
LINE
5
123
100
AcDbEntity
8
0
100
AcDbLine
10
-25.007442678360341
20
-103.17587596935631
30
0
11
-78.943505168858664
21
-80.647687973183722
31
0
0
LINE
5
124
100
AcDbEntity
8
0
100
AcDbLine
10
-22.177978293403498
20
-97.108070014481058
30
0
11
-25.007442678360341
21
-103.17587596935631
31
0
0
LINE
5
125
100
AcDbEntity
8
0
100
AcDbLine
10
-18.316549431553529
20
-98.90868386418245
30
0
11
-22.177978293403498
21
-97.108070014481058
31
0
0
LINE
5
126
100
AcDbEntity
8
0
100
AcDbLine
10
-5.8741992930358862
20
-71.609309450344369
30
0
11
-18.316549431553529
21
-98.90868386418245
31
0
0
LINE
5
127
100
AcDbEntity
8
0
100
AcDbLine
10
-9.4994304411824828
20
-69.918836403381576
30
0
11
-5.8741992930358862
21
-71.609309450344369
31
0
0
LINE
5
128
100
AcDbEntity
8
0
100
AcDbLine
10
-9.4994304411824828
20
-69.918836403381576
30
0
11
-5.829515261691613
21
-62.048677903280371
31
0
0
LINE
5
129
100
AcDbEntity
8
0
100
AcDbLine
10
-47.184178382543323
20
-44.971437627532111
30
0
11
-6.6747517851730276
21
-63.861293477353669
31
0
0
LINE
5
130
100
AcDbEntity
8
0
100
AcDbLine
10
-5.829515261691613
20
-62.048677903280371
30
0
11
-5.8295152616916148
21
-39.223682938232059
31
0
0
LINE
5
131
100
AcDbEntity
8
0
100
AcDbLine
10
-1.8295152616916166
20
-39.223682938232059
30
0
11
-5.8295152616916148
21
-39.223682938232059
31
0
0
LINE
5
132
100
AcDbEntity
8
0
100
AcDbLine
10
-1.8295152616916166
20
-38.005001403956939
30
0
11
-1.8295152616916166
21
-39.223682938232059
31
0
0
LINE
5
133
100
AcDbEntity
8
0
100
AcDbLine
10
-1.8295152616916166
20
-38.005001403956939
30
0
11
0
21
-38.005001403956939
31
0
0
LINE
5
134
100
AcDbEntity
8
0
100
AcDbLine
10
0
20
-31.005001403956935
30
0
11
-1.8295152616916166
21
-31.005001403956935
31
0
0
LINE
5
135
100
AcDbEntity
8
0
100
AcDbLine
10
-1.8295152616916166
20
-7.2236829382320611
30
0
11
-1.8295152616916166
21
-31.005001403956935
31
0
0
LINE
5
136
100
AcDbEntity
8
0
100
AcDbLine
10
-1.8295152616916166
20
-7.2236829382320611
30
0
11
-1.8295152616916166
21
15.507926255638091
31
0
0
CIRCLE
5
137
100
AcDbEntity
8
0
100
AcDbCircle
10
-3.8295152616916166
20
-7.2236829382320611
30
0
40
0.99999999999999978
210
0
220
-0
230
1
0
CIRCLE
5
138
100
AcDbEntity
8
0
100
AcDbCircle
10
-33.660848501158476
20
-18.953676287626003
30
0
40
26.100000000000001
210
0
220
-0
230
1
0
CIRCLE
5
139
100
AcDbEntity
8
0
100
AcDbCircle
10
-33.701213300505557
20
-18.953507200300777
30
0
40
19.999999999999496
210
0
220
-0
230
1
0
LWPOLYLINE
5
140
100
AcDbEntity
8
0
100
AcDbPolyline
90
8
70
1
43
0.0
10
-21.660848501158554
20
-14.953676287626301
10
-16.719717670278836
20
-12.856290686320733
42
0.70248419704100606
10
-50.59547603306396
20
-12.838251906962444
10
-45.611848501157972
20
-14.953676287625971
42
-0.99999999999999989
10
-45.611848501157901
20
-22.953676287625662
10
-50.595476033064074
20
-25.069100668287962
42
0.70248419704104137
10
-16.719717670278499
20
-25.051061888931208
10
-21.660848501158476
20
-22.953676287625989
42
-0.99999999999999989
0
CIRCLE
5
141
100
AcDbEntity
8
0
100
AcDbCircle
10
-47.700974486945867
20
-18.868864718300856
30
0
40
1.4999999999999971
210
0
220
-0
230
1
0
LINE
5
142
100
AcDbEntity
8
0
100
AcDbLine
10
-33.660848501158476
20
-18.953676287626003
30
0
11
-53.701213300505053
21
-18.953507200301061
31
0
0
LINE
5
143
100
AcDbEntity
8
0
100
AcDbLine
10
-33.701213300505557
20
-18.953507200300777
30
0
11
-33.701213300505863
21
-45.053645074637487
31
0
0
LINE
5
144
100
AcDbEntity
8
0
100
AcDbLine
10
-33.701213300505557
20
-18.953507200300777
30
0
11
-13.701213300506074
21
-18.953507200301008
31
0
0
LINE
5
145
100
AcDbEntity
8
0
100
AcDbLine
10
-33.660848501158476
20
-18.953676287626003
30
0
11
-33.660848501158689
21
48.101271293849152
31
0
0
CIRCLE
5
146
100
AcDbEntity
8
0
100
AcDbCircle
10
-19.701213300505568
20
-18.869687973183716
30
0
40
1.4999999999999971
210
0
220
-0
230
1
0
CIRCLE
5
147
100
AcDbEntity
8
0
100
AcDbCircle
10
-33.7012133005057
20
29.101312026816281
30
0
40
20
210
0
220
-0
230
1
0
LINE
5
148
100
AcDbEntity
8
0
100
AcDbLine
10
-13.701213300505701
20
28.101312026816103
30
0
11
-53.7012133005057
21
28.101312026815979
31
0
0
LINE
5
149
100
AcDbEntity
8
0
100
AcDbLine
10
0
20
15.507926255638091
30
0
11
-1.8295152616916166
21
15.507926255638091
31
0
0
LINE
5
150
100
AcDbEntity
8
0
100
AcDbLine
10
-1.8295152616916166
20
22.507926255638093
30
0
11
0
21
22.507926255638093
31
0
0
LINE
5
151
100
AcDbEntity
8
0
100
AcDbLine
10
-1.8295152616916166
20
22.507926255638093
30
0
11
-1.8295152616916166
21
24.776317061767941
31
0
0
LINE
5
152
100
AcDbEntity
8
0
100
AcDbLine
10
-47.184178382543323
20
-44.971437627532111
30
0
11
-52.629682916655241
21
-43.21046888618865
31
0
0
LINE
5
153
100
AcDbEntity
8
0
100
AcDbLine
10
-61.305032089723653
20
-11.49768797318373
30
0
11
-61.305032089723653
21
37.602312026816286
31
0
0
LINE
5
154
100
AcDbEntity
8
0
100
AcDbLine
10
-61.305032089723653
20
-11.49768797318373
30
0
11
-61.305032089723653
21
-40.191763541326409
31
0
0
LINE
5
155
100
AcDbEntity
8
0
100
AcDbLine
10
-61.305032089723653
20
37.602312026816286
30
0
11
-101.43003208972367
21
37.602312026816286
31
0
0
LINE
5
156
100
AcDbEntity
8
0
100
AcDbLine
10
-101.43003208972367
20
41.602312026816278
30
0
11
-101.43003208972367
21
37.602312026816286
31
0
0
LINE
5
157
100
AcDbEntity
8
0
100
AcDbLine
10
-101.43003208972367
20
41.602312026816278
30
0
11
-120.48003208972368
21
41.602312026816264
31
0
0
LINE
5
158
100
AcDbEntity
8
0
100
AcDbLine
10
-120.48003208972368
20
41.602312026816264
30
0
11
-120.48003208972368
21
37.602312026816271
31
0
0
LINE
5
159
100
AcDbEntity
8
0
100
AcDbLine
10
-120.48003208972368
20
37.602312026816271
30
0
11
-139.5300320897237
21
37.602312026816278
31
0
0
LINE
5
160
100
AcDbEntity
8
0
100
AcDbLine
10
-139.5300320897237
20
37.602312026816278
30
0
11
-139.5300320897237
21
30.602312026816278
31
0
0
LINE
5
161
100
AcDbEntity
8
0
100
AcDbLine
10
-139.5300320897237
20
30.602312026816278
30
0
11
-180.08003208972366
21
30.6023120268162
31
0
0
CIRCLE
5
162
100
AcDbEntity
8
0
100
AcDbCircle
10
-175.57078805867098
20
-58.101823187835905
30
0
40
1.0000000000000091
210
0
220
-0
230
1
0
CIRCLE
5
163
100
AcDbEntity
8
0
100
AcDbCircle
10
-177.08003208972366
20
44.601312026816288
30
0
40
1
210
0
220
-0
230
1
0
CIRCLE
5
164
100
AcDbEntity
8
0
100
AcDbCircle
10
-124.43003208972365
20
54.601509308132208
30
0
40
1.0000000000000073
210
0
220
-0
230
1
0
CIRCLE
5
165
100
AcDbEntity
8
0
100
AcDbCircle
10
-70.998667499706357
20
54.601509308132208
30
0
40
0.99999999999999889
210
0
220
-0
230
1
0
LINE
5
166
100
AcDbEntity
8
0
100
AcDbLine
10
-52.629682916655241
20
-43.21046888618865
30
0
11
-61.305032089723653
21
-40.191763541326409
31
0
0
LINE
5
167
100
AcDbEntity
8
0
100
AcDbLine
10
0
20
-38.005001403956939
30
0
11
0
21
-45.000000670552254
31
0
0
CIRCLE
5
168
100
AcDbEntity
8
0
100
AcDbCircle
10
-7.8295152616916202
20
44.60131202681626
30
0
40
1
210
0
220
-0
230
1
0
CIRCLE
5
169
100
AcDbEntity
8
0
100
AcDbCircle
10
-14.829515261691618
20
-84.39868797318374
30
0
40
1
210
0
220
-0
230
1
0
LINE
5
170
100
AcDbEntity
8
0
100
AcDbLine
10
184.08003208972363
20
-41.774454041109166
30
0
11
178.64790809275479
21
-41.77445403601606
31
0
0
LINE
5
171
100
AcDbEntity
8
0
100
AcDbLine
10
184.08003208972363
20
22.225546139301358
30
0
11
184.08003208972363
21
-41.774454041109166
31
0
0
LINE
5
172
100
AcDbEntity
8
0
100
AcDbLine
10
122.67689248245321
20
-81.149634073409345
30
0
11
140.19011009088615
21
-61.647687973183814
31
0
0
LINE
5
173
100
AcDbEntity
8
0
100
AcDbLine
10
122.43003208972367
20
56.601509308132208
30
0
11
72.998667499706343
21
56.601509308132208
31
0
0
CIRCLE
5
174
100
AcDbEntity
8
0
100
AcDbCircle
10
3.8295152616916166
20
-7.2236829382320611
30
0
40
0.99999999999999978
210
0
220
-0
230
1
0
LWPOLYLINE
5
175
100
AcDbEntity
8
0
100
AcDbPolyline
90
8
70
1
43
0.0
10
50.59547603306396
20
-12.838251906962444
42
0.70248419704100606
10
16.719717670278836
20
-12.856290686320735
10
21.660848501158554
20
-14.953676287626298
42
-0.99999999999999989
10
21.660848501158476
20
-22.953676287625989
10
16.719717670278499
20
-25.051061888931208
42
0.70248419704104137
10
50.595476033064074
20
-25.069100668287962
10
45.611848501157901
20
-22.953676287625662
42
-0.99999999999999989
10
45.611848501157972
20
-14.953676287625971
0
CIRCLE
5
176
100
AcDbEntity
8
0
100
AcDbCircle
10
19.701213300505568
20
-18.869687973183716
30
0
40
1.4999999999999971
210
0
220
-0
230
1
0
CIRCLE
5
177
100
AcDbEntity
8
0
100
AcDbCircle
10
47.700974486945867
20
-18.868864718300856
30
0
40
1.4999999999999971
210
0
220
-0
230
1
0
LINE
5
178
100
AcDbEntity
8
0
100
AcDbLine
10
1.8295152616916166
20
24.776317061767941
30
0
11
5.8295152616916193
21
24.776317061767941
31
0
0
LINE
5
179
100
AcDbEntity
8
0
100
AcDbLine
10
10.82951526169162
20
56.601509308132208
30
0
11
10.82951526169162
21
47.601312026816245
31
0
0
LINE
5
180
100
AcDbEntity
8
0
100
AcDbLine
10
33.660848501158476
20
-18.953676287626003
30
0
11
33.660848501158689
21
48.101271293849138
31
0
0
CIRCLE
5
181
100
AcDbEntity
8
0
100
AcDbCircle
10
33.7012133005057
20
29.101312026816288
30
0
40
20
210
0
220
-0
230
1
0
LINE
5
182
100
AcDbEntity
8
0
100
AcDbLine
10
0
20
-31.005001403956935
30
0
11
1.8295152616916166
21
-31.005001403956935
31
0
0
LINE
5
183
100
AcDbEntity
8
0
100
AcDbLine
10
0
20
15.507926255638091
30
0
11
1.8295152616916166
21
15.507926255638091
31
0
0
LINE
5
184
100
AcDbEntity
8
0
100
AcDbLine
10
116.42790637247097
20
-84.647687973183722
30
0
11
116.42790637266873
21
-81.138731867580262
31
0
0
LINE
5
185
100
AcDbEntity
8
0
100
AcDbLine
10
100.42790637752995
20
-84.647687973183707
30
0
11
116.42790637247097
21
-84.647687973183722
31
0
0
LINE
5
186
100
AcDbEntity
8
0
100
AcDbLine
10
1.8295152616916166
20
-38.005001403956939
30
0
11
0
21
-38.005001403956939
31
0
0
CIRCLE
5
187
100
AcDbEntity
8
0
100
AcDbCircle
10
175.57078805867098
20
-58.101823187835905
30
0
40
1.0000000000000091
210
0
220
-0
230
1
0
LINE
5
188
100
AcDbEntity
8
0
100
AcDbLine
10
1.8295152616916166
20
22.507926255638093
30
0
11
0
21
22.507926255638093
31
0
0
LINE
5
189
100
AcDbEntity
8
0
100
AcDbLine
10
178.64790809275479
20
-41.77445403601606
30
0
11
178.5540803619605
21
-61.647687973183814
31
0
0
LINE
5
190
100
AcDbEntity
8
0
100
AcDbLine
10
122.67689248245321
20
-81.149634073409345
30
0
11
116.42790637266873
21
-81.138731867580262
31
0
0
CIRCLE
5
191
100
AcDbEntity
8
0
100
AcDbCircle
10
100.42790637752995
20
-82.647687973183707
30
0
40
1.1000000000000005
210
0
220
-0
230
1
0
LINE
5
192
100
AcDbEntity
8
0
100
AcDbLine
10
178.5540803619605
20
-61.647687973183814
30
0
11
140.19011009088615
21
-61.647687973183814
31
0
0
LINE
5
193
100
AcDbEntity
8
0
100
AcDbLine
10
100.42790637752995
20
-84.647687973183707
30
0
11
84.427906377529951
21
-84.647687973183736
31
0
0
LINE
5
194
100
AcDbEntity
8
0
100
AcDbLine
10
61.305032089723653
20
37.602312026816278
30
0
11
101.43003208972367
21
37.602312026816278
31
0
0
LINE
5
195
100
AcDbEntity
8
0
100
AcDbLine
10
84.427906377529951
20
-84.647687973183736
30
0
11
84.427906377529922
21
-80.647687973183722
31
0
0
LINE
5
196
100
AcDbEntity
8
0
100
AcDbLine
10
84.427906377529922
20
-80.647687973183722
30
0
11
78.943505168858664
21
-80.647687973183722
31
0
0
LINE
5
197
100
AcDbEntity
8
0
100
AcDbLine
10
9.4994304411824828
20
-69.918836403381576
30
0
11
5.829515261691613
21
-62.048677903280371
31
0
0
LINE
5
198
100
AcDbEntity
8
0
100
AcDbLine
10
1.8295152616916166
20
-39.223682938232059
30
0
11
5.8295152616916148
21
-39.223682938232059
31
0
0
LINE
5
199
100
AcDbEntity
8
0
100
AcDbLine
10
18.316549431553529
20
-98.90868386418245
30
0
11
22.177978293403498
21
-97.108070014481058
31
0
0
LINE
5
200
100
AcDbEntity
8
0
100
AcDbLine
10
47.184178382543323
20
-44.971437627532111
30
0
11
6.6747517851730276
21
-63.861293477353669
31
0
0
LINE
5
201
100
AcDbEntity
8
0
100
AcDbLine
10
9.4994304411824828
20
-69.918836403381576
30
0
11
5.8741992930358862
21
-71.609309450344369
31
0
0
CIRCLE
5
202
100
AcDbEntity
8
0
100
AcDbCircle
10
70.998667499706357
20
54.601509308132215
30
0
40
0.99999999999999889
210
0
220
-0
230
1
0
LINE
5
203
100
AcDbEntity
8
0
100
AcDbLine
10
5.8741992930358862
20
-71.609309450344369
30
0
11
18.316549431553529
21
-98.90868386418245
31
0
0
LINE
5
204
100
AcDbEntity
8
0
100
AcDbLine
10
13.701213300505701
20
28.101312026816103
30
0
11
53.7012133005057
21
28.101312026815979
31
0
0
LINE
5
205
100
AcDbEntity
8
0
100
AcDbLine
10
61.305032089723653
20
-11.49768797318373
30
0
11
61.305032089723653
21
-40.191763541326409
31
0
0
CIRCLE
5
206
100
AcDbEntity
8
0
100
AcDbCircle
10
33.701213300505557
20
-18.953507200300777
30
0
40
19.999999999999496
210
0
220
-0
230
1
0
LINE
5
207
100
AcDbEntity
8
0
100
AcDbLine
10
5.829515261691613
20
-62.048677903280371
30
0
11
5.8295152616916148
21
-39.223682938232059
31
0
0
LINE
5
208
100
AcDbEntity
8
0
100
AcDbLine
10
61.305032089723653
20
-11.49768797318373
30
0
11
61.305032089723653
21
37.602312026816278
31
0
0
CIRCLE
5
209
100
AcDbEntity
8
0
100
AcDbCircle
10
7.8295152616916202
20
44.60131202681626
30
0
40
1
210
0
220
-0
230
1
0
LINE
5
210
100
AcDbEntity
8
0
100
AcDbLine
10
5.8295152616916193
20
24.776317061767941
30
0
11
5.8295152616916202
21
47.601312026816245
31
0
0
LINE
5
211
100
AcDbEntity
8
0
100
AcDbLine
10
47.184178382543323
20
-44.971437627532111
30
0
11
52.629682916655241
21
-43.21046888618865
31
0
0
LINE
5
212
100
AcDbEntity
8
0
100
AcDbLine
10
22.177978293403498
20
-97.108070014481058
30
0
11
25.007442678360341
21
-103.17587596935631
31
0
0
LINE
5
213
100
AcDbEntity
8
0
100
AcDbLine
10
25.007442678360341
20
-103.17587596935631
30
0
11
78.943505168858664
21
-80.647687973183722
31
0
0
LINE
5
214
100
AcDbEntity
8
0
100
AcDbLine
10
1.8295152616916166
20
-38.005001403956939
30
0
11
1.8295152616916166
21
-39.223682938232059
31
0
0
LINE
5
215
100
AcDbEntity
8
0
100
AcDbLine
10
10.82951526169162
20
47.601312026816245
30
0
11
5.8295152616916202
21
47.601312026816245
31
0
0
LINE
5
216
100
AcDbEntity
8
0
100
AcDbLine
10
1.8295152616916166
20
22.507926255638093
30
0
11
1.8295152616916166
21
24.776317061767941
31
0
0
LINE
5
217
100
AcDbEntity
8
0
100
AcDbLine
10
1.8295152616916166
20
-7.2236829382320611
30
0
11
1.8295152616916166
21
15.507926255638091
31
0
0
LINE
5
218
100
AcDbEntity
8
0
100
AcDbLine
10
33.701213300505557
20
-18.953507200300777
30
0
11
13.701213300506074
21
-18.953507200301008
31
0
0
LINE
5
219
100
AcDbEntity
8
0
100
AcDbLine
10
10.82951526169162
20
56.601509308132208
30
0
11
72.998667499706343
21
56.601509308132208
31
0
0
LINE
5
220
100
AcDbEntity
8
0
100
AcDbLine
10
33.660848501158476
20
-18.953676287626003
30
0
11
53.701213300505053
21
-18.953507200301061
31
0
0
LINE
5
221
100
AcDbEntity
8
0
100
AcDbLine
10
52.629682916655241
20
-43.21046888618865
30
0
11
61.305032089723653
21
-40.191763541326409
31
0
0
LINE
5
222
100
AcDbEntity
8
0
100
AcDbLine
10
139.5300320897237
20
30.602312026816278
30
0
11
180.08003208972366
21
30.6023120268162
31
0
0
LINE
5
223
100
AcDbEntity
8
0
100
AcDbLine
10
180.08003208972369
20
47.601312026816245
30
0
11
180.08003208972366
21
22.22554613930135
31
0
0
LINE
5
224
100
AcDbEntity
8
0
100
AcDbLine
10
122.43003208972367
20
56.601509308132208
30
0
11
175.08003208972366
21
56.601509308132208
31
0
0
LINE
5
225
100
AcDbEntity
8
0
100
AcDbLine
10
180.08003208972366
20
22.22554613930135
30
0
11
184.08003208972363
21
22.225546139301358
31
0
0
LINE
5
226
100
AcDbEntity
8
0
100
AcDbLine
10
1.8295152616916166
20
-7.2236829382320611
30
0
11
1.8295152616916166
21
-31.005001403956935
31
0
0
CIRCLE
5
227
100
AcDbEntity
8
0
100
AcDbCircle
10
14.829515261691618
20
-84.39868797318374
30
0
40
1
210
0
220
-0
230
1
0
LINE
5
228
100
AcDbEntity
8
0
100
AcDbLine
10
120.48003208972368
20
37.602312026816271
30
0
11
139.5300320897237
21
37.602312026816278
31
0
0
LINE
5
229
100
AcDbEntity
8
0
100
AcDbLine
10
101.43003208972367
20
41.602312026816278
30
0
11
120.48003208972368
21
41.602312026816264
31
0
0
LINE
5
230
100
AcDbEntity
8
0
100
AcDbLine
10
120.48003208972368
20
41.602312026816264
30
0
11
120.48003208972368
21
37.602312026816271
31
0
0
CIRCLE
5
231
100
AcDbEntity
8
0
100
AcDbCircle
10
33.660848501158476
20
-18.953676287626003
30
0
40
26.100000000000001
210
0
220
-0
230
1
0
LINE
5
232
100
AcDbEntity
8
0
100
AcDbLine
10
175.08003208972366
20
47.601312026816245
30
0
11
180.08003208972369
21
47.601312026816245
31
0
0
CIRCLE
5
233
100
AcDbEntity
8
0
100
AcDbCircle
10
124.43003208972365
20
54.601509308132215
30
0
40
1.0000000000000073
210
0
220
-0
230
1
0
LINE
5
234
100
AcDbEntity
8
0
100
AcDbLine
10
175.08003208972366
20
47.601312026816245
30
0
11
175.08003208972366
21
56.601509308132208
31
0
0
CIRCLE
5
235
100
AcDbEntity
8
0
100
AcDbCircle
10
177.08003208972366
20
44.601312026816274
30
0
40
1
210
0
220
-0
230
1
0
LINE
5
236
100
AcDbEntity
8
0
100
AcDbLine
10
101.43003208972367
20
41.602312026816278
30
0
11
101.43003208972367
21
37.602312026816278
31
0
0
LINE
5
237
100
AcDbEntity
8
0
100
AcDbLine
10
139.5300320897237
20
37.602312026816278
30
0
11
139.5300320897237
21
30.602312026816278
31
0
0
LINE
5
238
100
AcDbEntity
8
0
100
AcDbLine
10
33.701213300505557
20
-18.953507200300777
30
0
11
33.701213300505863
21
-45.053645074637487
31
0
0
ENDSEC
0
SECTION
2
OBJECTS
0
DICTIONARY
5
C
100
AcDbDictionary
3
ACAD_GROUP
350
D
3
ACAD_MLINESTYLE
350
17
0
DICTIONARY
5
D
100
AcDbDictionary
0
DICTIONARY
5
1A
330
C
100
AcDbDictionary
0
DICTIONARY
5
17
100
AcDbDictionary
0
ENDSEC
0
EOF
