0
SECTION
2
HEADER
9
$INSUNITS
70
4
9
$ACADVER
1
AC1014
9
$HANDSEED
5
FFFF
0
ENDSEC
0
SECTION
2
TABLES
0
TABLE
2
VPORT
5
8
100
AcDbSymbolTable
0
ENDTAB
0
TABLE
2
LTYPE
5
5
100
AcDbSymbolTable
0
LTYPE
5
14
100
AcDbSymbolTableRecord
100
AcDbLinetypeTableRecord
2
BYBLOCK
70
0
0
LTYPE
5
15
100
AcDbSymbolTableRecord
100
AcDbLinetypeTableRecord
2
BYLAYER
70
0
0
ENDTAB
0
TABLE
2
LAYER
5
2
100
AcDbSymbolTable
70
2
0
LAYER
5
50
100
AcDbSymbolTableRecord
100
AcDbLayerTableRecord
2
0
70
0
6
CONTINUOUS
0
ENDTAB
0
TABLE
2
STYLE
5
3
100
AcDbSymbolTable
70
1
0
STYLE
5
11
100
AcDbSymbolTableRecord
100
AcDbTextStyleTableRecord
2
STANDARD
70
0
0
ENDTAB
0
TABLE
2
VIEW
5
6
100
AcDbSymbolTable
70
0
0
ENDTAB
0
TABLE
2
UCS
5
7
100
AcDbSymbolTable
70
0
0
ENDTAB
0
TABLE
2
APPID
5
9
100
AcDbSymbolTable
70
2
0
APPID
5
12
100
AcDbSymbolTableRecord
100
AcDbRegAppTableRecord
2
ACAD
70
0
0
ENDTAB
0
TABLE
2
DIMSTYLE
5
A
100
AcDbSymbolTable
70
1
0
ENDTAB
0
TABLE
2
BLOCK_RECORD
5
1
100
AcDbSymbolTable
70
1
0
BLOCK_RECORD
5
1F
100
AcDbSymbolTableRecord
100
AcDbBlockTableRecord
2
*MODEL_SPACE
0
BLOCK_RECORD
5
1B
100
AcDbSymbolTableRecord
100
AcDbBlockTableRecord
2
*PAPER_SPACE
0
ENDTAB
0
ENDSEC
0
SECTION
2
BLOCKS
0
BLOCK
5
20
100
AcDbEntity
100
AcDbBlockBegin
2
*MODEL_SPACE
0
ENDBLK
5
21
100
AcDbEntity
100
AcDbBlockEnd
0
BLOCK
5
1C
100
AcDbEntity
100
AcDbBlockBegin
2
*PAPER_SPACE
0
ENDBLK
5
1D
100
AcDbEntity
100
AcDbBlockEnd
0
ENDSEC
0
SECTION
2
ENTITIES
0
LWPOLYLINE
5
100
100
AcDbEntity
8
0
100
AcDbPolyline
90
33
70
1
43
0.0
10
-184.08003208972363
20
22.225546139301358
10
-184.08003208972363
20
-41.774454041109166
10
-180.09292419774982
20
-41.774454037370894
10
-179.99909646696193
20
-61.647687973183814
10
-140.19011009088615
20
-61.647687973183814
10
-122.67689248245321
20
-81.149634073409345
10
-116.42790637266873
20
-81.138731867580262
10
-116.42790637247097
20
-84.647687973183722
10
-100.42790637752995
20
-84.647687973183707
10
-84.427906377529951
20
-84.647687973183736
10
-84.427906377529922
20
-80.647687973183722
10
-78.943505168858664
20
-80.647687973183722
10
-25.007442678360341
20
-103.17587596935631
10
-22.177978293403498
20
-97.108070014481058
10
-18.316549431553529
20
-98.90868386418245
10
-5.8741992930358862
20
-71.609309450344369
10
-9.4994304411824828
20
-69.918836403381576
10
-6.6747517851730276
20
-63.861293477353669
10
-47.184178382543323
20
-44.971437627532111
10
-52.629682916655241
20
-43.21046888618865
10
-61.305032089723653
20
-40.191763541326409
10
-61.305032089723653
20
-11.49768797318373
10
-61.305032089723653
20
56.601509308132208
10
-72.998667499706343
20
56.601509308132208
10
-103.93003208972365
20
56.601509308132201
10
-103.93003208972365
20
51.601509308132201
10
-117.93003208972367
20
51.601509308132201
10
-117.93003208972367
20
56.601509308132201
10
-122.43003208972367
20
56.601509308132201
10
-175.08003208972366
20
56.601509308132222
10
-175.08003208972366
20
47.601312026816238
10
-180.08003208972369
20
47.601312026816238
10
-180.08003208972366
20
22.225546139301354
0
CIRCLE
5
101
100
AcDbEntity
8
0
100
AcDbCircle
10
-148.75003208972367
20
54.601509308132208
30
0
40
1.0000000000000073
210
0
220
-0
230
1
0
CIRCLE
5
102
100
AcDbEntity
8
0
100
AcDbCircle
10
-177.08003208972366
20
44.601312026816288
30
0
40
1
210
0
220
-0
230
1
0
CIRCLE
5
103
100
AcDbEntity
8
0
100
AcDbCircle
10
-97.698667499706346
20
54.601509308132208
30
0
40
0.99999999999999889
210
0
220
-0
230
1
0
CIRCLE
5
104
100
AcDbEntity
8
0
100
AcDbCircle
10
-100.42790637752995
20
-82.647687973183707
30
0
40
1.1000000000000005
210
0
220
-0
230
1
0
CIRCLE
5
105
100
AcDbEntity
8
0
100
AcDbCircle
10
-14.829515261691618
20
-84.39868797318374
30
0
40
1
210
0
220
-0
230
1
0
LWPOLYLINE
5
106
100
AcDbEntity
8
0
100
AcDbPolyline
90
4
70
1
43
0.0
10
-175.08003208972366
20
12.602312026816275
10
-175.08003208972366
20
26.602312026816286
10
-161.08003208972372
20
26.602312026816275
10
-161.08003208972372
20
12.602312026816275
0
LWPOLYLINE
5
107
100
AcDbEntity
8
0
100
AcDbPolyline
90
4
70
1
43
0.0
10
-156.03003208972368
20
12.602312026816275
10
-156.0300320897237
20
26.602312026816271
10
-142.0300320897237
20
26.602312026816275
10
-142.03003208972368
20
12.602312026816275
0
LWPOLYLINE
5
108
100
AcDbEntity
8
0
100
AcDbPolyline
90
4
70
1
43
0.0
10
-136.98003208972369
20
19.602312026816275
10
-136.98003208972369
20
33.602312026816278
10
-122.98003208972368
20
33.602312026816278
10
-122.98003208972368
20
19.602312026816275
0
LWPOLYLINE
5
109
100
AcDbEntity
8
0
100
AcDbPolyline
90
4
70
1
43
0.0
10
-117.93003208972367
20
23.602312026816271
10
-117.93003208972367
20
37.602312026816278
10
-103.93003208972367
20
37.602312026816278
10
-103.93003208972368
20
23.602312026816268
0
LWPOLYLINE
5
110
100
AcDbEntity
8
0
100
AcDbPolyline
90
4
70
1
43
0.0
10
-98.88003208972367
20
33.602312026816293
10
-98.88003208972367
20
19.602312026816289
10
-84.880032089723656
20
19.602312026816286
10
-84.880032089723656
20
33.602312026816293
0
LWPOLYLINE
5
111
100
AcDbEntity
8
0
100
AcDbPolyline
90
4
70
1
43
0.0
10
-65.830032089723659
20
19.602312026816289
10
-79.830032089723659
20
19.602312026816286
10
-79.830032089723659
20
33.602312026816293
10
-65.830032089723659
20
33.602312026816286
0
LWPOLYLINE
5
112
100
AcDbEntity
8
0
100
AcDbPolyline
90
4
70
1
43
0.0
10
-67.639739431945344
20
-43.516998624402689
10
-54.48404274094262
20
-48.305280630962031
10
-59.272324747501969
20
-61.460977321964698
10
-72.428021438504686
20
-56.67269531540542
0
LWPOLYLINE
5
113
100
AcDbEntity
8
0
100
AcDbPolyline
90
4
70
1
43
0.0
10
-53.022514431165092
20
-63.755614650255374
10
-47.105858766795272
20
-51.067305631742315
10
-34.417549748282198
20
-56.983961296112113
10
-40.334205412652011
20
-69.672270314625209
0
LWPOLYLINE
5
114
100
AcDbEntity
8
0
100
AcDbPolyline
90
4
70
1
43
0.0
10
-35.757351088116906
20
-71.806492536415689
10
-29.8406954237471
20
-59.118183517902629
10
-17.152386405234012
20
-65.034839182272407
10
-23.06904206960381
20
-77.723148200785474
0
LWPOLYLINE
5
115
100
AcDbEntity
8
0
100
AcDbPolyline
90
4
70
1
43
0.0
10
-25.203264291394319
20
-82.300002525320508
10
-31.119919955764122
20
-94.98831154383366
10
-43.808228974277199
20
-89.071655879463819
10
-37.891573309907407
20
-76.38334686095078
0
LWPOLYLINE
5
116
100
AcDbEntity
8
0
100
AcDbPolyline
90
4
70
1
43
0.0
10
-42.468427634441582
20
-74.249124639162218
10
-48.385083298811367
20
-86.937433657675257
10
-61.073392317324448
20
-81.02077799330543
10
-55.156736652954663
20
-68.332468974792349
0
LWPOLYLINE
5
117
100
AcDbEntity
8
0
100
AcDbPolyline
90
4
70
1
43
0.0
10
-60.999526471296655
20
-66.206425056933512
10
-65.787808477855975
20
-79.362121747936214
10
-78.943505168858664
20
-74.573839741376901
10
-74.155223162299365
20
-61.418143050374198
0
LWPOLYLINE
5
118
100
AcDbEntity
8
0
100
AcDbPolyline
90
4
70
1
43
0.0
10
-84.380032089723642
20
-61.647687973183722
10
-84.380032089723628
20
-75.647687973183736
10
-98.38003208972367
20
-75.647687973183707
10
-98.38003208972367
20
-61.647687973183722
0
LWPOLYLINE
5
119
100
AcDbEntity
8
0
100
AcDbPolyline
90
4
70
1
43
0.0
10
-102.93003208972367
20
-59.347687973183724
10
-102.93003208972367
20
-77.947687973183704
10
-117.93003208972364
20
-77.947687973183704
10
-117.93003208972368
20
-59.347687973183739
0
LWPOLYLINE
5
120
100
AcDbEntity
8
0
100
AcDbPolyline
90
4
70
1
43
0.0
10
-77.88003208972367
20
-42.597687973183739
10
-77.88003208972367
20
-56.597687973183724
10
-91.88003208972367
20
-56.597687973183724
10
-91.88003208972367
20
-42.597687973183739
0
LWPOLYLINE
5
121
100
AcDbEntity
8
0
100
AcDbPolyline
90
4
70
1
43
0.0
10
-96.930032089723682
20
-42.597687973183739
10
-96.930032089723682
20
-56.597687973183724
10
-110.93003208972368
20
-56.597687973183746
10
-110.93003208972368
20
-42.597687973183724
0
LWPOLYLINE
5
122
100
AcDbEntity
8
0
100
AcDbPolyline
90
5
70
1
43
0.0
10
-120.98003208972402
20
-43.597687973183881
10
-120.98003208972402
20
-55.597687973183838
10
-132.98003208972401
20
-55.597687973183838
10
-132.98003208972401
20
-49.547687973183869
10
-132.98003208972401
20
-43.597687973183881
0
LWPOLYLINE
5
123
100
AcDbEntity
8
0
100
AcDbPolyline
90
4
70
1
43
0.0
10
-142.0300320897237
20
-30.547687973183749
10
-142.03003208972368
20
-44.547687973183727
10
-156.0300320897237
20
-44.547687973183741
10
-156.0300320897237
20
-30.547687973183741
0
LWPOLYLINE
5
124
100
AcDbEntity
8
0
100
AcDbPolyline
90
4
70
1
43
0.0
10
-161.08003208972372
20
-30.547687973183749
10
-161.08003208972377
20
-44.547687973183741
10
-175.08003208972366
20
-44.547687973183741
10
-175.08003208972366
20
-30.547687973183741
0
LWPOLYLINE
5
125
100
AcDbEntity
8
0
100
AcDbPolyline
90
4
70
1
43
0.0
10
-161.08003208972372
20
-11.497687973183739
10
-161.08003208972372
20
-25.497687973183734
10
-175.08003208972366
20
-25.497687973183723
10
-175.08003208972366
20
-11.49768797318373
0
LWPOLYLINE
5
126
100
AcDbEntity
8
0
100
AcDbPolyline
90
4
70
1
43
0.0
10
-161.08003208972372
20
-6.4476879731837311
10
-175.08003208972366
20
-6.4476879731837222
10
-175.08003208972366
20
7.5523120268162769
10
-161.08003208972372
20
7.5523120268162769
0
LWPOLYLINE
5
127
100
AcDbEntity
8
0
100
AcDbPolyline
90
4
70
1
43
0.0
10
-156.0300320897237
20
7.5523120268162769
10
-142.03003208972368
20
7.5523120268162769
10
-142.03003208972368
20
-6.4476879731837311
10
-156.0300320897237
20
-6.4476879731837222
0
LWPOLYLINE
5
128
100
AcDbEntity
8
0
100
AcDbPolyline
90
4
70
1
43
0.0
10
-156.0300320897237
20
-11.49768797318373
10
-142.0300320897237
20
-11.497687973183739
10
-142.03003208972368
20
-25.497687973183734
10
-156.03003208972368
20
-25.497687973183723
0
LWPOLYLINE
5
129
100
AcDbEntity
8
0
100
AcDbPolyline
90
4
70
1
43
0.0
10
-122.98003208972368
20
-18.49768797318373
10
-136.98003208972369
20
-18.497687973183723
10
-136.98003208972369
20
-4.4976879731837283
10
-122.98003208972368
20
-4.4976879731837371
0
LWPOLYLINE
5
130
100
AcDbEntity
8
0
100
AcDbPolyline
90
4
70
1
43
0.0
10
-136.98003208972369
20
-23.547687973183749
10
-122.98003208972368
20
-23.547687973183756
10
-122.98003208972368
20
-37.547687973183741
10
-136.98003208972369
20
-37.547687973183734
0
LWPOLYLINE
5
131
100
AcDbEntity
8
0
100
AcDbPolyline
90
4
70
1
43
0.0
10
-103.93003208972368
20
-33.547687973183741
10
-117.93003208972368
20
-33.547687973183741
10
-117.93003208972367
20
-19.547687973183745
10
-103.93003208972367
20
-19.547687973183745
0
LWPOLYLINE
5
132
100
AcDbEntity
8
0
100
AcDbPolyline
90
4
70
1
43
0.0
10
-98.88003208972367
20
-23.54768797318372
10
-84.880032089723656
20
-23.54768797318372
10
-84.880032089723656
20
-37.547687973183727
10
-98.88003208972367
20
-37.547687973183727
0
LWPOLYLINE
5
133
100
AcDbEntity
8
0
100
AcDbPolyline
90
4
70
1
43
0.0
10
-65.830032089723659
20
-37.547687973183727
10
-79.830032089723659
20
-37.547687973183727
10
-79.830032089723659
20
-23.54768797318372
10
-65.830032089723659
20
-23.54768797318372
0
LWPOLYLINE
5
134
100
AcDbEntity
8
0
100
AcDbPolyline
90
4
70
1
43
0.0
10
-84.88003208972367
20
-18.49768797318373
10
-98.88003208972367
20
-18.49768797318373
10
-98.88003208972367
20
-4.4976879731837194
10
-84.88003208972367
20
-4.4976879731837194
0
LWPOLYLINE
5
135
100
AcDbEntity
8
0
100
AcDbPolyline
90
4
70
1
43
0.0
10
-103.93003208972367
20
-0.49768797318372915
10
-103.93003208972368
20
-14.497687973183737
10
-117.93003208972367
20
-14.497687973183737
10
-117.93003208972367
20
-0.49768797318372915
0
LWPOLYLINE
5
136
100
AcDbEntity
8
0
100
AcDbPolyline
90
4
70
1
43
0.0
10
-122.98003208972368
20
14.552312026816271
10
-122.98003208972368
20
0.55231202681626179
10
-136.98003208972369
20
0.55231202681626623
10
-136.98003208972369
20
14.552312026816274
0
LWPOLYLINE
5
137
100
AcDbEntity
8
0
100
AcDbPolyline
90
4
70
1
43
0.0
10
-117.93003208972367
20
18.552312026816274
10
-103.93003208972367
20
18.552312026816274
10
-103.93003208972368
20
4.5523120268162698
10
-117.93003208972367
20
4.5523120268162698
0
LWPOLYLINE
5
138
100
AcDbEntity
8
0
100
AcDbPolyline
90
4
70
1
43
0.0
10
-98.88003208972367
20
14.552312026816292
10
-84.880032089723642
20
14.552312026816292
10
-84.880032089723642
20
0.552312026816284
10
-98.88003208972367
20
0.552312026816284
0
LWPOLYLINE
5
139
100
AcDbEntity
8
0
100
AcDbPolyline
90
4
70
1
43
0.0
10
-79.830032089723645
20
14.552312026816292
10
-79.830032089723645
20
0.552312026816284
10
-65.830032089723659
20
0.552312026816284
10
-65.830032089723659
20
14.552312026816292
0
LWPOLYLINE
5
140
100
AcDbEntity
8
0
100
AcDbPolyline
90
4
70
1
43
0.0
10
-65.830032089723659
20
-18.49768797318373
10
-79.830032089723687
20
-18.49768797318373
10
-79.830032089723687
20
-4.4976879731837194
10
-65.830032089723659
20
-4.4976879731837194
0
CIRCLE
5
141
100
AcDbEntity
8
0
100
AcDbCircle
10
-182.08003208972366
20
-9.7744538606986531
30
0
40
0.99999999999999079
210
0
220
-0
230
1
0
LINE
5
142
100
AcDbEntity
8
0
100
AcDbLine
10
-116.42790637266873
20
-81.138731867580262
30
0
11
-84.427906377529922
21
-81.138731867580546
31
0
0
LINE
5
143
100
AcDbEntity
8
0
100
AcDbLine
10
-148.75503208972364
20
56.601509308132208
30
0
11
-148.75503208972364
21
44.000000655651093
31
0
0
LINE
5
144
100
AcDbEntity
8
0
100
AcDbLine
10
-97.714349794715005
20
56.601509308132201
30
0
11
-97.714349794715005
21
49.000000730156898
31
0
0
ENDSEC
0
SECTION
2
OBJECTS
0
DICTIONARY
5
C
100
AcDbDictionary
3
ACAD_GROUP
350
D
3
ACAD_MLINESTYLE
350
17
0
DICTIONARY
5
D
100
AcDbDictionary
0
DICTIONARY
5
1A
330
C
100
AcDbDictionary
0
DICTIONARY
5
17
100
AcDbDictionary
0
ENDSEC
0
EOF
