0
SECTION
2
HEADER
9
$INSUNITS
70
4
9
$ACADVER
1
AC1014
9
$HANDSEED
5
FFFF
0
ENDSEC
0
SECTION
2
TABLES
0
TABLE
2
VPORT
5
8
100
AcDbSymbolTable
0
ENDTAB
0
TABLE
2
LTYPE
5
5
100
AcDbSymbolTable
0
LTYPE
5
14
100
AcDbSymbolTableRecord
100
AcDbLinetypeTableRecord
2
BYBLOCK
70
0
0
LTYPE
5
15
100
AcDbSymbolTableRecord
100
AcDbLinetypeTableRecord
2
BYLAYER
70
0
0
ENDTAB
0
TABLE
2
LAYER
5
2
100
AcDbSymbolTable
70
2
0
LAYER
5
50
100
AcDbSymbolTableRecord
100
AcDbLayerTableRecord
2
0
70
0
6
CONTINUOUS
0
ENDTAB
0
TABLE
2
STYLE
5
3
100
AcDbSymbolTable
70
1
0
STYLE
5
11
100
AcDbSymbolTableRecord
100
AcDbTextStyleTableRecord
2
STANDARD
70
0
0
ENDTAB
0
TABLE
2
VIEW
5
6
100
AcDbSymbolTable
70
0
0
ENDTAB
0
TABLE
2
UCS
5
7
100
AcDbSymbolTable
70
0
0
ENDTAB
0
TABLE
2
APPID
5
9
100
AcDbSymbolTable
70
2
0
APPID
5
12
100
AcDbSymbolTableRecord
100
AcDbRegAppTableRecord
2
ACAD
70
0
0
ENDTAB
0
TABLE
2
DIMSTYLE
5
A
100
AcDbSymbolTable
70
1
0
ENDTAB
0
TABLE
2
BLOCK_RECORD
5
1
100
AcDbSymbolTable
70
1
0
BLOCK_RECORD
5
1F
100
AcDbSymbolTableRecord
100
AcDbBlockTableRecord
2
*MODEL_SPACE
0
BLOCK_RECORD
5
1B
100
AcDbSymbolTableRecord
100
AcDbBlockTableRecord
2
*PAPER_SPACE
0
ENDTAB
0
ENDSEC
0
SECTION
2
BLOCKS
0
BLOCK
5
20
100
AcDbEntity
100
AcDbBlockBegin
2
*MODEL_SPACE
0
ENDBLK
5
21
100
AcDbEntity
100
AcDbBlockEnd
0
BLOCK
5
1C
100
AcDbEntity
100
AcDbBlockBegin
2
*PAPER_SPACE
0
ENDBLK
5
1D
100
AcDbEntity
100
AcDbBlockEnd
0
ENDSEC
0
SECTION
2
ENTITIES
0
LWPOLYLINE
5
100
100
AcDbEntity
8
0
100
AcDbPolyline
90
8
70
1
43
0.0
10
155.53003208972368
20
11.49768797318373
10
142.5300320897237
20
11.497687973183741
42
-0.41421356237308982
10
142.0300320897237
20
11.997687973183739
10
142.0300320897237
20
24.997687973183737
42
-0.41421356237309243
10
142.5300320897237
20
25.497687973183734
10
155.53003208972368
20
25.497687973183723
42
-0.41421356237308721
10
156.03003208972368
20
24.99768797318373
10
156.03003208972368
20
11.99768797318373
42
-0.41421356237309115
0
LWPOLYLINE
5
101
100
AcDbEntity
8
0
100
AcDbPolyline
90
8
70
1
43
0.0
10
136.98003208972369
20
17.997687973183726
10
136.98003208972369
20
4.9976879731837283
42
-0.41421356237309209
10
136.48003208972369
20
4.4976879731837291
10
123.48003208972369
20
4.4976879731837336
42
-0.41421356237309309
10
122.98003208972368
20
4.9976879731837371
10
122.98003208972368
20
17.99768797318373
42
-0.41421356237309115
10
123.48003208972369
20
18.49768797318373
10
136.48003208972369
20
18.497687973183726
42
-0.41421356237308982
0
LWPOLYLINE
5
102
100
AcDbEntity
8
0
100
AcDbPolyline
90
8
70
1
43
0.0
10
85.38003208972367
20
37.547687973183727
10
98.380032089723684
20
37.547687973183741
42
-0.41421356237305601
10
98.880032089723699
20
37.047687973183734
10
98.880032089723699
20
24.04768797318372
42
-0.4142135623730378
10
98.380032089723699
20
23.54768797318372
10
85.38003208972367
20
23.54768797318372
42
-0.41421356237308721
10
84.880032089723656
20
24.047687973183717
10
84.880032089723656
20
37.047687973183734
42
-0.41421356237310281
0
LWPOLYLINE
5
103
100
AcDbEntity
8
0
100
AcDbPolyline
90
8
70
1
43
0.0
10
117.93003208972368
20
-5.0523120268162707
10
117.93003208972368
20
-18.052312026816274
42
-0.41421356237309243
10
117.43003208972368
20
-18.552312026816274
10
104.43003208972368
20
-18.552312026816264
42
-0.4142135623730534
10
103.93003208972368
20
-18.052312026816274
10
103.93003208972371
20
-5.0523120268162707
42
-0.41421356237305601
10
104.4300320897237
20
-4.5523120268162698
10
117.43003208972368
20
-4.5523120268162671
42
-0.41421356237309243
0
LWPOLYLINE
5
104
100
AcDbEntity
8
0
100
AcDbPolyline
90
8
70
1
43
0.0
10
117.43003208972368
20
0.49768797318372915
10
104.4300320897237
20
0.49768797318373525
42
-0.41421356237306661
10
103.93003208972368
20
0.99768797318372937
10
103.93003208972371
20
13.997687973183734
42
-0.41421356237305601
10
104.4300320897237
20
14.497687973183735
10
117.43003208972368
20
14.497687973183737
42
-0.41421356237309243
10
117.93003208972368
20
13.997687973183734
10
117.93003208972368
20
0.9976879731837297
42
-0.41421356237309265
0
LWPOLYLINE
5
105
100
AcDbEntity
8
0
100
AcDbPolyline
90
8
70
1
43
0.0
10
43.596919843406852
20
88.6185019859455
10
38.102882440777755
20
76.836500754469114
42
-0.41421356237312085
10
37.438419416389088
20
76.594655991821128
10
25.656418184912653
20
82.088693394450161
42
-0.41421356237311718
10
25.414573422264684
20
82.753156418838842
10
30.908610824893763
20
94.535157650315327
42
-0.4142135623730856
10
31.573073849282451
20
94.777002412963313
10
43.355075080758866
20
89.282965010334152
42
-0.41421356237307871
0
LWPOLYLINE
5
106
100
AcDbEntity
8
0
100
AcDbPolyline
90
8
70
1
43
0.0
10
104.43003208972368
20
33.547687973183727
10
117.43003208972368
20
33.547687973183727
42
-0.41421356237308721
10
117.93003208972368
20
33.047687973183734
10
117.93003208972368
20
20.047687973183741
42
-0.41421356237309243
10
117.43003208972368
20
19.547687973183745
10
104.43003208972368
20
19.547687973183756
42
-0.4142135623730534
10
103.93003208972368
20
20.047687973183741
10
103.93003208972368
20
33.047687973183734
42
-0.4142135623730378
0
LWPOLYLINE
5
107
100
AcDbEntity
8
0
100
AcDbPolyline
90
8
70
1
43
0.0
10
78.38003208972367
20
56.597687973183724
10
91.38003208972367
20
56.597687973183724
42
-0.41421356237308982
10
91.880032089723684
20
56.097687973183731
10
91.880032089723684
20
43.097687973183731
42
-0.41421356237312623
10
91.38003208972367
20
42.597687973183731
10
78.38003208972367
20
42.597687973183731
42
-0.41421356237310542
10
77.88003208972367
20
43.097687973183731
10
77.88003208972367
20
56.097687973183739
42
-0.41421356237308982
0
LWPOLYLINE
5
108
100
AcDbEntity
8
0
100
AcDbPolyline
90
8
70
1
43
0.0
10
79.830032089723659
20
37.047687973183734
10
79.830032089723659
20
24.047687973183717
42
-0.41421356237309503
10
79.330032089723673
20
23.547687973183717
10
66.330032089723659
20
23.547687973183717
42
-0.41421356237309503
10
65.830032089723659
20
24.047687973183717
10
65.830032089723659
20
37.047687973183734
42
-0.41421356237308982
10
66.330032089723659
20
37.547687973183727
10
79.330032089723673
20
37.547687973183727
42
-0.41421356237309503
0
LWPOLYLINE
5
109
100
AcDbEntity
8
0
100
AcDbPolyline
90
8
70
1
43
0.0
10
29.387541530228773
20
59.329492648772977
10
17.605540298752341
20
64.823530051402059
42
-0.41421356237310486
10
17.363695536104363
20
65.487993075790726
10
22.857732938733463
20
77.26999430726714
42
-0.41421356237309037
10
23.522195963122137
20
77.511839069915112
10
35.304197194598572
20
72.017801667286051
42
-0.41421356237310325
10
35.546041957246544
20
71.35333864289737
10
30.052004554617454
20
59.571337411420949
42
-0.41421356237309631
0
LWPOLYLINE
5
110
100
AcDbEntity
8
0
100
AcDbPolyline
90
8
70
1
43
0.0
10
60.862083186454115
20
80.567624099787139
10
55.368045783825011
20
68.785622868310682
42
-0.41421356237310669
10
54.70358275943633
20
68.54377810566271
10
42.921581527959916
20
74.037815508291857
42
-0.41421356237304852
10
42.67973676531193
20
74.702278532680538
10
48.173774167941026
20
86.484279764156909
42
-0.41421356237312051
10
48.838237192329686
20
86.726124526804895
10
60.620238423806128
20
81.232087124175791
42
-0.41421356237308815
0
LWPOLYLINE
5
111
100
AcDbEntity
8
0
100
AcDbPolyline
90
8
70
1
43
0.0
10
98.380032089723684
20
75.147687973183693
10
98.38003208972367
20
62.147687973183722
42
-0.41421356237305862
10
97.880032089723684
20
61.647687973183722
10
84.880032089723656
20
61.647687973183707
42
-0.41421356237311585
10
84.380032089723642
20
62.147687973183714
10
84.380032089723642
20
75.14768797318375
42
-0.41421356237304818
10
84.880032089723642
20
75.647687973183736
10
97.88003208972367
20
75.647687973183707
42
-0.41421356237305862
0
LWPOLYLINE
5
112
100
AcDbEntity
8
0
100
AcDbPolyline
90
8
70
1
43
0.0
10
117.93003208972365
20
77.447687973183719
10
117.93003208972368
20
59.847687973183753
42
-0.41421356237309503
10
117.43003208972368
20
59.347687973183753
10
103.4300320897237
20
59.347687973183731
42
-0.41421356237308982
10
102.93003208972368
20
59.847687973183731
10
102.93003208972368
20
77.447687973183719
42
-0.4142135623730846
10
103.4300320897237
20
77.947687973183704
10
117.43003208972365
20
77.947687973183704
42
-0.4142135623730846
0
LWPOLYLINE
5
113
100
AcDbEntity
8
0
100
AcDbPolyline
90
8
70
1
43
0.0
10
161.58003208972377
20
44.547687973183756
10
174.58003208972366
20
44.547687973183741
42
-0.41421356237312623
10
175.08003208972366
20
44.047687973183756
10
175.08003208972366
20
31.047687973183741
42
-0.41421356237304563
10
174.58003208972366
20
30.547687973183741
10
161.58003208972374
20
30.54768797318377
42
-0.41421356237312362
10
161.08003208972374
20
31.047687973183752
10
161.08003208972377
20
44.047687973183756
42
-0.41421356237314183
0
LWPOLYLINE
5
114
100
AcDbEntity
8
0
100
AcDbPolyline
90
8
70
1
43
0.0
10
136.98003208972369
20
37.047687973183734
10
136.98003208972369
20
24.047687973183756
42
-0.41421356237309243
10
136.48003208972369
20
23.547687973183756
10
123.48003208972369
20
23.547687973183766
42
-0.41421356237308721
10
122.98003208972368
20
24.047687973183759
10
122.98003208972368
20
37.047687973183741
42
-0.41421356237308982
10
123.48003208972369
20
37.547687973183741
10
136.48003208972369
20
37.547687973183727
42
-0.41421356237308721
0
LWPOLYLINE
5
115
100
AcDbEntity
8
0
100
AcDbPolyline
90
4
70
1
43
0.0
10
132.98003208972401
20
55.597687973183852
10
132.98003208972401
20
43.597687973183881
10
120.98003208972401
20
43.597687973183881
10
120.98003208972401
20
55.597687973183852
0
LWPOLYLINE
5
116
100
AcDbEntity
8
0
100
AcDbPolyline
90
8
70
1
43
0.0
10
136.98003208972369
20
-1.0523120268162667
10
136.98003208972369
20
-14.052312026816276
42
-0.41421356237309243
10
136.48003208972369
20
-14.552312026816274
10
123.48003208972369
20
-14.552312026816272
42
-0.41421356237308982
10
122.98003208972368
20
-14.052312026816274
10
122.98003208972368
20
-1.0523120268162625
42
-0.41421356237309265
10
123.48003208972369
20
-0.55231202681626335
10
136.48003208972369
20
-0.55231202681626346
42
-0.41421356237309276
0
LWPOLYLINE
5
117
100
AcDbEntity
8
0
100
AcDbPolyline
90
8
70
1
43
0.0
10
97.430032089723682
20
56.597687973183724
10
110.43003208972368
20
56.597687973183746
42
-0.41421356237308982
10
110.9300320897237
20
56.097687973183746
10
110.9300320897237
20
43.097687973183724
42
-0.41421356237308982
10
110.43003208972368
20
42.597687973183724
10
97.43003208972371
20
42.597687973183753
42
-0.414213562373069
10
96.93003208972371
20
43.097687973183731
10
96.930032089723696
20
56.097687973183739
42
-0.4142135623730534
0
LWPOLYLINE
5
118
100
AcDbEntity
8
0
100
AcDbPolyline
90
8
70
1
43
0.0
10
40.787359306170323
20
69.460961183754861
10
52.569360537646773
20
63.966923781125743
42
-0.4142135623730554
10
52.811205300294745
20
63.302460756737062
10
47.31716789766562
20
51.520459525260648
42
-0.41421356237309503
10
46.652704873276953
20
51.278614762612669
10
34.870703641800517
20
56.772652165241759
42
-0.41421356237310686
10
34.628858879152546
20
57.437115189630433
10
40.122896281781635
20
69.219116421106875
42
-0.41421356237306484
0
LWPOLYLINE
5
119
100
AcDbEntity
8
0
100
AcDbPolyline
90
8
70
1
43
0.0
10
155.53003208972368
20
30.547687973183741
10
142.5300320897237
20
30.547687973183759
42
-0.41421356237308721
10
142.0300320897237
20
31.047687973183752
10
142.0300320897237
20
44.047687973183727
42
-0.41421356237308982
10
142.5300320897237
20
44.547687973183727
10
155.53003208972368
20
44.547687973183741
42
-0.41421356237310542
10
156.03003208972368
20
44.047687973183756
10
156.03003208972368
20
31.047687973183741
42
-0.41421356237309243
0
CIRCLE
5
120
100
AcDbEntity
8
0
100
AcDbCircle
10
181.08003208972363
20
9.7744538606986531
30
0
40
0.99999999999997868
210
0
220
-0
230
1
0
LWPOLYLINE
5
121
100
AcDbEntity
8
0
100
AcDbPolyline
90
8
70
1
43
0.0
10
79.830032089723659
20
-20.102312026816289
10
79.830032089723659
20
-33.102312026816286
42
-0.41421356237309764
10
79.330032089723673
20
-33.602312026816286
10
66.330032089723659
20
-33.602312026816286
42
-0.41421356237309503
10
65.830032089723659
20
-33.102312026816286
10
65.830032089723659
20
-20.102312026816289
42
-0.41421356237309503
10
66.330032089723659
20
-19.602312026816293
10
79.330032089723673
20
-19.602312026816293
42
-0.41421356237309503
0
LWPOLYLINE
5
122
100
AcDbEntity
8
0
100
AcDbPolyline
90
8
70
1
43
0.0
10
85.38003208972367
20
-19.602312026816293
10
98.380032089723699
20
-19.6023120268163
42
-0.4142135623730534
10
98.880032089723699
20
-20.102312026816289
10
98.880032089723699
20
-33.102312026816286
42
-0.41421356237307161
10
98.380032089723684
20
-33.602312026816286
10
85.38003208972367
20
-33.602312026816293
42
-0.41421356237309243
10
84.880032089723656
20
-33.102312026816286
10
84.880032089723656
20
-20.102312026816289
42
-0.41421356237309243
0
CIRCLE
5
123
100
AcDbEntity
8
0
100
AcDbCircle
10
177.08003208972369
20
-37.601312026816245
30
0
40
1.0000000000000142
210
0
220
-0
230
1
0
CIRCLE
5
124
100
AcDbEntity
8
0
100
AcDbCircle
10
100.42790637752995
20
82.647687973183693
30
0
40
1.0999999999999943
210
-2.4651903288156619e-32
220
-0
230
1
0
LWPOLYLINE
5
125
100
AcDbEntity
8
0
100
AcDbPolyline
90
8
70
1
43
0.0
10
142.5300320897237
20
-12.60231202681628
10
155.53003208972368
20
-12.602312026816278
42
-0.41421356237308982
10
156.03003208972368
20
-13.102312026816277
10
156.03003208972368
20
-26.102312026816271
42
-0.41421356237308721
10
155.53003208972368
20
-26.602312026816264
10
142.5300320897237
20
-26.602312026816278
42
-0.41421356237309243
10
142.0300320897237
20
-26.102312026816278
10
142.0300320897237
20
-13.102312026816275
42
-0.41421356237308854
0
LWPOLYLINE
5
126
100
AcDbEntity
8
0
100
AcDbPolyline
90
8
70
1
43
0.0
10
123.48003208972369
20
-19.602312026816271
10
136.48003208972369
20
-19.602312026816268
42
-0.41421356237309243
10
136.98003208972369
20
-20.102312026816271
10
136.98003208972369
20
-33.102312026816286
42
-0.41421356237309503
10
136.48003208972369
20
-33.602312026816286
10
123.48003208972369
20
-33.602312026816293
42
-0.41421356237309243
10
122.98003208972368
20
-33.102312026816286
10
122.98003208972368
20
-20.102312026816271
42
-0.41421356237309243
0
LWPOLYLINE
5
127
100
AcDbEntity
8
0
100
AcDbPolyline
90
8
70
1
43
0.0
10
103.93003208972368
20
-37.102312026816286
10
103.93003208972368
20
-24.102312026816264
42
-0.4142135623730378
10
104.43003208972368
20
-23.602312026816268
10
117.43003208972368
20
-23.602312026816264
42
-0.41421356237309243
10
117.93003208972368
20
-24.102312026816264
10
117.93003208972368
20
-37.102312026816286
42
-0.41421356237309503
10
117.43003208972368
20
-37.602312026816293
10
104.43003208972368
20
-37.602312026816293
42
-0.41421356237304041
0
LWPOLYLINE
5
128
100
AcDbEntity
8
0
100
AcDbPolyline
90
8
70
1
43
0.0
10
175.08003208972366
20
-13.102312026816275
10
175.0800320897236
20
-26.102312026816286
42
-0.41421356237302481
10
174.58003208972366
20
-26.602312026816289
10
161.58003208972374
20
-26.602312026816296
42
-0.41421356237310281
10
161.08003208972374
20
-26.102312026816278
10
161.08003208972374
20
-13.102312026816275
42
-0.41421356237310025
10
161.58003208972374
20
-12.602312026816268
10
174.58003208972366
20
-12.602312026816257
42
-0.41421356237310025
0
CIRCLE
5
129
100
AcDbEntity
8
0
100
AcDbCircle
10
14.060873418963777
20
84.749015083005276
30
0
40
1.0000000000000009
210
0
220
-0
230
1
0
LWPOLYLINE
5
130
100
AcDbEntity
8
0
100
AcDbPolyline
90
8
70
1
43
0.0
10
142.0300320897237
20
-7.052312026816276
10
142.0300320897237
20
5.9476879731837311
42
-0.41421356237309176
10
142.5300320897237
20
6.4476879731837311
10
155.53003208972368
20
6.4476879731837258
42
-0.41421356237309243
10
156.03003208972368
20
5.9476879731837231
10
156.03003208972368
20
-7.0523120268162751
42
-0.41421356237309243
10
155.53003208972368
20
-7.5523120268162733
10
142.5300320897237
20
-7.5523120268162796
42
-0.41421356237309243
0
LWPOLYLINE
5
131
100
AcDbEntity
8
0
100
AcDbPolyline
90
7
70
1
43
0.0
10
161.58003208972374
20
25.497687973183748
10
174.58003208972366
20
25.497687973183716
42
-0.41421356237312362
10
175.08003208972366
20
24.99768797318373
10
175.08003208972366
20
11.99768797318373
42
-0.41421356237304691
10
174.58003208972366
20
11.49768797318373
10
161.08003208972374
20
11.497687973183739
10
161.08003208972374
20
24.997687973183737
42
-0.41421356237310281
0
LWPOLYLINE
5
132
100
AcDbEntity
8
0
100
AcDbPolyline
90
8
70
1
43
0.0
10
78.772495097195815
20
74.103993430983962
10
74.326233233962185
20
61.887989360767165
42
-0.41421356237309992
10
73.685376851906412
20
61.58915312203704
10
61.469372781689614
20
66.035414985270677
42
-0.41421356237308354
10
61.170536542959482
20
66.676271367326464
10
65.616798406193155
20
78.892275437543248
42
-0.41421356237309992
10
66.257654788248928
20
79.19111167627338
10
78.473658858465697
20
74.744849813039735
42
-0.41421356237309503
0
CIRCLE
5
133
100
AcDbEntity
8
0
100
AcDbCircle
10
64.305032089723653
20
-40.601509308132208
30
0
40
0.99999999999999645
210
0
220
-0
230
1
0
LWPOLYLINE
5
134
100
AcDbEntity
8
0
100
AcDbPolyline
90
8
70
1
43
0.0
10
79.830032089723687
20
17.99768797318373
10
79.830032089723687
20
4.9976879731837194
42
-0.41421356237309764
10
79.330032089723687
20
4.4976879731837158
10
66.330032089723659
20
4.4976879731837229
42
-0.4142135623730947
10
65.830032089723659
20
4.9976879731837203
10
65.830032089723659
20
17.99768797318373
42
-0.4142135623730937
10
66.330032089723659
20
18.49768797318373
10
79.330032089723687
20
18.49768797318373
42
-0.41421356237308071
0
LWPOLYLINE
5
135
100
AcDbEntity
8
0
100
AcDbPolyline
90
8
70
1
43
0.0
10
175.08003208972366
20
5.9476879731837231
10
175.08003208972366
20
-7.0523120268162751
42
-0.41421356237310347
10
174.58003208972366
20
-7.5523120268162867
10
161.58003208972374
20
-7.5523120268162973
42
-0.4142135623731022
10
161.08003208972374
20
-7.0523120268162778
10
161.08003208972372
20
5.9476879731837329
42
-0.41421356237310542
10
161.58003208972374
20
6.4476879731837311
10
174.58003208972366
20
6.4476879731837418
42
-0.4142135623731022
0
LWPOLYLINE
5
136
100
AcDbEntity
8
0
100
AcDbPolyline
90
8
70
1
43
0.0
10
72.257011366841851
20
56.202849005012482
10
67.810749503608179
20
43.986844934795641
42
-0.41421356237308354
10
67.169893121552406
20
43.688008696065516
10
54.95388905133558
20
48.134270559299203
42
-0.41421356237309992
10
54.655052812605447
20
48.775126941354976
10
59.101314675839127
20
60.99113101157176
42
-0.41421356237308354
10
59.742171057894915
20
61.289967250301878
10
71.958175128111719
20
56.843705387068262
42
-0.41421356237308354
0
LWPOLYLINE
5
137
100
AcDbEntity
8
0
100
AcDbPolyline
90
8
70
1
43
0.0
10
98.880032089723699
20
-1.0523120268162844
10
98.88003208972367
20
-14.052312026816288
42
-0.41421356237305729
10
98.380032089723684
20
-14.552312026816292
10
85.38003208972367
20
-14.55231202681629
42
-0.41421356237308982
10
84.880032089723656
20
-14.052312026816292
10
84.880032089723656
20
-1.0523120268162844
42
-0.4142135623730927
10
85.38003208972367
20
-0.55231202681628389
10
98.380032089723684
20
-0.55231202681628977
42
-0.41421356237306695
0
CIRCLE
5
138
100
AcDbEntity
8
0
100
AcDbCircle
10
82.345744300505572
20
1.960001973183747
30
0
40
2.6000000000000068
210
0
220
-0
230
1
0
LWPOLYLINE
5
139
100
AcDbEntity
8
0
100
AcDbPolyline
90
8
70
1
43
0.0
10
79.330032089723673
20
-14.552312026816292
10
66.330032089723659
20
-14.552312026816288
42
-0.4142135623730937
10
65.830032089723659
20
-14.052312026816292
10
65.830032089723659
20
-1.0523120268162847
42
-0.41421356237309492
10
66.330032089723659
20
-0.55231202681628488
10
79.330032089723673
20
-0.5523120268162871
42
-0.41421356237309459
10
79.830032089723659
20
-1.0523120268162844
10
79.830032089723659
20
-14.052312026816288
42
-0.41421356237309503
0
LWPOLYLINE
5
140
100
AcDbEntity
8
0
100
AcDbPolyline
90
8
70
1
43
0.0
10
85.380032089723684
20
18.49768797318373
10
98.380032089723684
20
18.497687973183726
42
-0.41421356237306639
10
98.880032089723699
20
17.99768797318373
10
98.880032089723699
20
4.9976879731837194
42
-0.41421356237306672
10
98.380032089723684
20
4.4976879731837203
10
85.380032089723684
20
4.4976879731837274
42
-0.41421356237306611
10
84.88003208972367
20
4.9976879731837203
10
84.880032089723699
20
17.99768797318373
42
-0.41421356237305601
0
LWPOLYLINE
5
141
100
AcDbEntity
8
0
100
AcDbPolyline
90
45
70
1
43
0.0
10
61.305032089723646
20
38.556816697658817
42
0.31920785527221757
10
59.760895909382505
20
40.729066657062837
10
52.629682916655241
20
43.210468886188657
10
47.184178382543323
20
44.971437627532111
10
8.2154750231353297
20
63.142842432394474
42
-0.41421356237309359
10
7.3932028301322097
20
65.40201671531598
10
9.4994304411824775
20
69.91883640338159
10
6.7726680204971847
20
71.190346602116406
42
-0.4116714935895634
10
6.2853414698932575
20
72.5113837448624
10
17.898201599176389
20
97.990799864444597
42
-0.41676020878941555
10
19.230764673261724
20
98.482378295771895
10
22.177978293403502
20
97.108070014481086
10
24.601674193813786
20
102.30570264612153
42
-0.40234959564097861
10
25.893396475486892
20
102.80582793885526
10
78.94350516885865
20
80.647687973183707
10
84.427906377529922
20
80.647687973183707
10
84.427906377529936
20
83.647687973183764
42
-0.4142135623730846
10
85.427906377529951
20
84.647687973183736
10
115.42790637252733
20
84.647687973183693
42
-0.41421356235658124
10
116.42790637252733
20
83.647687973240053
10
116.42790637266873
20
81.138731867580262
10
122.6768924824532
20
81.149634073409359
10
140.19011009088612
20
61.647687973183821
10
179.00380663327635
20
61.647687973183835
42
-0.41283140758275555
10
180.00379548807086
20
60.652409232207972
10
180.08822517663651
20
42.769732779279927
42
0.41283140785710581
10
181.0882140323686
20
41.774454038304079
10
183.08003208878603
20
41.77445404017157
42
-0.41421356264771331
10
184.0800320897236
20
40.774454040171584
10
184.08003208972363
20
-21.225546139301358
42
-0.41421356237306772
10
183.08003208972363
20
-22.225546139301358
10
181.08003208972366
20
-22.225546139301358
42
0.41421356237305862
10
180.08003208972366
20
-23.225546139301365
10
180.08003208972372
20
-46.601312026816252
42
-0.41421356237306639
10
179.08003208972372
20
-47.601312026816238
10
176.08003208972366
20
-47.601312026816245
42
0.41421356237305601
10
175.08003208972366
20
-48.601312026816252
10
175.08003208972369
20
-53.601509308132222
42
-0.41421356237308982
10
174.08003208972366
20
-54.601509308132208
10
119.93003208972368
20
-54.601509308132194
10
119.93003208972368
20
-50.601509308132208
10
101.93003208972365
20
-50.601509308132208
10
101.93003208972365
20
-54.601509308132194
10
62.305032089723646
20
-54.601509308132215
42
-0.41421356237309764
10
61.305032089723639
20
-53.601509308132201
0
ENDSEC
0
SECTION
2
OBJECTS
0
DICTIONARY
5
C
100
AcDbDictionary
3
ACAD_GROUP
350
D
3
ACAD_MLINESTYLE
350
17
0
DICTIONARY
5
D
100
AcDbDictionary
0
DICTIONARY
5
1A
330
C
100
AcDbDictionary
0
DICTIONARY
5
17
100
AcDbDictionary
0
ENDSEC
0
EOF
